<svg width="500" height="433" viewBox="0 0 500 433" fill="none" xmlns="http://www.w3.org/2000/svg">
<path d="M0 28.0003C0 28.0003 40 -20.2942 78 11.0001C90.075 20.9443 94.3766 37.833 95.1425 54.6979C95.9162 71.7365 117.555 85.4249 131.164 75.1428C133.036 73.7282 135.17 72.6975 137.441 72.11L142.442 70.8167C168.453 64.0898 194.316 82.2112 196.874 108.956L197.393 114.379C200.295 144.721 230.211 164.837 259.405 156.079L263 155C290.305 139.265 324.668 157.485 326.966 188.914L328.735 213.107C329.843 228.267 342.466 240 357.667 240C359.882 240 362.089 239.747 364.246 239.244L376.055 236.494C404.616 229.843 431.332 253.052 428.738 282.263L427.564 295.484C425.743 315.988 443.286 332.954 463.719 330.449C482.999 328.085 500 343.128 500 362.553V433H0V28.0003Z" fill="white"/>
</svg>
