<svg width="60" height="60" viewBox="0 0 60 60" fill="none" xmlns="http://www.w3.org/2000/svg">
<path d="M12.8571 56.2029C12.2656 56.2029 11.7856 55.7239 11.7856 55.1314V49.4947C11.7856 46.9564 13.4185 44.7568 15.8485 44.0218L24.0117 41.3711C24.4553 41.2275 24.7521 40.8172 24.7521 40.3522V37.6007C24.7521 37.0082 25.2321 36.5293 25.8235 36.5293C26.4149 36.5293 26.8949 37.0082 26.8949 37.6007V40.3522C26.8949 41.7504 26.0024 42.9782 24.6728 43.41L16.4892 46.0661C14.9496 46.5332 13.9285 47.9079 13.9285 49.4947V55.1314C13.9285 55.7239 13.4485 56.2029 12.8571 56.2029Z" fill="white"/>
<path d="M47.1427 56.203C46.5502 56.203 46.0713 55.724 46.0713 55.1315V49.4948C46.0713 47.908 45.0502 46.5323 43.5298 46.0726L35.2638 43.2033C33.9716 42.7544 33.1038 41.534 33.1038 40.1669V37.5997C33.1038 37.0072 33.5827 36.5283 34.1752 36.5283C34.7677 36.5283 35.2466 37.0072 35.2466 37.5997V40.1669C35.2466 40.6233 35.537 41.0305 35.9666 41.1794L44.192 44.0347C46.5813 44.7569 48.2141 46.9565 48.2141 49.4948V55.1315C48.2141 55.724 47.7352 56.203 47.1427 56.203Z" fill="white"/>
<path d="M19.6242 56.2308C19.0327 56.2308 18.5527 55.7519 18.5527 55.1594V52.1144C18.5527 51.5219 19.0327 51.043 19.6242 51.043C20.2156 51.043 20.6956 51.5219 20.6956 52.1144V55.1594C20.6956 55.7519 20.2156 56.2308 19.6242 56.2308Z" fill="white"/>
<path d="M40.3917 56.3068C39.7992 56.3068 39.3203 55.8279 39.3203 55.2354V52.1154C39.3203 51.5229 39.7992 51.0439 40.3917 51.0439C40.9842 51.0439 41.4632 51.5229 41.4632 52.1154V55.2354C41.4632 55.8268 40.9842 56.3068 40.3917 56.3068Z" fill="white"/>
<path d="M20.4225 32.2029C17.8307 29.6304 16.4036 26.2018 16.4036 22.5504C16.4036 15.0526 22.5032 8.95398 30 8.95398C37.4968 8.95398 43.5964 15.0536 43.5964 22.5504C43.5964 26.1118 42.1821 29.4611 39.6139 31.979L38.1139 30.449C40.2675 28.3372 41.4536 25.5322 41.4536 22.5504C41.4536 16.2343 36.315 11.0968 30 11.0968C23.685 11.0968 18.5464 16.2354 18.5464 22.5504C18.5464 25.6265 19.7496 28.514 21.9332 30.6815L20.4225 32.2029Z" fill="white"/>
<path d="M29.9945 39.0912C25.3423 39.0912 21.2838 35.9498 20.1727 31.3748C19.9831 30.5958 19.8877 29.7912 19.8877 28.9844V24.569C19.8877 23.9605 20.162 23.4001 20.6398 23.0294C21.5463 22.3298 22.9573 20.9123 23.9548 19.2215C24.2002 18.8058 24.632 18.5487 25.1098 18.5348C25.5706 18.5198 26.0088 18.7469 26.2681 19.1358C26.2981 19.1819 29.3259 23.578 38.6409 22.7755C39.0148 22.7444 39.3963 22.8708 39.6759 23.128C39.9523 23.3819 40.1109 23.7419 40.1109 24.1158V28.9833C40.1109 29.7923 40.0156 30.5969 39.8259 31.3748C38.7159 35.9487 34.6584 39.088 30.0073 39.0901C30.0041 39.0912 29.9998 39.0912 29.9945 39.0912ZM29.3677 36.9237C29.3698 36.9248 29.3731 36.9248 29.3752 36.9248C29.5916 36.9419 29.8123 36.9548 30.0181 36.9483C30.2184 36.9473 30.4198 36.9398 30.6234 36.9248H30.6298C34.0306 36.6601 36.9202 34.2676 37.7441 30.8701C37.8931 30.2573 37.9681 29.623 37.9681 28.9844V24.9719C31.1881 25.3501 27.0791 23.1065 25.2213 21.2165C23.9313 23.0819 22.4859 24.3012 22.0306 24.6623V28.9844C22.0306 29.6219 22.1056 30.2562 22.2545 30.8701C23.0795 34.2655 25.9681 36.659 29.3677 36.9237Z" fill="white"/>
<path d="M40.3908 56.3068C39.8925 56.3068 39.4458 55.9575 39.3418 55.4497C38.9465 53.5168 37.2247 52.1154 35.249 52.1154C33.8829 52.1154 32.5993 52.7861 31.8183 53.91C31.4036 54.5047 30.7243 54.8593 30 54.8593C29.2758 54.8593 28.5954 54.5047 28.1818 53.91C27.3997 52.7861 26.1172 52.1154 24.75 52.1154C22.8043 52.1154 21.0879 53.4922 20.67 55.3908C20.5436 55.9683 19.9683 56.3304 19.394 56.2072C18.8154 56.0797 18.4511 55.5086 18.5775 54.9311C19.2097 52.0586 21.8058 49.9736 24.75 49.9736C26.8168 49.9736 28.7572 50.9872 29.94 52.6865L30 52.7583L30.059 52.6854C31.2408 50.9861 33.1822 49.9725 35.249 49.9725C38.2383 49.9725 40.8429 52.095 41.4408 55.0211C41.5597 55.6008 41.1858 56.1665 40.6061 56.2854C40.5343 56.2993 40.4625 56.3068 40.3908 56.3068Z" fill="white"/>
<path d="M18.8314 41.2307C18.7553 41.2307 18.6771 41.2222 18.6 41.2061C14.58 40.3189 12.9953 38.7482 12.8271 38.5714C12.6439 38.3786 12.5389 38.1247 12.5335 37.8579C12.2378 24.7307 16.1753 17.5639 19.531 13.8632C19.9285 13.4261 20.6057 13.3918 21.045 13.7893C21.4832 14.1868 21.5164 14.8639 21.1189 15.3032C18.0653 18.6707 14.49 25.215 14.6667 37.3286C15.2121 37.7304 16.5728 38.5639 19.0617 39.1136C19.6403 39.2411 20.0046 39.8122 19.8771 40.3907C19.7657 40.8911 19.3232 41.2307 18.8314 41.2307Z" fill="white"/>
<path d="M41.1697 41.2308C40.6779 41.2308 40.2354 40.8911 40.124 40.3908C39.9965 39.8122 40.3618 39.2411 40.9393 39.1136C43.4218 38.565 44.7836 37.7336 45.3354 37.3265C45.51 25.214 41.9357 18.6686 38.8832 15.3032C38.4868 14.865 38.519 14.1868 38.9572 13.7893C39.3943 13.3918 40.0715 13.424 40.4711 13.8632C43.8257 17.5629 47.7632 24.7297 47.4686 37.8579C47.4622 38.1247 47.3572 38.3786 47.174 38.5725C47.0068 38.7483 45.4222 40.319 41.4022 41.2061C41.3229 41.2233 41.2457 41.2308 41.1697 41.2308Z" fill="white"/>
<path d="M36.8313 10.8976L34.7195 10.5354L35.0549 8.5822C33.7488 8.35613 31.6349 7.7797 29.9999 6.32041C28.3649 7.77863 26.251 8.35613 24.9449 8.5822L25.2792 10.5279L23.1663 10.8901L22.6424 7.83541C22.591 7.5322 22.6713 7.22041 22.8652 6.98148C23.0592 6.74255 23.3463 6.59684 23.6538 6.58398C23.6881 6.58291 27.3577 6.38791 29.1577 4.10148C29.5638 3.58613 30.4349 3.58613 30.841 4.10148C32.6538 6.40398 36.3074 6.58184 36.3449 6.58398C36.6524 6.59684 36.9395 6.74148 37.1324 6.98148C37.3274 7.22148 37.4077 7.5322 37.3552 7.83541L36.8313 10.8976Z" fill="white"/>
</svg>
