<svg width="60" height="60" viewBox="0 0 60 60" fill="none" xmlns="http://www.w3.org/2000/svg">
<path d="M12.8571 56.2029C12.2657 56.2029 11.7857 55.7239 11.7857 55.1314V49.4947C11.7857 46.9564 13.4186 44.7568 15.8486 44.0218L24.0118 41.3711C24.4553 41.2275 24.7521 40.8172 24.7521 40.3522V37.6007C24.7521 37.0082 25.2321 36.5293 25.8236 36.5293C26.415 36.5293 26.895 37.0082 26.895 37.6007V40.3522C26.895 41.7504 26.0025 42.9782 24.6728 43.41L16.4893 46.0661C14.9496 46.5332 13.9286 47.9079 13.9286 49.4947V55.1314C13.9286 55.7239 13.4486 56.2029 12.8571 56.2029Z" fill="#515A44"/>
<path d="M47.1428 56.203C46.5503 56.203 46.0714 55.724 46.0714 55.1315V49.4948C46.0714 47.908 45.0503 46.5323 43.53 46.0726L35.2639 43.2033C33.9718 42.7544 33.1039 41.534 33.1039 40.1669V37.5997C33.1039 37.0072 33.5828 36.5283 34.1753 36.5283C34.7678 36.5283 35.2468 37.0072 35.2468 37.5997V40.1669C35.2468 40.6233 35.5371 41.0305 35.9668 41.1794L44.1921 44.0347C46.5814 44.7569 48.2143 46.9565 48.2143 49.4948V55.1315C48.2143 55.724 47.7353 56.203 47.1428 56.203Z" fill="#515A44"/>
<path d="M19.6243 56.2308C19.0329 56.2308 18.5529 55.7519 18.5529 55.1594V52.1144C18.5529 51.5219 19.0329 51.043 19.6243 51.043C20.2157 51.043 20.6957 51.5219 20.6957 52.1144V55.1594C20.6957 55.7519 20.2157 56.2308 19.6243 56.2308Z" fill="#515A44"/>
<path d="M40.3918 56.3068C39.7993 56.3068 39.3203 55.8279 39.3203 55.2354V52.1154C39.3203 51.5229 39.7993 51.0439 40.3918 51.0439C40.9843 51.0439 41.4632 51.5229 41.4632 52.1154V55.2354C41.4632 55.8268 40.9843 56.3068 40.3918 56.3068Z" fill="#515A44"/>
<path d="M20.4225 32.2029C17.8307 29.6304 16.4036 26.2018 16.4036 22.5504C16.4036 15.0526 22.5032 8.95398 30 8.95398C37.4968 8.95398 43.5964 15.0536 43.5964 22.5504C43.5964 26.1118 42.1821 29.4611 39.6139 31.979L38.1139 30.449C40.2675 28.3372 41.4536 25.5322 41.4536 22.5504C41.4536 16.2343 36.315 11.0968 30 11.0968C23.685 11.0968 18.5464 16.2354 18.5464 22.5504C18.5464 25.6265 19.7496 28.514 21.9332 30.6815L20.4225 32.2029Z" fill="#515A44"/>
<path d="M29.9946 39.0912C25.3425 39.0912 21.2839 35.9498 20.1728 31.3748C19.9832 30.5958 19.8878 29.7912 19.8878 28.9844V24.569C19.8878 23.9605 20.1621 23.4001 20.64 23.0294C21.5464 22.3298 22.9575 20.9123 23.955 19.2215C24.2003 18.8058 24.6321 18.5487 25.11 18.5348C25.5707 18.5198 26.0089 18.7469 26.2682 19.1358C26.2982 19.1819 29.3261 23.578 38.6411 22.7755C39.015 22.7444 39.3964 22.8708 39.6761 23.128C39.9525 23.3819 40.1111 23.7419 40.1111 24.1158V28.9833C40.1111 29.7923 40.0157 30.5969 39.8261 31.3748C38.7161 35.9487 34.6586 39.088 30.0075 39.0901C30.0043 39.0912 30 39.0912 29.9946 39.0912ZM29.3678 36.9237C29.37 36.9248 29.3732 36.9248 29.3753 36.9248C29.5918 36.9419 29.8125 36.9548 30.0182 36.9483C30.2186 36.9473 30.42 36.9398 30.6236 36.9248H30.63C34.0307 36.6601 36.9203 34.2676 37.7443 30.8701C37.8932 30.2573 37.9682 29.623 37.9682 28.9844V24.9719C31.1882 25.3501 27.0793 23.1065 25.2214 21.2165C23.9314 23.0819 22.4861 24.3012 22.0307 24.6623V28.9844C22.0307 29.6219 22.1057 30.2562 22.2546 30.8701C23.0796 34.2655 25.9682 36.659 29.3678 36.9237Z" fill="#515A44"/>
<path d="M40.3907 56.3068C39.8925 56.3068 39.4457 55.9575 39.3418 55.4497C38.9464 53.5168 37.2246 52.1154 35.2489 52.1154C33.8828 52.1154 32.5993 52.7861 31.8182 53.91C31.4036 54.5047 30.7243 54.8593 30 54.8593C29.2757 54.8593 28.5953 54.5047 28.1818 53.91C27.3996 52.7861 26.1171 52.1154 24.75 52.1154C22.8043 52.1154 21.0878 53.4922 20.67 55.3908C20.5436 55.9683 19.9682 56.3304 19.3939 56.2072C18.8153 56.0797 18.4511 55.5086 18.5775 54.9311C19.2096 52.0586 21.8057 49.9736 24.75 49.9736C26.8168 49.9736 28.7571 50.9872 29.94 52.6865L30 52.7583L30.0589 52.6854C31.2407 50.9861 33.1821 49.9725 35.2489 49.9725C38.2382 49.9725 40.8428 52.095 41.4407 55.0211C41.5596 55.6008 41.1857 56.1665 40.6061 56.2854C40.5343 56.2993 40.4625 56.3068 40.3907 56.3068Z" fill="#515A44"/>
<path d="M18.8314 41.2307C18.7553 41.2307 18.6771 41.2222 18.6 41.2061C14.58 40.3189 12.9953 38.7482 12.8271 38.5714C12.6439 38.3786 12.5389 38.1247 12.5336 37.8579C12.2378 24.7307 16.1753 17.5639 19.5311 13.8632C19.9286 13.4261 20.6057 13.3918 21.045 13.7893C21.4832 14.1868 21.5164 14.8639 21.1189 15.3032C18.0653 18.6707 14.49 25.215 14.6668 37.3286C15.2121 37.7304 16.5728 38.5639 19.0618 39.1136C19.6403 39.2411 20.0046 39.8122 19.8771 40.3907C19.7657 40.8911 19.3232 41.2307 18.8314 41.2307Z" fill="#515A44"/>
<path d="M41.1696 41.2308C40.6779 41.2308 40.2354 40.8911 40.1239 40.3908C39.9964 39.8122 40.3618 39.2411 40.9393 39.1136C43.4218 38.565 44.7836 37.7336 45.3354 37.3265C45.51 25.214 41.9357 18.6686 38.8832 15.3032C38.4868 14.865 38.5189 14.1868 38.9571 13.7893C39.3943 13.3918 40.0714 13.424 40.4711 13.8632C43.8257 17.5629 47.7632 24.7297 47.4686 37.8579C47.4621 38.1247 47.3571 38.3786 47.1739 38.5725C47.0068 38.7483 45.4221 40.319 41.4021 41.2061C41.3229 41.2233 41.2457 41.2308 41.1696 41.2308Z" fill="#515A44"/>
<path d="M36.8314 10.8976L34.7196 10.5354L35.055 8.5822C33.7489 8.35613 31.635 7.7797 30 6.32041C28.365 7.77863 26.2511 8.35613 24.945 8.5822L25.2793 10.5279L23.1664 10.8901L22.6425 7.83541C22.5911 7.5322 22.6714 7.22041 22.8653 6.98148C23.0593 6.74255 23.3464 6.59684 23.6539 6.58398C23.6882 6.58291 27.3578 6.38791 29.1578 4.10148C29.5639 3.58613 30.435 3.58613 30.8411 4.10148C32.6539 6.40398 36.3075 6.58184 36.345 6.58398C36.6525 6.59684 36.9396 6.74148 37.1325 6.98148C37.3275 7.22148 37.4078 7.5322 37.3553 7.83541L36.8314 10.8976Z" fill="#515A44"/>
</svg>
