<svg width="60" height="60" viewBox="0 0 60 60" fill="none" xmlns="http://www.w3.org/2000/svg">
<path d="M23.0957 55.0093C22.6403 55.0093 22.2182 54.7168 22.0735 54.2593L18.1092 41.6518L16.8653 42.045C14.3903 42.8111 12.8571 44.9228 12.8571 47.5564V51.795C12.8571 52.3875 12.3771 52.8664 11.7857 52.8664C11.1942 52.8664 10.7142 52.3875 10.7142 51.795V47.5564C10.7142 44.0036 12.8774 41.0368 16.2257 40.0007L18.4864 39.285C18.7574 39.1993 19.0521 39.2239 19.3039 39.3557C19.5567 39.4864 19.7464 39.7125 19.8321 39.9846L24.1189 53.6164C24.2967 54.18 23.9828 54.7821 23.4182 54.96C23.3099 54.9932 23.2017 55.0093 23.0957 55.0093Z" fill="#515A44"/>
<path d="M36.9032 55.0093C36.7971 55.0093 36.6889 54.9932 36.5818 54.96C36.0171 54.7822 35.7043 54.18 35.881 53.6164L40.1678 39.9847C40.2535 39.7125 40.4432 39.4864 40.695 39.3557C40.9478 39.2229 41.2414 39.1982 41.5135 39.285L43.7807 40.0029C47.1214 41.0368 49.2857 44.0025 49.2857 47.5564V51.795C49.2857 52.3875 48.8068 52.8664 48.2143 52.8664C47.6218 52.8664 47.1428 52.3875 47.1428 51.795V47.5564C47.1428 44.9229 45.6085 42.8111 43.141 42.0472L41.8907 41.6518L37.9264 54.2593C37.7818 54.7157 37.3596 55.0093 36.9032 55.0093Z" fill="#515A44"/>
<path d="M40.0617 29.0217V26.8789C41.5092 26.8789 42.6867 25.7014 42.6867 24.2539C42.6867 23.4535 42.3278 22.7067 41.701 22.2064C41.3325 21.9128 41.1996 21.4114 41.3742 20.9732C42.1125 19.1185 42.1982 17.5489 41.625 16.3093C40.8996 14.7364 39.3214 14.1632 39.3053 14.1578C38.8703 14.01 38.5778 13.6018 38.5778 13.1432C38.5778 10.11 35.5607 8.55746 33.0289 7.78925C30.5132 7.02639 27.8646 6.92568 25.3703 7.49996C22.651 8.12461 20.6828 9.45104 19.5171 11.4407C17.1546 15.4757 18.7242 20.9593 18.7403 21.0139C18.8667 21.4435 18.7114 21.9075 18.3525 22.1753C17.6925 22.666 17.3142 23.4246 17.3142 24.2539C17.3142 25.7014 18.4917 26.8789 19.9392 26.8789V29.0217C17.31 29.0217 15.1714 26.8821 15.1714 24.2539C15.1714 23.0121 15.6642 21.8207 16.516 20.9443C16.1217 19.1785 15.3525 14.3142 17.6689 10.3575C19.1432 7.83746 21.5742 6.17354 24.8903 5.41068C27.75 4.75282 30.781 4.86746 33.6514 5.73853C37.9564 7.04461 40.3703 9.35353 40.6853 12.4392C41.4942 12.8657 42.8153 13.7743 43.5707 15.4114C44.3185 17.0335 44.3335 18.9375 43.6157 21.0782C44.3946 21.945 44.8285 23.0657 44.8285 24.2528C44.8296 26.8832 42.691 29.0217 40.0617 29.0217Z" fill="#515A44"/>
<path d="M29.9753 37.8782C29.7 37.8782 29.4225 37.8675 29.145 37.8461C25.1464 37.5354 21.6857 34.9489 20.1139 31.0971C19.5589 29.7375 19.2782 28.3061 19.2782 26.8404V20.7429C19.2782 20.4471 19.4014 20.1632 19.6178 19.9607C19.8343 19.7582 20.1257 19.6543 20.4214 19.6736C20.4996 19.6768 28.1153 20.1139 31.5921 14.7836C31.7893 14.4825 32.1225 14.3014 32.4814 14.2982H32.49C32.8468 14.2982 33.18 14.4761 33.3793 14.7707C33.405 14.8093 36.0386 18.6568 39.93 19.7079C40.3982 19.8343 40.7218 20.2586 40.7218 20.7418V27.1554C40.7218 28.4132 40.5064 29.6454 40.08 30.8186C38.535 35.0668 34.4539 37.8782 29.9753 37.8782ZM22.0971 30.2871C23.3614 33.3846 26.1246 35.4611 29.3111 35.7096C33.1511 36.0129 36.7532 33.6964 38.0657 30.0889C38.4053 29.1514 38.5789 28.1646 38.5789 27.1575V21.5304C35.7525 20.5221 33.6332 18.4468 32.5071 17.1332C29.0796 21.1575 23.7514 21.7639 21.4211 21.8261V26.8414C21.4211 28.0264 21.6482 29.1868 22.0971 30.2871Z" fill="#515A44"/>
<path d="M30.0471 44.3122C29.9839 44.3122 29.9807 44.3111 29.8843 44.3122C29.6228 44.3122 28.7325 44.2468 28.0607 43.6061C27.7435 43.3029 27.3643 42.7565 27.3643 41.88C27.3643 40.8343 27.7853 40.2022 28.1389 39.8539C28.8728 39.1318 29.8146 39.0954 30.0043 39.104C30.2143 39.104 31.14 39.1457 31.8525 39.84C32.2093 40.1872 32.6346 40.8236 32.6346 41.88C32.6346 42.7565 32.2553 43.3029 31.9382 43.6061C31.2685 44.2479 30.3771 44.3122 30.0471 44.3122ZM30.001 41.2468C29.5071 41.265 29.5071 41.6497 29.5071 41.88C29.5071 41.9668 29.521 42.0375 29.5414 42.0579C29.625 42.1361 29.8928 42.1747 29.9518 42.1693C30.1907 42.1682 30.3943 42.1222 30.4607 42.0568C30.4768 42.0397 30.4939 41.9797 30.4939 41.88C30.4939 41.7407 30.4768 41.489 30.36 41.3754C30.2485 41.2661 30.0332 41.2468 30.03 41.2468C30.0193 41.2468 30.0107 41.2468 30.001 41.2468Z" fill="#515A44"/>
<path d="M35.9754 45.9739C35.2436 45.9739 34.5246 45.8839 33.8282 45.705C33.2561 45.5561 32.9111 44.9722 33.0579 44.3989C33.2068 43.8257 33.7929 43.4818 34.3639 43.6286C34.755 43.7304 35.1579 43.7925 35.5682 43.8182C35.9175 42.4361 35.9175 40.98 35.5682 39.5979C33.7125 39.7125 32.4611 40.59 31.9736 40.9982C31.5161 41.3775 30.8421 41.3143 30.4639 40.8632C30.0846 40.4089 30.1446 39.7329 30.5979 39.3536C31.5214 38.5822 33.4886 37.3147 36.4168 37.4539C36.8518 37.4764 37.2311 37.7593 37.3757 38.1707C38.1729 40.4529 38.1729 42.9664 37.3757 45.2475C37.2311 45.6589 36.8529 45.9418 36.4168 45.9643C36.27 45.9707 36.1221 45.9739 35.9754 45.9739Z" fill="#515A44"/>
<path d="M23.6357 45.9642C23.1825 45.9642 22.7753 45.677 22.6253 45.2463C21.8282 42.9642 21.8282 40.4506 22.6253 38.1695C22.7689 37.7581 23.1482 37.4753 23.5832 37.4528C26.4943 37.3167 28.4775 38.582 29.4021 39.3524C29.8564 39.7317 29.9164 40.4067 29.5371 40.861C29.1578 41.3163 28.4818 41.3763 28.0275 40.997C27.4243 40.4935 26.2071 39.7017 24.4318 39.5956C24.0857 40.9638 24.0825 42.406 24.421 43.7753C24.9085 43.741 25.4025 43.6885 25.6371 43.6274C26.2125 43.4806 26.7943 43.8256 26.9421 44.3988C27.09 44.971 26.745 45.556 26.1718 45.7038C25.4335 45.8935 23.9614 45.9524 23.6732 45.962C23.6603 45.9642 23.6485 45.9642 23.6357 45.9642Z" fill="#515A44"/>
<path d="M29.9999 49.2278C30.71 49.2278 31.2857 48.6522 31.2857 47.9421C31.2857 47.232 30.71 46.6564 29.9999 46.6564C29.2899 46.6564 28.7142 47.232 28.7142 47.9421C28.7142 48.6522 29.2899 49.2278 29.9999 49.2278Z" fill="#515A44"/>
<path d="M29.9999 53.6732C30.71 53.6732 31.2857 53.0976 31.2857 52.3875C31.2857 51.6774 30.71 51.1018 29.9999 51.1018C29.2899 51.1018 28.7142 51.6774 28.7142 52.3875C28.7142 53.0976 29.2899 53.6732 29.9999 53.6732Z" fill="#515A44"/>
</svg>
