<svg width="60" height="60" viewBox="0 0 60 60" fill="none" xmlns="http://www.w3.org/2000/svg">
<path d="M23.0958 55.0093C22.6404 55.0093 22.2183 54.7168 22.0736 54.2593L18.1094 41.6518L16.8654 42.045C14.3904 42.8111 12.8572 44.9228 12.8572 47.5564V51.795C12.8572 52.3875 12.3772 52.8664 11.7858 52.8664C11.1944 52.8664 10.7144 52.3875 10.7144 51.795V47.5564C10.7144 44.0036 12.8776 41.0368 16.2258 40.0007L18.4865 39.285C18.7576 39.1993 19.0522 39.2239 19.304 39.3557C19.5569 39.4864 19.7465 39.7125 19.8322 39.9846L24.119 53.6164C24.2969 54.18 23.9829 54.7821 23.4183 54.96C23.3101 54.9932 23.2019 55.0093 23.0958 55.0093Z" fill="white"/>
<path d="M36.9033 55.0093C36.7972 55.0093 36.689 54.9932 36.5819 54.96C36.0172 54.7822 35.7044 54.18 35.8812 53.6164L40.1679 39.9847C40.2537 39.7125 40.4433 39.4864 40.6951 39.3557C40.9479 39.2229 41.2415 39.1982 41.5137 39.285L43.7808 40.0029C47.1215 41.0368 49.2858 44.0025 49.2858 47.5564V51.795C49.2858 52.3875 48.8069 52.8664 48.2144 52.8664C47.6219 52.8664 47.1429 52.3875 47.1429 51.795V47.5564C47.1429 44.9229 45.6087 42.8111 43.1412 42.0472L41.8908 41.6518L37.9265 54.2593C37.7819 54.7157 37.3597 55.0093 36.9033 55.0093Z" fill="white"/>
<path d="M40.0617 29.0217V26.8789C41.5092 26.8789 42.6867 25.7014 42.6867 24.2539C42.6867 23.4535 42.3278 22.7067 41.701 22.2064C41.3325 21.9128 41.1996 21.4114 41.3742 20.9732C42.1125 19.1185 42.1982 17.5489 41.625 16.3093C40.8996 14.7364 39.3214 14.1632 39.3053 14.1578C38.8703 14.01 38.5778 13.6018 38.5778 13.1432C38.5778 10.11 35.5607 8.55746 33.0289 7.78925C30.5132 7.02639 27.8646 6.92568 25.3703 7.49996C22.651 8.12461 20.6828 9.45104 19.5171 11.4407C17.1546 15.4757 18.7242 20.9593 18.7403 21.0139C18.8667 21.4435 18.7114 21.9075 18.3525 22.1753C17.6925 22.666 17.3142 23.4246 17.3142 24.2539C17.3142 25.7014 18.4917 26.8789 19.9392 26.8789V29.0217C17.31 29.0217 15.1714 26.8821 15.1714 24.2539C15.1714 23.0121 15.6642 21.8207 16.516 20.9443C16.1217 19.1785 15.3525 14.3142 17.6689 10.3575C19.1432 7.83746 21.5742 6.17354 24.8903 5.41068C27.75 4.75282 30.781 4.86746 33.6514 5.73853C37.9564 7.04461 40.3703 9.35353 40.6853 12.4392C41.4942 12.8657 42.8153 13.7743 43.5707 15.4114C44.3185 17.0335 44.3335 18.9375 43.6157 21.0782C44.3946 21.945 44.8285 23.0657 44.8285 24.2528C44.8296 26.8832 42.691 29.0217 40.0617 29.0217Z" fill="white"/>
<path d="M29.9755 37.8782C29.7001 37.8782 29.4226 37.8675 29.1451 37.8461C25.1465 37.5354 21.6858 34.9489 20.114 31.0971C19.559 29.7375 19.2783 28.3061 19.2783 26.8404V20.7429C19.2783 20.4471 19.4015 20.1632 19.618 19.9607C19.8344 19.7582 20.1258 19.6543 20.4215 19.6736C20.4997 19.6768 28.1155 20.1139 31.5922 14.7836C31.7894 14.4825 32.1226 14.3014 32.4815 14.2982H32.4901C32.8469 14.2982 33.1801 14.4761 33.3794 14.7707C33.4051 14.8093 36.0387 18.6568 39.9301 19.7079C40.3983 19.8343 40.7219 20.2586 40.7219 20.7418V27.1554C40.7219 28.4132 40.5065 29.6454 40.0801 30.8186C38.5351 35.0668 34.454 37.8782 29.9755 37.8782ZM22.0972 30.2871C23.3615 33.3846 26.1247 35.4611 29.3112 35.7096C33.1512 36.0129 36.7533 33.6964 38.0658 30.0889C38.4055 29.1514 38.579 28.1646 38.579 27.1575V21.5304C35.7526 20.5221 33.6333 18.4468 32.5072 17.1332C29.0798 21.1575 23.7515 21.7639 21.4212 21.8261V26.8414C21.4212 28.0264 21.6483 29.1868 22.0972 30.2871Z" fill="white"/>
<path d="M30.0471 44.3122C29.9839 44.3122 29.9807 44.3111 29.8843 44.3122C29.6228 44.3122 28.7325 44.2468 28.0607 43.6061C27.7435 43.3029 27.3643 42.7565 27.3643 41.88C27.3643 40.8343 27.7853 40.2022 28.1389 39.8539C28.8728 39.1318 29.8146 39.0954 30.0043 39.104C30.2143 39.104 31.14 39.1457 31.8525 39.84C32.2093 40.1872 32.6346 40.8236 32.6346 41.88C32.6346 42.7565 32.2553 43.3029 31.9382 43.6061C31.2685 44.2479 30.3771 44.3122 30.0471 44.3122ZM30.001 41.2468C29.5071 41.265 29.5071 41.6497 29.5071 41.88C29.5071 41.9668 29.521 42.0375 29.5414 42.0579C29.625 42.1361 29.8928 42.1747 29.9518 42.1693C30.1907 42.1682 30.3943 42.1222 30.4607 42.0568C30.4768 42.0397 30.4939 41.9797 30.4939 41.88C30.4939 41.7407 30.4768 41.489 30.36 41.3754C30.2485 41.2661 30.0332 41.2468 30.03 41.2468C30.0193 41.2468 30.0107 41.2468 30.001 41.2468Z" fill="white"/>
<path d="M35.9755 45.9739C35.2437 45.9739 34.5248 45.8839 33.8283 45.705C33.2562 45.5561 32.9112 44.9722 33.058 44.3989C33.2069 43.8257 33.793 43.4818 34.3641 43.6286C34.7551 43.7304 35.158 43.7925 35.5683 43.8182C35.9176 42.4361 35.9176 40.98 35.5683 39.5979C33.7126 39.7125 32.4612 40.59 31.9737 40.9982C31.5162 41.3775 30.8423 41.3143 30.464 40.8632C30.0848 40.4089 30.1448 39.7329 30.598 39.3536C31.5215 38.5822 33.4887 37.3147 36.4169 37.4539C36.8519 37.4764 37.2312 37.7593 37.3758 38.1707C38.173 40.4529 38.173 42.9664 37.3758 45.2475C37.2312 45.6589 36.853 45.9418 36.4169 45.9643C36.2701 45.9707 36.1223 45.9739 35.9755 45.9739Z" fill="white"/>
<path d="M23.6358 45.9642C23.1826 45.9642 22.7754 45.677 22.6254 45.2463C21.8283 42.9642 21.8283 40.4506 22.6254 38.1695C22.769 37.7581 23.1483 37.4753 23.5833 37.4528C26.4944 37.3167 28.4776 38.582 29.4022 39.3524C29.8565 39.7317 29.9165 40.4067 29.5372 40.861C29.1579 41.3163 28.4819 41.3763 28.0276 40.997C27.4244 40.4935 26.2072 39.7017 24.4319 39.5956C24.0858 40.9638 24.0826 42.406 24.4212 43.7753C24.9087 43.741 25.4026 43.6885 25.6372 43.6274C26.2126 43.4806 26.7944 43.8256 26.9422 44.3988C27.0901 44.971 26.7451 45.556 26.1719 45.7038C25.4337 45.8935 23.9615 45.9524 23.6733 45.962C23.6604 45.9642 23.6487 45.9642 23.6358 45.9642Z" fill="white"/>
<path d="M30.0001 49.2278C30.7102 49.2278 31.2858 48.6522 31.2858 47.9421C31.2858 47.232 30.7102 46.6564 30.0001 46.6564C29.29 46.6564 28.7144 47.232 28.7144 47.9421C28.7144 48.6522 29.29 49.2278 30.0001 49.2278Z" fill="white"/>
<path d="M30.0001 53.6732C30.7102 53.6732 31.2858 53.0976 31.2858 52.3875C31.2858 51.6774 30.7102 51.1018 30.0001 51.1018C29.29 51.1018 28.7144 51.6774 28.7144 52.3875C28.7144 53.0976 29.29 53.6732 30.0001 53.6732Z" fill="white"/>
</svg>
