<svg width="80" height="80" viewBox="0 0 80 80" fill="none" xmlns="http://www.w3.org/2000/svg">
<path d="M65.0561 40.9145C65.0561 38.0222 64.4275 35.2402 63.1874 32.646C60.7602 27.5678 60.3949 21.9284 62.159 16.7665C62.5203 15.7091 63.0891 14.6622 62.3644 13.6488C61.9996 13.1388 61.4074 12.8343 60.7799 12.8343H51.0765L51.8561 9.04312C51.9762 8.45917 52.3139 7.95333 52.807 7.61855L60.8545 2.15613C61.3899 1.79276 61.5294 1.06415 61.166 0.528782C60.8027 -0.00658616 60.0741 -0.146091 59.5387 0.217278L51.491 5.67969C50.4899 6.35925 49.8046 7.38609 49.5609 8.57118L48.6843 12.8343H36.6945L42.5833 6.95601C42.9348 6.6067 43.1302 6.12195 43.1199 5.6258C43.1096 5.13136 42.8946 4.65691 42.5309 4.32463C36.0217 -1.63019 26.0286 -1.4096 19.7804 4.82688C19.7799 4.82735 19.7796 4.82782 19.7791 4.82813C19.7789 4.82829 19.7789 4.82829 19.7788 4.82844C19.7786 4.8286 19.7785 4.82876 19.7783 4.82891C13.5307 11.0668 13.3108 21.0421 19.2809 27.5431C19.614 27.9032 20.0873 28.1158 20.5793 28.1259C20.5919 28.1263 20.6044 28.1263 20.6171 28.1263C21.0975 28.1263 21.5655 27.934 21.9076 27.5937L29.5626 19.9531C30.3874 24.2362 29.8282 28.7252 27.9168 32.8455C27.4647 33.8202 27.093 34.8388 26.8118 35.8732C26.6422 36.4977 27.0109 37.1414 27.6353 37.3111C28.2599 37.4804 28.9035 37.1121 29.0731 36.4877C29.3197 35.5803 29.6458 34.6868 30.0425 33.8316C32.4864 28.5634 32.936 22.7432 31.3362 17.3483C31.1788 16.8179 30.8088 15.7219 30.6221 15.1773C31.077 15.0675 47.7129 15.2926 48.2025 15.1773L46.3822 24.0295C45.162 24.608 44.0794 25.1567 42.6095 25.5039C40.77 25.9385 38.8533 25.9314 36.7505 25.4825C36.2179 25.3688 35.6583 25.4835 35.2145 25.7973C34.771 26.1107 34.4762 26.5995 34.4059 27.1383C34.061 29.7755 33.3078 32.3595 32.1676 34.8191C31.2787 36.7381 30.828 38.7891 30.828 40.9151C30.828 48.9814 37.4541 55.5438 45.5986 55.5438C53.7432 55.5438 60.3693 48.9814 60.3693 40.9151C60.3693 38.7271 59.8944 36.625 58.958 34.6668C58.6713 34.0676 58.4042 33.4521 58.1641 32.8374C57.9287 32.2346 57.249 31.9365 56.6466 32.1724C56.0439 32.4078 55.746 33.0872 55.9815 33.6899C56.2426 34.3582 56.5328 35.0272 56.8442 35.678C57.6286 37.3178 58.0262 39.0798 58.0262 40.9151C58.0262 47.6892 52.4513 53.2005 45.5988 53.2005C38.7463 53.2005 33.1714 47.6893 33.1714 40.9151C33.1714 39.1315 33.549 37.412 34.2937 35.8044C35.4743 33.2581 36.2735 30.5866 36.672 27.8573C38.9397 28.2889 41.1164 28.2645 43.1478 27.7848C44.1597 27.5462 45.0111 27.2282 45.795 26.8863L42.5045 42.889C42.3742 43.5229 42.7823 44.1422 43.4161 44.2726C43.4958 44.2889 43.5751 44.2968 43.6534 44.2968C44.1978 44.2968 44.6858 43.9152 44.7997 43.3609L48.437 25.6709C49.3918 25.2656 50.4238 24.9239 51.7639 24.7438C52.5131 24.6435 53.2819 24.605 54.0535 24.6286C54.1064 25.824 54.2378 27.0266 54.4445 28.2084C54.5559 28.846 55.1626 29.2729 55.8005 29.1608C56.4379 29.0494 56.8643 28.4421 56.7528 27.8048C56.5442 26.6122 56.4196 25.3968 56.3821 24.1928C56.3505 23.1723 55.5557 22.3605 54.5334 22.3039C53.4978 22.2469 52.4611 22.2863 51.4524 22.4212C50.5207 22.5465 49.7176 22.7376 48.9933 22.9658L50.5947 15.1774H60.2256L59.9416 16.0087C57.9782 21.7542 58.38 28.0216 61.0734 33.6565C62.1613 35.9326 62.7129 38.3747 62.7129 40.9143C62.7129 50.2729 55.0358 57.8868 45.5993 57.8868C41.1399 57.8868 36.9181 56.1952 33.7113 53.1236C30.5152 50.062 28.6637 45.9559 28.4978 41.5616C28.4734 40.915 27.9338 40.4144 27.2827 40.4349C26.6361 40.4594 26.1317 41.0034 26.1562 41.65C26.3451 46.6554 28.4526 51.3311 32.0904 54.8158C34.8788 57.4867 38.342 59.2382 42.0838 59.9147V72.6824C42.0838 72.8905 41.9684 73.0778 41.7826 73.1713L34.9645 76.5983C34.2169 76.9732 33.8293 77.8035 34.0219 78.6174C34.2145 79.4313 34.9331 80 35.7694 80H55.4282C56.2652 80 56.9845 79.4312 57.1771 78.617C57.3697 77.8034 56.9821 76.9732 56.2354 76.5987L49.4162 73.1719C49.2297 73.0778 49.1138 72.8902 49.1138 72.6824V59.9137C58.1705 58.2665 65.0561 50.3743 65.0561 40.9145ZM20.6441 7.34735L27.976 14.6643L28.0515 14.8878L17.5619 13.7112C18.0163 11.4228 19.045 9.22699 20.6441 7.34735ZM20.6424 25.546C18.308 22.8023 17.1999 19.4048 17.2979 16.0395L28.8666 17.3372L20.6424 25.546ZM29.4595 12.8343L22.3029 5.69235C24.1872 4.09608 26.3883 3.0694 28.6821 2.61636L29.8325 12.8344L29.4595 12.8343ZM33.3775 12.8343H32.1907L31.0107 2.35344C34.382 2.25549 37.7857 3.36044 40.5352 5.68922L33.3775 12.8343ZM53.1218 77.6567H38.0768L42.8349 75.2651C43.8169 74.7714 44.427 73.7818 44.427 72.6826V60.1943C44.8158 60.2173 45.2065 60.2301 45.599 60.2301C45.9923 60.2301 46.3826 60.2171 46.7703 60.1942V72.6826C46.7703 73.7805 47.3799 74.7697 48.3625 75.2651L53.1218 77.6567Z" fill="#242424"/>
</svg>
