<svg width="80" height="80" viewBox="0 0 80 80" fill="none" xmlns="http://www.w3.org/2000/svg">
<path d="M54.8234 22.5354C49.4277 22.5354 44.3225 24.2013 40 27.3609C37.3063 25.392 34.3088 24.0037 31.1261 23.2368L37.8903 15.4849C37.8927 15.4823 37.8942 15.4792 37.8964 15.4765C37.9366 15.4298 37.9723 15.3798 38.0047 15.3273C38.0098 15.3188 38.015 15.3106 38.02 15.3021C38.05 15.2504 38.0762 15.1965 38.0983 15.1401C38.1017 15.1313 38.1047 15.1226 38.108 15.1137C38.1286 15.057 38.1458 14.9985 38.1575 14.9382C38.1586 14.9328 38.1591 14.9273 38.16 14.922C38.1702 14.8656 38.1759 14.8079 38.1778 14.7492C38.1781 14.7413 38.1789 14.7337 38.1789 14.7259C38.1789 14.7217 38.1795 14.7174 38.1795 14.7132C38.1795 14.6571 38.1742 14.6023 38.1667 14.5485C38.1652 14.5379 38.1637 14.5276 38.1619 14.517C38.1519 14.4574 38.1378 14.3993 38.1191 14.3434C38.1166 14.336 38.1136 14.3288 38.1111 14.3215C38.0898 14.2617 38.0648 14.2035 38.0347 14.1487C38.0334 14.1463 38.0319 14.1442 38.0306 14.1418C37.9981 14.0835 37.9608 14.0284 37.9191 13.9768C37.9178 13.9753 37.917 13.9735 37.9158 13.972L37.9114 13.9667L32.6797 7.54447C32.4567 7.27072 32.1222 7.11182 31.7692 7.11182H27.7852H22.5672H18.5834C18.2303 7.11182 17.8959 7.27072 17.673 7.54447L12.4414 13.9657L12.437 13.971C12.4358 13.9726 12.435 13.9743 12.4337 13.9759C12.392 14.0274 12.3548 14.0826 12.3222 14.1409C12.3209 14.1432 12.3194 14.1454 12.3181 14.1478C12.288 14.2028 12.263 14.2609 12.2417 14.3206C12.2391 14.3279 12.2361 14.3351 12.2337 14.3424C12.2152 14.3985 12.2011 14.4567 12.1909 14.516C12.1892 14.5265 12.1877 14.537 12.1861 14.5476C12.1784 14.6017 12.1733 14.6562 12.1733 14.7123C12.1733 14.7167 12.1739 14.7207 12.1739 14.7249C12.1741 14.7328 12.1748 14.7404 12.175 14.7482C12.1767 14.8071 12.1827 14.8648 12.1928 14.921C12.1937 14.9265 12.1942 14.932 12.1953 14.9373C12.207 14.9978 12.2242 15.0562 12.2448 15.1128C12.2481 15.1217 12.2511 15.1304 12.2545 15.1392C12.2766 15.1956 12.3028 15.2495 12.3328 15.3012C12.3377 15.3096 12.343 15.3179 12.3481 15.3263C12.3805 15.379 12.4166 15.4288 12.4564 15.4756C12.4587 15.4782 12.4602 15.4813 12.4625 15.484L19.2342 23.2449C8.21047 25.9234 0 35.876 0 47.712C0 61.5945 11.2942 72.8885 25.1764 72.8885C30.5722 72.8885 35.6773 71.2226 40 68.0631C44.3225 71.2224 49.4275 72.8885 54.8236 72.8885C68.7059 72.8885 80 61.5943 80 47.712C80 33.8296 68.7058 22.5354 54.8234 22.5354ZM31.2114 9.45963L34.5341 13.5384H30.7128L29.3978 9.45963H31.2114ZM30.6944 15.887H34.4222L28.4402 22.7428C28.4039 22.7382 28.3681 22.7331 28.3322 22.7285L30.6944 15.887ZM23.4228 9.45947H26.9302L28.2452 13.5382H22.1078L23.4228 9.45947ZM28.2097 15.8871L25.9102 22.5471C25.6663 22.5403 25.4219 22.5356 25.1767 22.5356C25.0261 22.5356 24.8716 22.5379 24.7145 22.5413C24.6241 22.5429 24.5334 22.5443 24.443 22.547L22.1434 15.8871H28.2097ZM19.1417 9.45947H20.955L19.6402 13.5382H15.8191L19.1417 9.45947ZM15.9309 15.8871H19.6586L22.0223 22.7326C21.9869 22.7371 21.9514 22.7417 21.9161 22.7462L15.9309 15.8871ZM25.1764 70.5396C12.5892 70.5396 2.34875 60.2992 2.34875 47.712C2.34875 36.3251 10.7294 26.8593 21.6462 25.1574C21.9187 25.1151 22.1923 25.0782 22.4669 25.0457C22.5011 25.0417 22.5356 25.0378 22.57 25.0338C22.9387 24.9918 23.3088 24.9613 23.6789 24.9371C23.6847 24.9368 23.6903 24.9379 23.6961 24.9374C23.9692 24.9199 24.2195 24.9071 24.4555 24.8982C24.6959 24.8906 24.9364 24.8842 25.1763 24.8842C25.6567 24.8842 26.1337 24.9146 26.6527 24.9481C26.678 24.9496 26.7033 24.9504 26.7283 24.9504C26.7472 24.9504 26.7656 24.947 26.7844 24.946C27.4117 24.9932 28.0506 25.067 28.7127 25.1699C28.773 25.1793 28.8334 25.1838 28.8933 25.1838C28.8958 25.1838 28.8984 25.1835 28.9009 25.1834C32.6759 25.7968 36.2095 27.3468 39.2739 29.7562C39.5895 30.0043 39.8989 30.2613 40.2017 30.5263C40.4966 30.7845 40.7847 31.0507 41.0662 31.324C41.2183 31.4717 41.3688 31.621 41.5167 31.7728C41.9389 32.2056 42.3441 32.6551 42.7306 33.1198C42.7306 33.1198 42.7306 33.1198 42.7308 33.1199C46.1312 37.206 48.0041 42.3882 48.0041 47.7118C48.0041 52.6551 46.3892 57.4765 43.4362 61.4115C43.43 61.4062 43.4234 61.4012 43.417 61.396C43.2545 61.2603 43.0942 61.122 42.9364 60.9806C42.9061 60.9534 42.8766 60.9248 42.8464 60.8973C42.72 60.7824 42.5948 60.6665 42.4717 60.5481C42.4178 60.4962 42.3655 60.4431 42.3122 60.3904C42.2144 60.294 42.1169 60.197 42.0214 60.0982C41.9636 60.0384 41.9067 59.9776 41.8498 59.9171C41.7608 59.8226 41.6723 59.7271 41.5853 59.6306C41.5588 59.6012 41.5327 59.571 41.5063 59.5415C43.4016 56.9281 44.6458 53.8917 45.1203 50.7023C45.2156 50.0607 44.7731 49.4632 44.1317 49.3679C43.4894 49.2721 42.8927 49.7153 42.7973 50.3565C42.4122 52.9449 41.4506 55.4187 39.9977 57.5945C38.0367 54.6704 37.0073 51.2842 37.0073 47.7117C37.0073 44.1392 38.0369 40.7529 39.9977 37.829C41.6044 40.2324 42.6019 42.9829 42.8983 45.8707C42.9605 46.4753 43.4705 46.9253 44.0652 46.9253C44.1053 46.9253 44.1458 46.9232 44.1866 46.919C44.8319 46.8528 45.3011 46.2759 45.2348 45.6307C44.8394 41.7776 43.3458 38.1388 40.9161 35.1079C39.9383 33.8882 38.8225 32.7857 37.5928 31.8235C37.4172 31.686 37.2391 31.5513 37.0589 31.4199C33.5906 28.8863 29.4817 27.547 25.1764 27.547C20.3242 27.547 15.6352 29.2954 11.9733 32.4699C11.4833 32.8948 11.4305 33.6365 11.8552 34.1265C12.28 34.6165 13.0217 34.6693 13.5117 34.2446C16.7466 31.4401 20.8891 29.8957 25.1763 29.8957C28.5705 29.8957 31.8248 30.8401 34.6631 32.6329C31.4203 36.9679 29.6466 42.2724 29.6466 47.7115C29.6466 53.1504 31.4203 58.4551 34.6631 62.7901C31.8248 64.5829 28.5705 65.5273 25.1763 65.5273C15.3525 65.5273 7.36047 57.5351 7.36047 47.7115C7.36047 44.0581 8.45797 40.5474 10.5342 37.559C10.9044 37.0265 10.7725 36.2946 10.2398 35.9245C9.70719 35.5542 8.97547 35.6862 8.60547 36.2188C6.25437 39.6026 5.01172 43.5767 5.01172 47.7115C5.01172 58.8303 14.0575 67.876 25.1763 67.876C29.1191 67.876 32.8967 66.7531 36.1688 64.6179C36.1975 64.6496 36.2275 64.6804 36.2564 64.7118C36.3338 64.7962 36.412 64.8798 36.4906 64.9632C36.5658 65.0432 36.6411 65.1229 36.7175 65.202C36.7973 65.2846 36.8783 65.3663 36.9592 65.4479C37.0364 65.5257 37.1136 65.6034 37.1917 65.6801C37.2738 65.7606 37.3567 65.8399 37.4397 65.9193C37.5189 65.9949 37.598 66.0707 37.6781 66.1454C37.762 66.2235 37.847 66.3006 37.932 66.3774C37.9886 66.4287 38.0439 66.481 38.1006 66.5317C34.2945 69.159 29.8561 70.5396 25.1764 70.5396ZM54.8234 70.5396C49.6544 70.5396 44.7794 68.8549 40.7258 65.6678C39.4633 64.6748 38.3 63.5432 37.2687 62.304C33.8683 58.2176 31.9955 53.0356 31.9955 47.712C31.9955 42.7688 33.6102 37.9474 36.5633 34.0123C36.5694 34.0173 36.5756 34.0221 36.5817 34.0271C36.7445 34.1629 36.905 34.3015 37.063 34.4431C37.0944 34.4712 37.1248 34.5007 37.1561 34.5292C37.2814 34.6431 37.4056 34.7581 37.5277 34.8756C37.5822 34.9281 37.6353 34.982 37.6892 35.0353C37.7861 35.1309 37.8828 35.2271 37.9775 35.3249C38.0363 35.3856 38.0938 35.4473 38.1514 35.5087C38.2394 35.6023 38.3269 35.6965 38.413 35.792C38.44 35.822 38.4667 35.8526 38.4934 35.8829C36.0142 39.306 34.6586 43.4692 34.6586 47.7121C34.6586 52.2804 36.23 56.7565 39.0836 60.3156C40.2009 61.7093 41.4988 62.9503 42.9406 64.0037C46.4089 66.5373 50.518 67.8767 54.8233 67.8767C60.0967 67.8767 65.0844 65.8542 68.8673 62.182C69.3327 61.7303 69.3438 60.9868 68.8919 60.5214C68.4402 60.0559 67.6967 60.0451 67.2312 60.4968C63.8891 63.7412 59.4825 65.5279 54.8231 65.5279C51.4289 65.5279 48.1745 64.5834 45.3361 62.7906C48.5789 58.4557 50.3527 53.151 50.3527 47.712C50.3527 42.2729 48.5789 36.9682 45.3361 32.6334C48.1745 30.8406 51.4289 29.8962 54.8231 29.8962C64.6469 29.8962 72.6389 37.8884 72.6389 47.712C72.6389 51.0188 71.7267 54.2468 70.0008 57.0467C69.6603 57.5989 69.8322 58.3223 70.3842 58.6626C70.9364 59.0031 71.6598 58.8312 72.0002 58.2792C73.9547 55.1085 74.9878 51.4545 74.9878 47.712C74.9878 36.5932 65.942 27.5474 54.8233 27.5474C50.8806 27.5474 47.1028 28.6704 43.8308 30.8056C43.8028 30.7748 43.7737 30.7448 43.7456 30.7142C43.6661 30.6274 43.5858 30.5415 43.505 30.4557C43.4319 30.3781 43.3587 30.3006 43.2847 30.2238C43.2025 30.1388 43.1194 30.0548 43.0359 29.9709C42.9611 29.8956 42.8864 29.8203 42.8106 29.7459C42.7261 29.6629 42.6406 29.581 42.5548 29.4992C42.4781 29.4259 42.4016 29.3526 42.3241 29.2804C42.2372 29.1995 42.1491 29.1196 42.0608 29.0399C42.0064 28.9907 41.9534 28.9404 41.8988 28.8918C45.7052 26.2653 50.1434 24.8846 54.8233 24.8846C67.4105 24.8846 77.6509 35.1251 77.6509 47.7123C77.6513 60.2992 67.4108 70.5396 54.8234 70.5396Z" fill="#242424"/>
</svg>
