<svg width="80" height="80" viewBox="0 0 80 80" fill="none" xmlns="http://www.w3.org/2000/svg">
<g clip-path="url(#clip0_1_178)">
<path d="M49.6884 33.1001C47.0612 33.1001 44.5095 33.6096 42.1045 34.6142C41.3083 34.9468 40.9325 35.862 41.265 36.6582C41.5976 37.4546 42.5128 37.8299 43.309 37.4978C45.3306 36.6532 47.4769 36.2251 49.6884 36.2251C58.8211 36.2251 66.2509 43.6551 66.2509 52.7876C66.2509 61.9201 58.8211 69.3501 49.6884 69.3501C40.5558 69.3501 33.1259 61.9201 33.1259 52.7876C33.1259 50.5795 33.5528 48.436 34.3948 46.4173C34.727 45.6207 34.3506 44.7059 33.5542 44.3737C32.7583 44.042 31.8428 44.4179 31.5106 45.2143C30.5089 47.6163 30.0009 50.1643 30.0009 52.7876C30.0009 63.6434 38.8326 72.4751 49.6884 72.4751C60.5442 72.4751 69.3759 63.6434 69.3759 52.7876C69.3759 41.9318 60.5442 33.1001 49.6884 33.1001Z" fill="#242424"/>
<path d="M49.6884 65.6001C56.7533 65.6001 62.5009 59.8524 62.5009 52.7876C62.5009 45.7228 56.7533 39.9751 49.6884 39.9751C42.6236 39.9751 36.8759 45.7228 36.8759 52.7876C36.8759 59.8524 42.6237 65.6001 49.6884 65.6001ZM49.6884 43.1001C55.0301 43.1001 59.3759 47.446 59.3759 52.7876C59.3759 58.1292 55.0301 62.4751 49.6884 62.4751C44.3467 62.4751 40.0009 58.1293 40.0009 52.7876C40.0009 47.4459 44.3467 43.1001 49.6884 43.1001Z" fill="#242424"/>
<path d="M72.0756 25.6001H67.3225L61.867 16.3678C61.5859 15.892 61.0744 15.6001 60.5219 15.6001H38.8552C38.3025 15.6001 37.7911 15.892 37.51 16.3678L32.0545 25.6001H23.125V23.7251C23.125 20.6234 20.6017 18.1001 17.5 18.1001C14.3983 18.1001 11.875 20.6234 11.875 23.7251V25.6001H7.92438C3.55484 25.6001 0 29.1549 0 33.5246V72.0506C0 76.4203 3.55484 79.9751 7.92438 79.9751H72.0755C76.445 79.9751 79.9998 76.4203 79.9998 72.0506V33.5246C80 29.1549 76.445 25.6001 72.0756 25.6001ZM39.7467 18.7251H59.6302L63.6927 25.6001H35.6842L39.7467 18.7251ZM15 23.7251C15 22.3467 16.1216 21.2251 17.5 21.2251C18.8784 21.2251 20 22.3467 20 23.7251V25.6001H15V23.7251ZM76.875 72.0506C76.875 74.6971 74.722 76.8501 72.0756 76.8501H7.92438C5.27797 76.8501 3.125 74.697 3.125 72.0506V33.5246C3.125 30.8781 5.27797 28.7251 7.92438 28.7251H72.0755C74.7219 28.7251 76.8748 30.8781 76.8748 33.5246V72.0506H76.875Z" fill="#242424"/>
<path d="M49.6884 49.7407C51.3686 49.7407 52.7353 51.1076 52.7353 52.7876C52.7353 53.6506 53.4348 54.3501 54.2978 54.3501C55.1608 54.3501 55.8603 53.6506 55.8603 52.7876C55.8603 49.3845 53.0915 46.6157 49.6884 46.6157C48.8254 46.6157 48.1259 47.3154 48.1259 48.1782C48.1259 49.041 48.8254 49.7407 49.6884 49.7407Z" fill="#242424"/>
<path d="M49.6884 11.4894C50.5514 11.4894 51.2509 10.7897 51.2509 9.92693V1.5874C51.2509 0.72459 50.5514 0.0249023 49.6884 0.0249023C48.8254 0.0249023 48.1259 0.724434 48.1259 1.5874V9.92693C48.1259 10.7899 48.8254 11.4894 49.6884 11.4894Z" fill="#242424"/>
<path d="M57.1236 11.4893C57.5235 11.4893 57.9235 11.3367 58.2285 11.0317L63.9614 5.29869C64.5716 4.68853 64.5716 3.69916 63.9613 3.08885C63.3511 2.47885 62.3617 2.47885 61.7516 3.08885L56.0188 8.82197C55.4086 9.43213 55.4086 10.4215 56.0188 11.0318C56.3239 11.3368 56.7238 11.4893 57.1236 11.4893Z" fill="#242424"/>
<path d="M41.1485 11.0321C41.4536 11.3371 41.8535 11.4897 42.2533 11.4897C42.6531 11.4897 43.0531 11.3371 43.3581 11.0321C43.9683 10.4219 43.9685 9.43256 43.3583 8.82225L37.6253 3.08928C37.0152 2.47943 36.0258 2.47928 35.4156 3.08928C34.8055 3.69943 34.8053 4.68881 35.4155 5.29912L41.1485 11.0321Z" fill="#242424"/>
<path d="M21.5625 38.4126H13.4375C12.5745 38.4126 11.875 39.1123 11.875 39.9751C11.875 40.8381 12.5745 41.5376 13.4375 41.5376H21.5625C22.4255 41.5376 23.125 40.8381 23.125 39.9751C23.125 39.1121 22.4255 38.4126 21.5625 38.4126Z" fill="#242424"/>
<path d="M36.8688 41.5376C37.2797 41.5376 37.6828 41.3704 37.9735 41.0798C38.2641 40.7892 38.4313 40.3874 38.4313 39.9751C38.4313 39.5642 38.2641 39.161 37.9735 38.8704C37.6828 38.5799 37.2797 38.4126 36.8688 38.4126C36.4578 38.4126 36.0547 38.5798 35.7641 38.8704C35.4719 39.161 35.3063 39.5643 35.3063 39.9751C35.3063 40.386 35.4719 40.7892 35.7641 41.0798C36.0547 41.3704 36.4563 41.5376 36.8688 41.5376Z" fill="#242424"/>
</g>
<defs>
<clipPath id="clip0_1_178">
<rect width="80" height="80" fill="white"/>
</clipPath>
</defs>
</svg>
