<svg width="80" height="80" viewBox="0 0 80 80" fill="none" xmlns="http://www.w3.org/2000/svg">
<path d="M12.7409 59.9043C8.50613 54.1336 6.23132 47.1581 6.24999 40.0004C6.24985 38.2625 6.38253 36.5272 6.64687 34.8096L9.11765 35.1911C8.87281 36.7825 8.7499 38.3903 8.74999 40.0004C8.73244 46.6273 10.8384 53.0856 14.7591 58.4283L12.7409 59.9043Z" fill="#242424"/>
<path d="M40 73.75C36.9292 73.7519 33.8726 73.3357 30.9142 72.5127L31.5861 70.1045C37.9199 71.8632 44.6457 71.5916 50.8172 69.3281L51.6828 71.6734C47.9423 73.0524 43.9865 73.7556 40 73.75Z" fill="#242424"/>
<path d="M69.9475 55.5784L67.7305 54.4221C70.9872 48.1377 72.0241 40.9369 70.6727 33.9889L73.1258 33.5107C74.5858 41.0146 73.4657 48.7916 69.9475 55.5784Z" fill="#242424"/>
<path d="M58.0279 14.4714C53.1506 11.0299 47.3902 9.05608 41.4272 8.78295C35.4641 8.50981 29.5474 9.94883 24.3759 12.93L23.124 10.7658C28.7097 7.5451 35.1004 5.99039 41.5413 6.28538C47.9822 6.58036 54.2041 8.71271 59.472 12.4305L58.0279 14.4714Z" fill="#242424"/>
<path d="M58.7739 32.9325C57.661 29.9124 55.8358 27.2055 53.4534 25.0414C51.0709 22.8773 48.2015 21.3199 45.0887 20.5015C41.9759 19.6831 38.7116 19.6278 35.5728 20.3403C32.4341 21.0528 29.5136 22.5121 27.0592 24.5942L25.4406 22.6892C28.2017 20.3467 31.4872 18.705 35.0182 17.9033C38.5493 17.1016 42.2216 17.1637 45.7235 18.0843C49.2255 19.0049 52.4536 20.7567 55.1339 23.1912C57.8142 25.6257 59.8676 28.6709 61.1198 32.0684L58.7739 32.9325Z" fill="#242424"/>
<path d="M40 62.3438C35.2422 62.356 30.6049 60.8483 26.7639 58.0406L28.2361 56.0199C32.0843 58.8177 36.8038 60.1522 41.5473 59.7838C46.2907 59.4155 50.7476 57.3685 54.1178 54.0103L55.8824 55.7813C53.7988 57.8688 51.3228 59.5233 48.5969 60.6496C45.8711 61.7759 42.9494 62.3517 40 62.3438Z" fill="#242424"/>
<path d="M76.8964 10.1997C75.9555 6.07772 73.9511 3.54553 71.2526 3.06975C68.6164 2.60412 65.8895 4.30053 63.5731 7.84412C61.645 10.794 60.1356 14.771 59.4336 18.7557C58.7781 22.473 59.1455 25.7827 60.4961 28.3271C61.0365 29.3615 61.7753 30.2793 62.6703 31.0283L53.2253 71.3594C53.0896 71.9387 53.0736 72.5396 53.178 73.1253C53.2825 73.7111 53.5054 74.2693 53.833 74.766C54.1606 75.2626 54.5861 75.6872 55.0834 76.0138C55.5807 76.3405 56.1394 76.5622 56.7253 76.6655L60.067 77.2549C60.6529 77.3582 61.2538 77.3409 61.8328 77.2041C62.4119 77.0673 62.9569 76.8138 63.4346 76.4591C63.9123 76.1045 64.3127 75.6561 64.6112 75.1414C64.9097 74.6268 65.1001 74.0566 65.1708 73.4658L70.1131 32.1407C71.0721 31.7428 71.9549 31.1819 72.7225 30.4827C74.8615 28.5535 76.3386 25.5691 76.994 21.8518C77.7031 17.8271 77.6681 13.5799 76.8964 10.1997ZM62.6884 73.1685C62.6582 73.4217 62.5766 73.6661 62.4486 73.8867C62.3207 74.1073 62.1491 74.2995 61.9444 74.4515C61.7396 74.6035 61.506 74.7122 61.2578 74.7708C61.0096 74.8295 60.7521 74.8369 60.5009 74.7926L57.1594 74.2032C56.9083 74.1589 56.6689 74.0639 56.4558 73.9239C56.2426 73.784 56.0603 73.602 55.9199 73.3892C55.7795 73.1764 55.684 72.9372 55.6392 72.6862C55.5944 72.4352 55.6013 72.1777 55.6594 71.9294L64.9345 32.3219C65.6776 32.5855 66.4603 32.7198 67.2487 32.7191C67.3414 32.7191 67.4341 32.7173 67.5269 32.7137L62.6884 73.1685ZM74.5322 21.4185C73.8275 25.4149 72.2487 27.5443 71.0478 28.6269C69.6728 29.8662 68.0078 30.4222 66.4772 30.1524C64.9465 29.8826 63.5709 28.7902 62.7039 27.1555C61.9461 25.7277 61.1908 23.1868 61.8955 19.1902C62.532 15.5808 63.9414 11.8502 65.6656 9.21256C66.4226 8.05412 68.3298 5.49537 70.3945 5.49537C70.5366 5.49528 70.6784 5.50762 70.8183 5.53225C74.5419 6.18756 75.7639 14.431 74.5312 21.418L74.5322 21.4185Z" fill="#242424"/>
<path d="M29.1548 71.3512L19.9204 31.9166C21.2816 31.4736 22.437 30.5539 23.1741 29.3268C23.9111 28.0997 24.1802 26.6476 23.9319 25.2379L22.7923 18.7752L19.7531 1.54102L17.2911 1.97523L20.1129 17.9784L17.6508 18.4124L14.829 2.4093L12.367 2.84398L15.1887 18.8471L12.7269 19.2815L9.90498 3.27758L7.44295 3.71164L10.2648 19.7148L7.80279 20.1488L4.98092 4.1457L2.51904 4.57992L5.55779 21.8143L6.69732 28.2771C6.93682 29.6254 7.63424 30.8497 8.67183 31.7434C9.70941 32.637 11.0236 33.1453 12.3925 33.1823L17.2095 73.4579C17.3366 74.5217 17.8497 75.5018 18.6515 76.2123C19.4533 76.9229 20.488 77.3144 21.5594 77.3127C21.8121 77.3128 22.0643 77.2908 22.3133 77.247L25.6548 76.6577C26.2408 76.5544 26.7995 76.3327 27.2968 76.006C27.7941 75.6794 28.2196 75.2548 28.5472 74.7581C28.8748 74.2614 29.0977 73.7032 29.2021 73.1174C29.3066 72.5317 29.2905 71.9308 29.1548 71.3515V71.3512ZM9.15936 27.8427L8.23748 22.6109L20.5469 20.4402L21.4687 25.6721C21.626 26.5698 21.4207 27.4932 20.898 28.2397C20.3753 28.9863 19.5778 29.495 18.6804 29.6543L13.1408 30.631C12.2432 30.7881 11.32 30.5827 10.5736 30.06C9.82721 29.5373 9.31862 28.7399 9.15936 27.8427ZM26.4603 73.3813C26.3207 73.5949 26.1386 73.7774 25.9253 73.9174C25.712 74.0575 25.4722 74.1521 25.2208 74.1954L21.879 74.7846C21.6279 74.8289 21.3704 74.8215 21.1222 74.7629C20.874 74.7043 20.6404 74.5956 20.4357 74.4436C20.2309 74.2916 20.0593 74.0995 19.9314 73.8789C19.8034 73.6583 19.7218 73.4139 19.6915 73.1607L14.8722 32.8638L17.4672 32.4062L26.7208 71.9221C26.7798 72.1702 26.7872 72.4278 26.7423 72.6788C26.6975 72.9299 26.6015 73.169 26.4603 73.3813Z" fill="#242424"/>
<path d="M40 52.5002C39.6739 52.5005 39.3606 52.3731 39.1273 52.1452L28.5142 41.797C27.8055 41.1103 27.2393 40.2904 26.8481 39.3844C26.4568 38.4784 26.2482 37.5041 26.2342 36.5174C26.2202 35.5306 26.4011 34.5508 26.7665 33.6341C27.1319 32.7174 27.6746 31.8818 28.3635 31.1752C29.0524 30.4686 29.8741 29.9049 30.7812 29.5165C31.6884 29.128 32.6634 28.9224 33.6502 28.9114C34.637 28.9005 35.6162 29.0844 36.5318 29.4526C37.4474 29.8208 38.2813 30.3661 38.9858 31.0572L40 32.047L41.0142 31.0581C41.717 30.3591 42.5513 29.8063 43.469 29.4317C44.3866 29.0571 45.3695 28.8681 46.3606 28.8757C47.3518 28.8833 48.3316 29.0872 49.2435 29.4758C50.1554 29.8643 50.9812 30.4298 51.6731 31.1394C52.3651 31.8491 52.9096 32.6889 53.275 33.6103C53.6405 34.5316 53.8197 35.5163 53.8023 36.5073C53.7848 37.4984 53.5712 38.4761 53.1735 39.3841C52.7759 40.292 52.2023 41.1121 51.4858 41.797L49.6227 43.6136L47.8773 41.8238L49.7405 40.007C50.2149 39.5497 50.5942 39.003 50.8566 38.3986C51.119 37.7941 51.2593 37.1437 51.2695 36.4848C51.2797 35.8259 51.1595 35.1715 50.9159 34.5592C50.6723 33.9469 50.3101 33.3888 49.8501 32.917C49.39 32.4452 48.8413 32.069 48.2353 31.8099C47.6294 31.5509 46.9783 31.4143 46.3193 31.4078C45.6604 31.4013 45.0067 31.5251 44.3957 31.7721C43.7848 32.0192 43.2288 32.3845 42.7595 32.8472L40.8727 34.6877C40.6392 34.9153 40.3261 35.0427 40 35.0427C39.6739 35.0427 39.3608 34.9153 39.1273 34.6877L37.2405 32.848C36.7712 32.3853 36.2152 32.0199 35.6043 31.7729C34.9933 31.5259 34.3396 31.4021 33.6807 31.4085C33.0217 31.415 32.3706 31.5517 31.7647 31.8107C31.1587 32.0697 30.61 32.446 30.1499 32.9178C29.6899 33.3896 29.3277 33.9477 29.0841 34.56C28.8405 35.1723 28.7203 35.8267 28.7305 36.4856C28.7407 37.1445 28.881 37.7949 29.1434 38.3993C29.4058 39.0038 29.7851 39.5504 30.2595 40.0078L40 49.5044L45.5375 44.1052L47.2828 45.8952L40.8727 52.1452C40.6394 52.3731 40.3261 52.5005 40 52.5002Z" fill="#242424"/>
</svg>
