<svg width="80" height="80" viewBox="0 0 80 80" fill="none" xmlns="http://www.w3.org/2000/svg">
<g clip-path="url(#clip0_1_150)">
<path d="M78.6616 77.334H73.329V62.6692C73.3246 58.9897 70.3428 56.0079 66.6632 56.0034V44.005C66.6588 40.3255 63.677 37.3437 59.9973 37.3392V28.0071C59.993 24.3276 57.0112 21.3458 53.3315 21.3413H44.5233C47.2347 19.5717 49.5328 17.2387 51.261 14.5008C54.1033 9.53083 53.9913 4.42354 50.981 1.79045C49.2336 0.32986 46.9288 -0.281465 44.6872 0.121294C42.8718 0.428754 41.2172 1.35019 39.9998 2.73157C38.7823 1.35051 37.1277 0.429066 35.3125 0.121294C33.0709 -0.280371 30.7665 0.330798 29.0186 1.79045C26.0084 4.42338 25.8964 9.53067 28.7201 14.4661C30.452 17.2171 32.7571 19.5622 35.4778 21.3411H26.6683C22.9888 21.3455 20.007 24.3273 20.0025 28.007V37.339C16.323 37.3434 13.3412 40.3252 13.3367 44.0048V56.0033C9.65715 56.0076 6.67536 58.9894 6.67083 62.6691V77.3339H1.33841C0.602106 77.3339 0.00531006 77.9306 0.00531006 78.667C0.00531006 79.4033 0.602106 80.0001 1.33841 80.0001H78.6614C79.3977 80.0001 79.9945 79.4033 79.9945 78.667C79.9945 77.9306 79.3979 77.334 78.6616 77.334ZM31.0532 13.1771C28.8588 9.34288 28.7468 5.5701 30.7733 3.79831C31.6745 3.05591 32.8106 2.65846 33.9781 2.67705C34.2775 2.67736 34.5762 2.70236 34.8713 2.75173C36.5764 3.05231 38.0445 4.12967 38.8428 5.66603C39.0995 6.05488 39.5341 6.28876 40 6.28876C40.4659 6.28876 40.9005 6.05488 41.1572 5.66603C41.9552 4.12936 43.4235 3.052 45.1287 2.75173C46.5819 2.48629 48.0788 2.86859 49.2267 3.79831C51.2532 5.5701 51.1412 9.34288 48.9321 13.2091C47.6576 15.5955 44.4233 18.4564 40 21.1213C35.5806 18.4592 32.3451 15.5955 31.0532 13.1771ZM26.6685 24.0077H53.3317C55.0939 24.0139 56.6436 25.175 57.1444 26.8646C55.4783 27.3644 54.0206 28.3941 52.993 29.7975C51.7558 31.2067 50.9759 32.0066 49.332 32.0066C47.6882 32.0066 46.903 31.2067 45.6672 29.7949C44.3816 27.9074 42.2717 26.7478 39.9894 26.6739C37.71 26.7496 35.6037 27.9092 34.3208 29.7949C33.085 31.2067 32.3063 32.0066 30.6586 32.0066C29.0108 32.0066 28.2348 31.2067 27.0017 29.7963C25.9758 28.3933 24.52 27.3636 22.8556 26.8634C23.3571 25.1742 24.9065 24.0137 26.6685 24.0077ZM22.669 29.5816C23.5905 30.0425 24.3877 30.7177 24.994 31.5507C26.2746 33.437 28.38 34.5973 30.6586 34.673C32.9381 34.5978 35.0447 33.4381 36.3272 31.552C37.563 30.1401 38.3416 29.3402 39.9894 29.3402C41.6371 29.3402 42.4184 30.1401 43.6556 31.552C44.8867 33.495 47.0267 34.6725 49.3269 34.6725C51.6271 34.6725 53.7671 33.495 54.9982 31.552C55.6057 30.7164 56.4061 30.04 57.3311 29.5802V37.3392H22.669V29.5816ZM16.0032 44.005C16.0032 41.7962 17.7937 40.0055 20.0027 40.0055H59.9973C62.2061 40.0055 63.9968 41.7962 63.9968 44.005V44.0836C61.7799 44.3932 59.7225 45.4107 58.1309 46.9846C56.7059 48.4867 54.7262 49.3376 52.6557 49.3376C50.585 49.3376 48.6054 48.4869 47.1805 46.9846C45.2738 45.0767 42.6873 44.0048 39.99 44.0048C37.2929 44.0048 34.7062 45.0767 32.7996 46.9846C31.3758 48.4867 29.3972 49.3376 27.3276 49.3376C25.2581 49.3376 23.2794 48.4867 21.8557 46.9846C20.2678 45.4131 18.2152 44.3957 16.0032 44.0836V44.005ZM16.0032 46.7873C17.5727 47.1105 19.0123 47.8885 20.1426 49.0243C22.0493 50.9322 24.6358 52.0041 27.3331 52.0041C30.0304 52.0041 32.6169 50.9322 34.5235 49.0243C35.9474 47.522 37.9264 46.6712 39.9961 46.6712C42.066 46.6712 44.0448 47.522 45.4686 49.0243C47.3764 50.9322 49.9637 52.0039 52.6618 52.0039C55.3598 52.0039 57.9472 50.932 59.8549 49.0243C60.9863 47.8882 62.4267 47.1099 63.997 46.7859V56.0034H16.0033L16.0032 46.7873ZM70.6627 77.334H9.33735V65.3956C11.4982 65.6137 13.5529 66.4397 15.2633 67.7779C17.7672 69.6989 20.8466 70.7174 24.0021 70.6682C27.1564 70.7172 30.2346 69.6986 32.7369 67.7779C34.7973 66.1441 37.363 65.2803 39.9919 65.3356C42.6225 65.2801 45.1901 66.1438 47.2523 67.7779C52.4427 71.6309 59.5437 71.6309 64.7341 67.7779C66.4452 66.4394 68.5009 65.6134 70.6627 65.3956V77.334ZM70.6627 62.7278C67.9739 62.9455 65.4038 63.928 63.2557 65.5595C58.9622 68.8158 53.0258 68.8158 48.7323 65.5595C46.2281 63.6382 43.148 62.6197 39.992 62.6692C36.8375 62.62 33.7586 63.6386 31.2558 65.5595C29.196 67.1932 26.6307 68.0568 24.0021 68.0018C21.372 68.0573 18.8048 67.1936 16.7431 65.5595C14.5952 63.9283 12.0256 62.9458 9.33735 62.7278V62.6692C9.33735 60.4605 11.1279 58.6698 13.3368 58.6698H66.663C68.8718 58.6698 70.6625 60.4605 70.6625 62.6692V62.7278H70.6627Z" fill="#242424"/>
</g>
<defs>
<clipPath id="clip0_1_150">
<rect width="80" height="80" fill="white"/>
</clipPath>
</defs>
</svg>
