<svg width="80" height="80" viewBox="0 0 80 80" fill="none" xmlns="http://www.w3.org/2000/svg">
<g clip-path="url(#clip0_1_141)">
<path d="M50.8692 80C40.7203 80 36.0205 78.4212 31.8473 76.1902C19.3803 76.1588 10.7625 74.1583 8.76593 70.825C8.17905 69.8453 8.15108 68.753 8.68686 67.7487C8.68765 67.7473 8.68843 67.7459 8.68921 67.7447C10.5156 64.3322 12.9233 60.7075 15.6519 57.2623C16.0536 56.7548 16.7908 56.6695 17.2981 57.0711C17.8055 57.473 17.8911 58.21 17.4892 58.7173C15.3433 61.427 13.6822 63.8905 12.443 65.9145C14.5472 65.7937 17.1412 66.3344 19.4464 67.2006C24.1683 68.975 27.2251 70.7869 29.9222 72.3855C30.8661 72.9447 31.7616 73.4756 32.6694 73.97C32.6931 73.9819 32.7164 73.9945 32.7392 74.008C36.7762 76.1964 41.0756 77.6562 50.8692 77.6562C53.1506 77.6562 55.363 77.573 57.445 77.4084C58.0905 77.3597 58.6545 77.8392 58.7055 78.4844C58.7564 79.1297 58.2747 79.6939 57.6295 79.7448C55.4864 79.9141 53.2119 80 50.8692 80ZM10.7553 68.8509C10.6041 69.1338 10.6098 69.3423 10.7767 69.6206C11.8458 71.4055 17.5183 73.3095 27.6261 73.7516C25.2691 72.3705 22.528 70.8625 18.622 69.3945C14.1639 67.7192 11.1322 68.1495 10.7559 68.8502C10.7556 68.8505 10.7555 68.8508 10.7553 68.8509ZM62.8745 79.0989C62.3148 79.0989 61.8198 78.6967 61.7212 78.1264C61.6109 77.4887 62.0386 76.8823 62.6762 76.772C65.3801 76.3047 66.7716 75.8037 67.3505 75.5123C62.6759 58.3081 54.2922 40.6078 47.2855 33.1869C46.5484 32.6403 45.8253 32.1138 45.2797 31.7191C44.5306 32.6764 43.2556 34.1266 41.7176 35.152C42.7205 35.6422 43.3648 35.9784 43.9062 36.4673C45.0447 37.4956 45.427 38.9781 44.9045 40.3367C44.3797 41.7008 43.0831 42.5822 41.6016 42.5822C41.5637 42.5822 39.7198 42.5488 37.5914 41.938C31.9962 44.4736 26.2605 48.8503 20.9775 54.6197C20.5405 55.097 19.7992 55.1297 19.3219 54.6925C18.8445 54.2555 18.8119 53.5142 19.2491 53.0367C24.1509 47.6838 29.4533 43.4716 34.7164 40.7322C33.4197 39.9639 32.275 38.8772 31.6514 37.3403C31.0386 35.8298 31.3069 32.9867 32.59 30.933C31.5434 28.5573 31.5436 26.0287 31.5436 24.7653V17.7027C27.1583 16.5209 26.4731 13.7305 26.4731 12.1042C26.4731 10.3631 27.4967 8.67844 29.0808 7.81219C30.3794 7.10188 31.8401 7.02141 33.2169 7.55797C34.4141 6.10078 36.32 5.07781 39.142 5.07781C39.3731 5.07781 39.5991 5.08344 39.82 5.09469C40.4476 1.91953 43.4598 0 47.9936 0C51.5397 0 54.2936 1.42594 55.1805 3.72125C55.4097 4.31453 55.5897 5.28062 55.8175 6.50422C56.0798 7.9125 56.4544 9.92266 56.9889 11.4366C57.0156 11.495 57.0375 11.5555 57.0542 11.6169C57.3473 12.405 57.6869 13.0383 58.0801 13.348C58.1156 13.3759 58.1511 13.4036 58.1867 13.4311C58.2012 13.4417 58.2155 13.4527 58.2292 13.4639C59.9717 14.8017 61.8141 15.6255 63.5973 16.423C64.6684 16.9019 65.6803 17.3544 66.6219 17.8966C67.2364 18.2505 68.8689 19.1902 71.5812 31.152C71.9961 32.9814 71.2625 34.7425 69.6664 35.7478C68.2172 36.6611 66.4369 36.6942 65.0995 35.8689C65.0617 39.8219 64.9339 43.8209 64.7183 47.7897C64.6831 48.4358 64.1295 48.9266 63.4845 48.8963C62.8383 48.8611 62.3428 48.3088 62.378 47.6625C62.6272 43.077 62.758 38.4509 62.7672 33.9042C61.7128 32.9308 60.6589 31.8895 59.9376 31.1641C59.5137 31.6744 59.0459 32.2339 58.5308 32.8503C58.138 33.3203 57.7158 33.8253 57.262 34.3694C56.0948 35.7689 54.8098 36.5306 53.4428 36.6334C53.2959 36.6441 53.1495 36.6473 53.0042 36.643C55.4436 40.1897 57.9439 44.6458 60.3942 49.8341C64.1419 57.7695 67.4711 66.877 69.7684 75.4789C69.8747 75.8766 69.8042 76.2969 69.5701 76.6627C68.9511 77.6297 66.7659 78.4436 63.0753 79.0817C63.008 79.0933 62.9408 79.0989 62.8745 79.0989ZM38.7139 39.8256C39.9597 40.1389 41.0812 40.2388 41.6014 40.2388C42.213 40.2388 42.5786 39.8547 42.7169 39.4953C42.8175 39.2337 42.9017 38.7188 42.3351 38.207C41.9797 37.8859 41.3969 37.6025 40.3389 37.0878C40.1392 36.9908 39.9239 36.8859 39.6912 36.7719C39.1419 37.5542 38.8147 38.5764 38.7139 39.8256ZM34.0598 33.2458C33.602 34.5284 33.5941 35.8945 33.8231 36.4594C34.2936 37.6191 35.2986 38.4377 36.4453 39.0089C36.6189 37.7344 37 36.6297 37.5856 35.7027C37.1833 35.4911 36.7491 35.2586 36.28 35.0017C35.3797 34.5086 34.6505 33.9086 34.0598 33.2458ZM45.02 28.9173C45.262 28.9173 45.5001 28.9922 45.7001 29.1347C45.8886 29.2691 50.3331 32.4412 51.7723 33.7178C52.2487 34.1402 52.7508 34.3336 53.2673 34.2962C53.9681 34.2436 54.7272 33.7497 55.4623 32.8681C55.9166 32.3234 56.3394 31.8177 56.7326 31.3472C61.0234 26.2137 61.5716 25.513 61.5716 24.3483C61.5716 23.9366 61.2383 23.7177 61.0395 23.6238C60.6394 23.4347 60.1634 23.4503 59.9076 23.6605C59.2742 24.1816 55.2631 27.8395 53.7712 29.205C53.3575 29.5839 52.7337 29.6163 52.283 29.2825C52.283 29.2825 50.7553 28.1519 49.1901 26.9925C49.1766 26.9828 49.1631 26.973 49.1498 26.9627C48.2441 26.2917 47.3298 25.6144 46.6962 25.1441C45.2937 24.1034 43.5306 23.9061 40.7678 23.9061C40.1206 23.9061 39.5959 23.3816 39.5959 22.7342C39.5959 22.0869 40.1206 21.5623 40.7678 21.5623C43.3956 21.5623 45.1612 20.6162 45.1612 19.2081V13.6584C44.722 14.2747 44.1867 14.8455 43.5587 15.3634C41.1261 17.3705 37.3834 18.4064 33.8873 18.1133V24.7656C33.8873 26.6877 34.0489 28.7247 34.9158 30.3992C34.9569 30.4608 34.9916 30.5256 35.02 30.5925C35.5458 31.5305 36.3075 32.3444 37.4061 32.9461C38.0425 33.2947 38.6136 33.5975 39.127 33.8633C41.2184 33.1678 43.3601 30.4775 44.0409 29.4447C44.2161 29.1791 44.4922 28.9955 44.805 28.9372C44.8762 28.9239 44.9483 28.9173 45.02 28.9173ZM64.7398 32.5319C65.2536 32.9975 65.7516 33.4292 66.1886 33.775C66.8659 34.3111 67.7961 34.1562 68.4172 33.7648C68.7717 33.5416 69.5647 32.893 69.2991 31.6859C69.1066 31.1627 67.7647 29.8192 66.392 28.5273C66.1292 29.1836 65.7456 29.7858 65.2562 30.2928C64.7733 30.7933 64.212 31.1842 63.588 31.4595C63.9594 31.8133 64.3403 32.1695 64.7136 32.5083C64.7225 32.5161 64.7312 32.5239 64.7398 32.5319ZM69.2956 31.6702C69.2958 31.6709 69.2959 31.6717 69.2961 31.6727C69.2959 31.672 69.2959 31.6714 69.2958 31.6708C69.2958 31.6706 69.2958 31.6703 69.2956 31.6702ZM61.4317 29.3411C61.5036 29.4136 61.5798 29.4905 61.66 29.5709C62.4241 29.4836 63.078 29.175 63.5698 28.6653C64.0633 28.1539 64.3698 27.4666 64.4423 26.7308C64.3851 26.6786 64.3292 26.628 64.275 26.5784C64.06 26.383 63.8472 26.1897 63.6387 25.9995C63.3184 26.8458 62.6686 27.7964 61.4317 29.3411ZM66.4425 25.3827C67.0661 25.952 67.6289 26.4709 68.133 26.9459C66.5248 20.9944 65.5833 20.0369 65.4376 19.9191C64.6031 19.44 63.6497 19.0138 62.6408 18.5625C61.1942 17.9156 59.5986 17.2022 58.0191 16.1802C55.8722 21.1255 53.1444 24.3836 51.6742 25.9158C52.1389 26.2597 52.5639 26.5745 52.9019 26.8247C54.4025 25.4541 57.7787 22.377 58.4191 21.8505C59.3839 21.0567 60.8055 20.9211 62.0406 21.5044C62.4839 21.7138 62.8597 21.9956 63.1558 22.3314C63.8459 23.0213 64.8209 23.9073 65.8514 24.8441C66.0369 25.0125 66.217 25.1767 66.3928 25.337C66.4097 25.3519 66.4262 25.367 66.4425 25.3827ZM46.1306 22.2209C46.8169 22.4666 47.4737 22.8027 48.093 23.262C48.413 23.4997 48.8047 23.7902 49.2308 24.1058V18.7417C48.6598 18.9847 48.0811 19.1728 47.5042 19.2853C47.4836 20.3369 47.0403 21.3878 46.1306 22.2209ZM51.5744 17.4431V22.4455C52.9655 20.6875 54.7005 18.0863 56.1062 14.6864C55.9287 14.4822 55.7637 14.2545 55.6095 14.0055C54.6461 14.9961 53.2095 16.3427 51.5744 17.4431ZM42.1403 5.44969C45.8059 6.43891 47.5048 9.24141 47.5048 11.8814V16.8797C50.098 16.1378 53.1289 13.2759 54.5959 11.6616C54.1644 10.29 53.8367 8.66969 53.5133 6.93344C53.3239 5.91703 53.1451 4.95703 52.994 4.56609C52.4806 3.23688 50.4709 2.34375 47.9936 2.34375C45.9842 2.34375 42.7439 2.77234 42.1403 5.44969ZM33.8872 15.7609C36.8494 16.0711 40.0356 15.2312 42.0672 13.5556C43.435 12.4272 44.1751 11.0275 44.2708 9.39031C43.5561 8.51016 42.3983 7.81922 40.7539 7.54734C40.7083 7.54281 40.6637 7.53578 40.6198 7.52625C40.1639 7.45813 39.6717 7.42188 39.142 7.42188C34.2662 7.42188 33.8873 11.3686 33.8873 12.5781L33.8872 15.7609ZM31.4101 9.5575C30.8897 9.5575 30.4725 9.72266 30.2053 9.86875C29.3619 10.33 28.8167 11.2075 28.8167 12.1045C28.8167 12.6902 28.8169 14.3188 31.5434 15.2559V12.5781C31.5434 11.6105 31.6992 10.5969 32.0462 9.63938C31.8211 9.58141 31.6083 9.5575 31.4101 9.5575Z" fill="#242424"/>
</g>
<defs>
<clipPath id="clip0_1_141">
<rect width="80" height="80" fill="white"/>
</clipPath>
</defs>
</svg>
