<svg width="80" height="80" viewBox="0 0 80 80" fill="none" xmlns="http://www.w3.org/2000/svg">
<path d="M76.856 21.9448C75.7479 20.71 74.0661 20.2694 72.1948 20.7104C72.0746 20.5895 71.9258 20.501 71.7623 20.453C71.5988 20.4049 71.4258 20.399 71.2594 20.4356C70.1354 20.7264 70.3154 22.1211 71.1927 22.6102C71.37 22.7141 71.5668 22.7805 71.7708 22.8053C71.9749 22.8301 72.1819 22.8127 72.3789 22.7542C75.8616 21.7651 76.5999 24.9878 75.5469 26.8653C75.5359 26.8842 75.526 26.9037 75.5172 26.9236C75.4416 27.08 73.6077 30.7081 66.8589 29.9384C66.3045 29.1639 65.8251 28.3383 65.4272 27.4729C64.8428 26.2702 63.0712 27.0641 63.5813 28.3014C63.8217 28.8337 64.0921 29.3519 64.3914 29.8534L62.8999 31.087C61.989 31.8056 62.1391 33.3192 63.1672 33.8518L55.3397 41.5392L55.3376 41.5062C55.4239 41.4064 55.4895 41.2904 55.5307 41.1651L60.1514 26.9006C60.5346 27.0357 61.0823 27.3006 61.4932 27.2768C61.9903 27.2738 62.4666 27.0769 62.8207 26.728C63.1748 26.3791 63.3788 25.9058 63.3892 25.4088L63.4307 22.5422C72.5175 21.3811 74.3831 15.6396 74.5508 15.0542C74.6988 14.6003 75.9552 10.3958 72.6912 7.82973C71.0256 6.52013 68.7888 6.36237 66.5079 7.37853C64.1036 2.08093 58.2746 2.89181 55.9904 6.74893C54.4416 3.83501 50.3639 3.08717 48.1044 6.35293C46.5069 5.40477 44.8207 5.30877 43.4115 6.10381C40.5635 7.71117 41.0171 11.1078 41.0819 11.5104C41.1493 12.0262 41.9207 16.5147 48.4503 18.4796L48.1844 20.3996C48.0026 21.5356 49.1256 22.5491 50.2349 22.2579L51.0719 26.282C49.8233 25.0068 48.3328 23.9935 46.6878 23.3014C45.0427 22.6094 43.2761 22.2525 41.4914 22.2516H24.3816C20.9693 22.2589 17.6869 23.5607 15.1972 25.8942C12.7076 28.2277 11.1961 31.419 10.9682 34.8237L10.1248 47.8476C8.65823 48.8345 7.45577 50.1657 6.6226 51.7247C5.78943 53.2837 5.35093 55.0232 5.34546 56.7908V60.7004C4.74897 60.8561 4.2208 61.2049 3.84346 61.6923C3.46612 62.1798 3.26084 62.7785 3.2597 63.395V66.1641C3.26051 66.9033 3.55456 67.612 4.07731 68.1347C4.60007 68.6573 5.30882 68.9512 6.04802 68.9518H10.293V73.9777C10.2942 74.9521 10.6818 75.8861 11.3707 76.5751C12.0596 77.2641 12.9937 77.6518 13.968 77.6531H17.448C18.4224 77.6518 19.3565 77.2642 20.0454 76.5752C20.7344 75.8862 21.122 74.9521 21.1232 73.9777V72.2908C21.1232 72.0225 21.0166 71.7652 20.8269 71.5755C20.6372 71.3858 20.3799 71.2792 20.1115 71.2792C19.8432 71.2792 19.5859 71.3858 19.3962 71.5755C19.2065 71.7652 19.0999 72.0225 19.0999 72.2908V73.9777C19.0994 74.4157 18.9252 74.8356 18.6155 75.1453C18.3058 75.4549 17.886 75.6292 17.448 75.6297H13.968C13.5301 75.6292 13.1102 75.4549 12.8005 75.1453C12.4909 74.8356 12.3167 74.4157 12.3162 73.9777V68.9518H22.416C22.6298 69.3761 22.9571 69.7328 23.3615 69.9822C23.7658 70.2317 24.2315 70.3641 24.7066 70.3648H41.1663C41.6414 70.3641 42.107 70.2317 42.5114 69.9822C42.9158 69.7328 43.243 69.3761 43.4568 68.9518H44.7498V73.9777C44.751 74.9521 45.1386 75.8862 45.8276 76.5752C46.5166 77.2642 47.4508 77.6519 48.4252 77.6531H51.904C52.8784 77.6519 53.8125 77.2642 54.5015 76.5752C55.1905 75.8862 55.5782 74.9521 55.5794 73.9777V72.2908C55.5811 72.1569 55.5562 72.024 55.5061 71.8997C55.456 71.7755 55.3817 71.6625 55.2876 71.5672C55.1935 71.4719 55.0814 71.3962 54.9578 71.3445C54.8342 71.2929 54.7016 71.2663 54.5676 71.2663C54.4337 71.2663 54.3011 71.2929 54.1775 71.3445C54.0539 71.3962 53.9418 71.4719 53.8477 71.5672C53.7535 71.6625 53.6793 71.7755 53.6292 71.8997C53.5791 72.024 53.5542 72.1569 53.5559 72.2908V73.9777C53.5554 74.4157 53.3812 74.8356 53.0716 75.1453C52.7619 75.455 52.342 75.6292 51.904 75.6297H48.4252C47.9872 75.6292 47.5673 75.455 47.2576 75.1453C46.948 74.8356 46.7738 74.4157 46.7733 73.9777V68.9518H59.825C60.5641 68.951 61.2727 68.6571 61.7954 68.1345C62.318 67.6119 62.612 66.9033 62.6128 66.1641V63.395C62.6117 62.7786 62.4064 62.1799 62.0291 61.6924C61.6517 61.205 61.1236 60.8562 60.5271 60.7006V56.7908C60.5214 55.0234 60.083 53.2842 59.2501 51.7252C58.4172 50.1663 57.2152 48.835 55.7492 47.8478L55.5128 44.2056L64.9706 34.9173L65.2648 35.0912C66.2181 35.6934 67.5848 35.0752 67.7642 33.9635L68.1258 32.0606C74.3245 32.4252 77.1922 28.4163 77.3355 27.812C77.5253 27.452 79.0412 24.3784 76.856 21.9448ZM58.5946 24.1507L60.2066 22.2627C60.3665 22.4135 60.5547 22.5312 60.7603 22.6089C60.966 22.6866 61.185 22.7228 61.4047 22.7153L61.3687 25.1968L58.5946 24.1507ZM57.2245 8.70045C57.2359 8.67773 57.2464 8.65485 57.2565 8.63133C57.2691 8.60061 58.5172 5.64701 61.2431 5.64701C63.2111 5.59469 64.3876 7.43741 64.7876 8.49693C64.875 8.70702 65.0045 8.897 65.1681 9.05518C65.3317 9.21335 65.526 9.33638 65.7389 9.41668C65.9518 9.49698 66.1789 9.53287 66.4062 9.52212C66.6336 9.51138 66.8563 9.45424 67.0607 9.35421C74.684 5.71037 76.714 19.9361 61.4866 20.6865C57.7322 17.2136 56.4594 12.8763 56.7515 10.816C56.7725 10.6499 56.7872 10.4899 56.7971 10.336C56.8566 9.77241 57.0006 9.22103 57.2245 8.70045ZM43.0893 11.2604C43.0666 11.1075 42.6699 8.86973 44.4055 7.86637C45.3679 7.26509 46.7151 7.78333 47.3954 8.30349C47.5641 8.42067 47.7551 8.5021 47.9564 8.54277C48.1578 8.58343 48.3654 8.58248 48.5664 8.53996C48.7674 8.49745 48.9576 8.41427 49.1252 8.29554C49.2929 8.17681 49.4345 8.02504 49.5413 7.84957C51.4524 4.75293 54.1928 6.64957 54.6723 8.80157C54.7842 9.24751 54.822 9.7088 54.7844 10.167C54.7684 10.3024 54.7547 10.4427 54.7435 10.588C54.5378 12.1348 53.6085 14.4905 50.3275 16.8744C44.2631 15.7028 43.0143 11.6235 43.0893 11.2601V11.2604ZM50.4298 18.9329C50.6496 18.9354 50.8672 18.8893 51.0671 18.7979L51.733 19.8736L50.2563 20.1854L50.4298 18.9329ZM52.636 21.7508C53.7488 21.5414 54.332 20.1768 53.7136 19.2291L52.6948 17.5828C53.6725 16.7615 54.5301 15.8071 55.2424 14.7473C55.7986 16.5491 56.8703 18.6043 58.7999 20.7953L56.9368 22.976C56.0852 23.932 56.5031 25.5539 57.7106 25.9798L58.2562 26.1857L54.9967 36.2485L54.9044 34.8244C54.9028 34.8085 54.9016 34.7924 54.8999 34.7752C54.8175 33.5704 54.572 32.3824 54.1701 31.2436L52.2141 21.84L52.636 21.7508ZM24.3816 24.2752H41.4909C43.8303 24.2803 46.1119 25.0017 48.029 26.3424C49.946 27.6831 51.4065 29.5788 52.214 31.7744L52.8895 35.0224L53.6504 46.7544C52.4122 46.2758 51.096 46.0305 49.7685 46.0307H47.2292C46.7111 45.2069 45.9401 44.5732 45.0317 44.2243C40.1346 42.2545 35.2397 41.4392 30.1165 41.9152C26.9296 42.2299 23.8055 43.0077 20.8431 44.224C19.9338 44.5725 19.1621 45.2064 18.6435 46.0307H16.104C14.7772 46.0305 13.4618 46.2755 12.224 46.7534L12.988 34.9547C13.1818 32.0627 14.4656 29.352 16.5804 27.3698C18.6951 25.3876 21.4832 24.2816 24.3816 24.2752ZM42.1331 59.3849C41.8263 59.2593 41.4979 59.1946 41.1663 59.1945H36.6735V44.0555C39.2826 44.4152 41.836 45.1021 44.2735 46.1001C45.1188 46.4419 45.6698 47.0665 45.7117 47.7299C45.8829 50.4677 45.6202 55.504 42.1331 59.3849ZM23.7394 59.3849C20.2503 55.5024 19.9896 50.467 20.1632 47.7285C20.204 47.0657 20.7552 46.4417 21.6015 46.0998C24.0389 45.1019 26.5923 44.415 29.2015 44.0553V59.1944H24.7069C24.3751 59.1945 24.0464 59.2592 23.7394 59.3851V59.3849ZM31.224 43.8593C32.3649 43.7883 33.5091 43.7883 34.6499 43.8593V59.1942H31.224V43.8593ZM7.36899 56.7908C7.36854 55.6436 7.59417 54.5075 8.03298 53.4474C8.47179 52.3874 9.11518 51.4242 9.92638 50.6129C10.7376 49.8016 11.7007 49.1581 12.7607 48.7192C13.8207 48.2803 14.9568 48.0545 16.104 48.0548H18.12C17.9875 51.1651 18.4299 56.4117 22.1165 60.6083H19.4143C20.2691 57.2261 17.5675 53.7888 14.0711 53.8358C10.576 53.7878 7.87203 57.2256 8.72803 60.608H7.36899V56.7908ZM10.5999 59.3297C10.6008 58.4092 10.9668 57.5266 11.6178 56.8756C12.2687 56.2247 13.1513 55.8586 14.0719 55.8577C18.6768 56.0484 18.6755 62.6097 14.0719 62.8003C13.1515 62.7994 12.2691 62.4336 11.6182 61.7829C10.9673 61.1323 10.6011 60.2501 10.5999 59.3297ZM6.04802 66.928C5.84539 66.9277 5.65113 66.8471 5.50785 66.7038C5.36457 66.5605 5.28396 66.3663 5.2837 66.1637V63.395C5.28396 63.1924 5.36458 62.9982 5.50787 62.8549C5.65116 62.7117 5.84542 62.6312 6.04802 62.631H9.68194C11.8159 65.5392 16.3275 65.5379 18.4603 62.631H22.1386V66.928H6.04802ZM41.1669 68.3408H24.7069C24.5626 68.3406 24.4243 68.2833 24.3221 68.1813C24.22 68.0793 24.1625 67.9411 24.1621 67.7968V61.7627C24.1625 61.6184 24.2201 61.4802 24.3222 61.3782C24.4243 61.2763 24.5626 61.2189 24.7069 61.2187H41.1663C41.3106 61.2189 41.4489 61.2763 41.551 61.3782C41.6531 61.4802 41.7106 61.6184 41.7111 61.7627V67.7964C41.7109 67.9409 41.6534 68.0794 41.5513 68.1815C41.4492 68.2836 41.3107 68.3411 41.1663 68.3412L41.1669 68.3408ZM60.59 66.1637C60.5897 66.3663 60.5091 66.5605 60.3658 66.7038C60.2225 66.8471 60.0283 66.9277 59.8256 66.928H43.7344V62.631H47.441C49.5751 65.4912 54.0301 65.4901 56.1629 62.631H59.825C60.0276 62.6312 60.2219 62.7117 60.3651 62.8549C60.5084 62.9982 60.5891 63.1924 60.5893 63.395L60.59 66.1637ZM51.8026 62.7645C50.8823 62.7634 50 62.3974 49.3492 61.7466C48.6984 61.0959 48.3324 60.2136 48.3314 59.2933C48.5221 54.688 55.0834 54.6894 55.2738 59.2933C55.2729 60.2138 54.9068 61.0963 54.2559 61.7472C53.605 62.398 52.7225 62.7641 51.8019 62.7649L51.8026 62.7645ZM58.5042 56.7904V60.608H57.136C58.0173 57.2187 55.312 53.751 51.8013 53.7995C48.2912 53.7515 45.5845 57.219 46.4666 60.608H43.7555C47.4402 56.4131 47.8844 51.1657 47.7535 48.0545H49.7685C54.48 47.9792 58.6021 52.0728 58.5036 56.7908L58.5042 56.7904ZM64.5717 32.3305L65.5453 31.5253C65.7057 31.6747 65.8968 31.7874 66.1053 31.8555L65.8693 33.0972L64.5717 32.3305Z" fill="#242424"/>
<path d="M16.3967 43.8019C16.6643 43.8215 16.9287 43.734 17.1318 43.5587C17.3349 43.3834 17.4601 43.1346 17.4799 42.867L18.0019 35.7665C18.6994 32.4166 22.6821 29.8974 27.2979 29.8974H38.576C43.1933 29.8974 47.1752 32.4163 47.8711 35.7663L48.3941 42.8671C48.4138 43.1347 48.539 43.3835 48.7422 43.5588C48.9453 43.7341 49.2098 43.8215 49.4774 43.8018C49.745 43.7821 49.9938 43.6569 50.1691 43.4537C50.3443 43.2506 50.4317 42.9861 50.412 42.7185L49.884 35.5542C49.8811 35.5138 49.8757 35.4736 49.868 35.4339C49.0093 31.0534 44.2602 27.874 38.5759 27.874H27.2986C21.6151 27.874 16.8653 31.0532 16.0048 35.4335C15.9971 35.4735 15.9918 35.5138 15.9888 35.5543L15.4623 42.7187C15.4426 42.9862 15.5299 43.2506 15.7052 43.4537C15.8804 43.6569 16.1291 43.7821 16.3967 43.8019Z" fill="#242424"/>
</svg>
