<svg width="197" height="245" viewBox="0 0 197 245" fill="none" xmlns="http://www.w3.org/2000/svg">
<g clip-path="url(#clip0_327_157)">
<path d="M40.8383 187.753C40.9034 187.507 40.9951 187.265 41.0293 187.015C41.6596 182.441 42.6722 177.949 43.9039 173.505C45.2189 168.759 47.1422 164.265 49.6249 160.008C50.9247 157.78 52.2182 155.548 53.7143 153.446C54.9093 151.766 56.1444 150.114 57.402 148.48C59.2483 146.079 61.0755 143.664 63.0884 141.395C66.7048 137.322 70.4306 133.352 74.349 129.565C76.2261 127.751 78.1013 125.938 79.9521 124.097C81.14 122.916 82.2785 121.688 83.4401 120.481C83.9746 119.925 84.5863 119.423 85.0276 118.8C85.6767 117.882 86.2828 116.917 86.767 115.906C87.5322 114.309 88.2146 112.663 88.6891 110.954C89.0504 109.655 89.2501 108.311 89.536 106.99C89.9684 104.988 89.9629 102.958 89.9524 100.926C89.9494 100.425 89.8091 99.9852 89.5253 99.5698C89.0519 98.8782 88.6065 98.1673 88.1518 97.4629C86.5326 94.9527 85.7968 92.1796 85.7075 89.2188C85.6166 86.229 86.082 83.3102 86.8294 80.4271C86.8527 80.3366 86.907 80.2532 86.9518 80.1699C86.966 80.1439 86.9998 80.1289 87.0722 80.0698C87.1745 80.1598 87.3176 80.2367 87.39 80.3561C88.2893 81.8477 89.1379 83.3697 90.0784 84.8343C92.1778 88.1066 92.8964 93.5121 92.2242 96.4862C91.9819 97.5575 91.6909 98.6131 91.2539 99.6203C91.0946 99.9865 91.0343 100.346 91.0528 100.743C91.0813 101.386 91.0618 102.031 91.0688 102.676C91.0699 102.794 91.1001 102.913 91.1486 103.248C91.3217 102.795 91.4183 102.539 91.5155 102.285C91.6194 102.015 91.7341 101.747 91.8298 101.474C92.9531 98.2761 94.2745 95.161 95.7655 92.1198C96.0761 91.4853 96.2034 90.8767 96.0958 90.1768C95.8428 88.5145 96.1464 86.8999 96.6506 85.3209C97.9336 81.3106 100.467 78.2787 104.01 76.0656C104.94 75.4854 105.915 74.9802 106.876 74.4525C107.064 74.349 107.283 74.2998 107.492 74.2249C107.749 74.5789 107.579 74.8961 107.507 75.1885C107.269 76.1589 107.005 77.1226 106.736 78.0839C106.233 79.8887 105.616 81.6529 104.701 83.297C103.281 85.8464 101.618 88.2101 99.3451 90.0854C98.875 90.4724 98.3613 90.8133 97.8397 91.1285C97.4925 91.3384 97.2394 91.5874 97.0745 91.9587C96.2199 93.8713 95.2943 95.7559 94.5051 97.6953C93.5813 99.9627 92.7446 102.267 91.9211 104.574C91.4127 105.999 91.0058 107.46 90.545 108.904C89.8786 110.992 89.2198 113.083 88.3434 115.096C88.2817 115.237 88.2321 115.382 88.1756 115.526C88.4102 115.643 88.5031 115.483 88.6075 115.374C90.5662 113.322 92.4483 111.202 94.2389 109.002C96.151 106.653 98.0439 104.29 99.7811 101.804C101.296 99.6352 102.699 97.3982 103.995 95.0927C105.198 92.9551 106.306 90.7702 107.313 88.535C108.783 85.2696 110.08 81.9359 111.164 78.5214C111.592 77.1706 111.999 75.8124 112.408 74.4549C112.501 74.149 112.555 73.8309 112.633 73.4974C112.526 73.4037 112.446 73.2963 112.34 73.2448C111.073 72.6345 110.01 71.7432 108.982 70.811C108.218 70.1185 107.47 69.4056 106.757 68.66C103.575 65.3274 101.55 61.3867 100.703 56.8648C100.265 54.5264 100.31 52.1812 100.965 49.8703C101.284 48.7437 101.782 47.7003 102.41 46.7175C102.548 46.5011 102.711 46.2976 102.879 46.1034C103.509 45.3754 104.022 45.3486 104.771 45.9915C104.864 46.0709 104.96 46.1484 105.087 46.2519C105.286 46.0019 105.463 45.7773 105.642 45.5553C106.681 44.2778 108.025 43.85 109.615 44.1643C110.056 44.2514 110.488 44.3955 110.915 44.5433C111.499 44.747 112.094 44.8988 112.713 44.8547C114.089 44.7589 115.23 45.2852 116.26 46.1341C116.46 46.299 116.665 46.4557 116.852 46.6322C117.266 47.0225 117.746 47.2636 118.313 47.3192C119.508 47.4367 120.36 48.0365 120.878 49.1159C120.905 49.171 120.962 49.2112 121.033 49.2891C121.225 49.2018 121.426 49.1094 121.63 49.0182C123.098 48.3623 124.52 48.5049 125.893 49.2871C126.312 49.5265 126.708 49.8098 127.095 50.0995C127.733 50.5762 128.44 50.8513 129.233 50.9221C129.778 50.9705 130.323 51.0296 130.868 51.0919C131.42 51.1547 131.93 51.3532 132.416 51.6175C133.016 51.9439 133.411 52.4335 133.569 53.0967C133.652 53.4418 133.766 53.7644 133.918 54.0896C134.047 54.3666 134.093 54.7192 134.061 55.0274C133.977 55.8259 133.899 56.6369 133.695 57.4106C132.871 60.5382 131.782 63.5668 130.088 66.3459C129.432 67.4256 128.654 68.4093 127.74 69.282C126.451 70.5125 125.038 71.572 123.458 72.4087C122.073 73.1423 120.608 73.6128 119.057 73.8045C117.326 74.0176 115.59 74.1216 113.819 73.9001C113.73 74.0855 113.618 74.2461 113.572 74.4227C112.881 77.1454 111.936 79.7846 110.998 82.4269C109.917 85.4699 108.642 88.4304 107.226 91.328C106.378 93.0651 105.421 94.7483 104.514 96.4573C104.47 96.538 104.444 96.6286 104.36 96.8341C104.558 96.7354 104.663 96.6936 104.759 96.6348C105.837 95.9775 106.574 95.0461 107.094 93.8958C107.573 92.8369 108.263 91.8968 108.959 90.9641C109.956 89.6292 111.182 88.5484 112.579 87.6581C113.846 86.8505 115.226 86.3307 116.716 86.1002C118.253 85.8615 119.799 85.8522 121.348 85.9306C121.529 85.9394 121.707 86.0125 121.964 86.0726C121.874 86.2404 121.826 86.347 121.762 86.4432C121.71 86.5228 121.642 86.595 121.572 86.6616C120.3 87.8686 119.325 89.3117 118.332 90.7412C117.371 92.1248 116.273 93.3849 114.885 94.3639C112.7 95.903 110.265 96.6231 107.6 96.5C107.037 96.4745 106.612 96.6124 106.181 96.9402C104.533 98.1929 103.03 99.6069 101.648 101.138C101.047 101.804 100.592 102.598 100.06 103.327C96.7519 107.86 93.2135 112.208 89.3101 116.243C86.3757 119.276 83.4106 122.281 80.4199 125.258C77.4291 128.236 74.3884 131.164 71.3663 134.112C71.2307 134.244 71.0643 134.345 70.9159 134.461C70.9289 134.49 70.9488 134.516 70.9473 134.542C70.9463 134.561 70.9156 134.576 70.8963 134.593C70.9096 134.549 70.9241 134.506 70.9373 134.462C71.0247 134.479 71.1347 134.537 71.1973 134.505C71.3971 134.402 71.5852 134.275 71.7662 134.143C76.9222 130.399 82.4154 127.225 88.1467 124.451C88.7269 124.171 89.2838 123.844 89.8458 123.53C90.2958 123.279 90.7276 122.991 91.1855 122.756C93.1765 121.735 94.9554 120.404 96.7251 119.05C101.846 115.132 106.805 111.011 111.988 107.173C112.169 107.038 112.343 106.895 112.528 106.766C114.305 105.538 115.713 103.958 116.883 102.16C117.761 100.809 118.613 99.4405 119.49 98.0896C119.868 97.5077 120.081 96.8891 120.133 96.1926C120.199 95.3256 120.287 94.4571 120.424 93.5998C120.706 91.8417 121.222 90.154 121.961 88.5269C123.606 84.8995 125.805 81.6767 128.776 79.0043C129.124 78.6903 129.435 78.3062 129.992 78.1457C130.011 78.31 130.055 78.4299 130.033 78.5349C129.448 81.3085 128.908 84.0927 128.251 86.849C127.756 88.9268 126.928 90.8913 125.763 92.6967C124.669 94.3906 123.336 95.8691 121.702 97.0585C121.326 97.3325 121.043 97.6487 120.809 98.0476C120.27 98.9647 119.694 99.8597 119.136 100.765C119.052 100.9 118.98 101.042 118.811 101.347C119.117 101.178 119.278 101.113 119.41 101.011C124.547 97.0239 129.188 92.5239 133.4 87.5746C134.842 85.8808 136.278 84.1845 137.544 82.3525C139.068 80.1479 140.462 77.8675 141.644 75.4602C141.788 75.168 141.911 74.8919 141.814 74.54C141.342 72.8253 141.654 71.1538 142.115 69.4915C142.678 67.4588 143.794 65.7349 145.131 64.1422C145.918 63.2051 146.754 62.309 147.575 61.4023C147.675 61.2924 147.82 61.2247 148.019 61.0857C148.066 61.3462 148.121 61.5245 148.126 61.7042C148.165 62.928 148.187 64.152 148.224 65.3764C148.279 67.2578 148.133 69.1174 147.543 70.9134C147.313 71.6136 147.02 72.3034 146.667 72.9505C146.193 73.8239 145.41 74.4046 144.557 74.8885C144.08 75.1582 143.598 75.4205 143.117 75.6834C142.796 75.8602 142.573 76.1144 142.406 76.4454C140.105 80.9904 137.143 85.0774 133.76 88.872C132.755 89.9996 131.753 91.1289 130.733 92.2762C130.908 92.4232 131.031 92.284 131.138 92.2213C133.516 90.8535 135.943 89.5829 138.428 88.4205C138.714 88.2872 138.982 88.091 139.216 87.8764C139.569 87.5491 139.902 87.1943 140.215 86.8272C142.045 84.6743 144.436 83.7309 147.195 83.5707C148.46 83.4979 149.712 83.6158 150.945 83.8784C152.174 84.1392 153.392 84.4525 154.612 84.76C154.884 84.8287 155.189 84.8679 155.407 85.1809C155.3 85.311 155.211 85.4858 155.069 85.5862C153.594 86.627 152.115 87.6622 150.628 88.6862C150.31 88.9058 149.963 89.081 149.623 89.2662C147.118 90.6288 144.49 90.8773 141.752 90.1213C141.162 89.9587 140.569 89.8031 139.977 89.6507C139.262 89.4659 138.595 89.5384 137.919 89.8798C134.375 91.6683 130.856 93.4988 127.621 95.8166C126.575 96.5662 125.582 97.3915 124.579 98.201C123.853 98.7885 123.154 99.4096 122.436 100.011C120.015 102.04 117.601 104.078 115.166 106.088C114.073 106.99 112.935 107.837 111.814 108.706C110.03 110.088 108.237 111.457 106.458 112.846C103.257 115.346 100.063 117.855 96.8669 120.362C96.6698 120.517 96.4823 120.685 96.2442 120.886C96.4912 121.031 96.6542 120.917 96.8075 120.865C98.9541 120.162 101.099 119.459 103.296 118.925C104.831 118.552 106.374 118.204 107.908 117.826C108.376 117.712 108.83 117.542 109.285 117.381C110.136 117.081 110.982 116.764 111.832 116.463C112.409 116.257 113.012 116.111 113.568 115.861C116.008 114.761 118.432 113.628 120.87 112.52C121.774 112.109 122.487 111.476 123.121 110.733C123.748 109.997 124.378 109.265 125.012 108.534C127.112 106.109 129.744 104.491 132.732 103.387C135.662 102.304 138.694 101.735 141.792 101.459C142.034 101.438 142.279 101.459 142.645 101.462C142.454 101.743 142.356 101.943 142.208 102.095C141.825 102.486 141.425 102.86 141.025 103.236C139.59 104.581 138.203 105.97 136.922 107.466C135.808 108.768 134.556 109.923 133.147 110.911C131.801 111.854 130.324 112.452 128.708 112.726C127.272 112.97 125.829 113.081 124.373 112.975C124.212 112.964 124.05 112.954 123.89 112.946C122.597 112.872 122.613 112.905 121.412 113.488C119.527 114.402 117.618 115.268 115.718 116.158C115.435 116.29 115.158 116.434 114.876 116.573C114.997 116.826 115.171 116.761 115.322 116.754C116.642 116.686 117.962 116.613 119.282 116.546C120.765 116.472 122.248 116.473 123.729 116.599C124.225 116.641 124.674 116.539 125.136 116.36C126.249 115.93 127.375 115.535 128.505 115.153C131.151 114.256 133.832 114.326 136.529 114.897C139.075 115.435 141.465 116.376 143.729 117.652C144.376 118.017 145.032 118.361 145.681 118.721C145.958 118.875 146.25 119.017 146.418 119.372C146.327 119.449 146.246 119.558 146.14 119.596C145.899 119.684 145.646 119.745 145.395 119.799C143.029 120.309 140.666 120.824 138.296 121.315C137.381 121.504 136.458 121.664 135.531 121.782C132.56 122.162 129.839 121.395 127.296 119.893C126.885 119.649 126.524 119.314 126.149 119.01C125.924 118.827 125.714 118.626 125.502 118.428C124.988 117.951 124.408 117.731 123.682 117.697C118.922 117.47 114.2 117.792 109.522 118.66C105.362 119.432 101.277 120.518 97.2765 121.901C95.936 122.364 94.62 122.901 93.2947 123.408C93.1811 123.452 93.0774 123.521 92.8776 123.626C93.0525 123.67 93.1358 123.715 93.212 123.706C96.6249 123.327 100.034 123.308 103.439 123.799C103.687 123.835 103.962 123.819 104.2 123.746C106.699 122.974 109.173 123.23 111.637 123.92C114.007 124.583 116.091 125.793 117.994 127.319C119.074 128.186 120.096 129.128 121.14 130.039C121.207 130.098 121.249 130.187 121.328 130.296C121.233 130.343 121.154 130.419 121.086 130.41C119.156 130.141 117.223 130.274 115.29 130.371C114.025 130.434 112.784 130.296 111.556 129.973C110.132 129.6 108.847 128.94 107.621 128.152C106.503 127.433 105.489 126.584 104.625 125.573C104.262 125.147 103.83 124.972 103.299 124.899C100.442 124.511 97.5779 124.441 94.7083 124.687C92.682 124.861 90.6625 125.111 88.6992 125.665C88.0519 125.847 87.402 126.068 86.8019 126.37C81.7839 128.903 76.9393 131.728 72.4167 135.072C70.4479 136.527 68.5544 138.086 66.6332 139.605C66.33 139.844 66.059 140.124 65.7751 140.385C63.992 142.023 62.3885 143.822 60.9207 145.746C59.2598 147.924 57.5785 150.086 55.9245 152.269C54.5808 154.043 53.3727 155.909 52.2151 157.81C51.0063 159.795 49.8516 161.807 48.7974 163.877C47.6248 166.179 46.6409 168.562 45.8481 171.022C45.8089 171.142 45.7817 171.267 45.7207 171.498C46.0789 171.223 46.2589 170.934 46.4403 170.658C48.9833 166.803 51.8461 163.194 54.9592 159.787C58.0767 156.375 61.4527 153.248 65.3397 150.709C67.9111 149.031 70.6355 147.63 73.3989 146.304C75.2901 145.397 77.2086 144.546 79.2018 143.886C79.843 143.673 80.3372 143.337 80.7541 142.81C81.8022 141.484 83.0743 140.405 84.4854 139.473C86.6928 138.014 89.1198 137.243 91.7482 137.068C94.4736 136.887 97.1581 137.138 99.8083 137.799C100.872 138.065 101.938 138.318 103.003 138.581C103.152 138.619 103.296 138.679 103.536 138.76C103.373 138.929 103.288 139.059 103.169 139.13C102.892 139.292 102.602 139.435 102.309 139.569C101.042 140.147 99.858 140.861 98.7246 141.669C97.8584 142.286 96.9807 142.888 96.0906 143.47C94.8712 144.268 93.5666 144.895 92.1964 145.397C89.5107 146.383 86.7787 146.51 84.0118 145.847C82.9472 145.592 81.8973 145.265 80.8603 144.91C80.3598 144.74 79.9296 144.797 79.4595 144.966C77.5737 145.641 75.7344 146.425 73.9317 147.292C70.9364 148.731 67.9796 150.244 65.234 152.134C62.8638 153.766 60.6857 155.623 58.6189 157.622C56.5533 159.62 54.663 161.773 52.8168 163.969C52.7213 164.082 52.6545 164.221 52.6498 164.413C52.9268 164.199 53.2077 163.99 53.4796 163.77C56.8077 161.071 60.4457 158.893 64.4021 157.24C65.9261 156.604 67.4954 156.117 69.1118 155.793C69.7567 155.664 70.342 155.425 70.8849 155.059C71.6341 154.554 72.3963 154.072 73.1454 153.567C74.1958 152.86 75.3184 152.299 76.5145 151.891C79.6145 150.836 82.7815 150.431 86.0471 150.887C87.7444 151.123 89.4072 151.502 91.0554 151.96C91.1758 151.993 91.2853 152.061 91.3966 152.12C91.4214 152.133 91.4346 152.171 91.4856 152.244C91.4211 152.322 91.3628 152.437 91.2691 152.498C91.1085 152.604 90.9311 152.686 90.7517 152.759C89.5517 153.25 88.4529 153.924 87.3625 154.616C86.436 155.202 85.5133 155.797 84.5537 156.325C80.7365 158.421 76.7249 158.732 72.5646 157.561C71.8815 157.369 71.2008 157.169 70.5231 156.96C70.0127 156.803 69.5178 156.835 68.9989 156.95C66.9697 157.396 65.0359 158.109 63.1678 158.998C59.7738 160.612 56.5983 162.575 53.7341 165.017C51.3428 167.056 49.2197 169.341 47.5312 172.002C46.8411 173.09 46.1448 174.18 45.5406 175.316C44.0596 178.099 43.1267 181.068 42.5864 184.175C41.3824 191.089 41.297 198.026 42.1061 204.983C42.2132 205.908 42.4564 206.817 42.6378 207.734C42.6815 207.956 42.7478 208.172 42.7751 208.395C42.8044 208.63 42.6489 208.826 42.4153 208.901C42.1835 208.976 41.929 208.919 41.8298 208.696C41.6476 208.287 41.4717 207.866 41.3668 207.433C40.9284 205.613 40.5863 203.774 40.3707 201.914C39.8365 197.329 39.5721 192.729 39.5865 188.114C39.632 174.597 41.0054 161.221 43.8433 148.002C44.4526 145.165 45.0682 142.331 45.9132 139.554C46.5408 137.489 47.2096 135.435 47.9026 133.39C48.5435 131.498 49.251 129.627 49.904 127.739C50.0274 127.382 50.0853 126.983 50.0784 126.604C50.0565 125.252 50.0005 123.899 49.9426 122.547C49.9148 121.903 49.8403 121.261 49.8074 120.617C49.744 119.361 49.7115 118.103 49.2181 116.916C48.1181 112.39 48.1613 107.89 49.6995 103.477C51.156 99.295 53.4501 95.6407 56.9117 92.7948C57.4847 92.3244 58.0879 91.892 58.686 91.454C58.8365 91.3433 59.0185 91.2777 59.269 91.148C59.2681 91.3416 59.2996 91.4648 59.2619 91.5625C59.1471 91.8625 59.0062 92.1546 58.8755 92.4485C58.3362 93.6552 57.7879 94.8576 57.2618 96.0692C56.4727 97.885 55.9998 99.7859 55.7714 101.751C55.5671 103.511 55.3692 105.274 55.1016 107.025C54.7122 109.581 54.0536 112.072 53.0661 114.468C52.5855 115.634 51.9898 116.743 51.2259 117.749C50.9158 118.159 50.7715 118.559 50.8191 119.084C50.9616 120.657 51.055 122.235 51.1711 123.811C51.1774 123.895 51.2108 123.978 51.231 124.06C51.5217 124.045 51.5136 123.802 51.5877 123.645C52.3805 121.952 53.165 120.253 53.9489 118.555C55.3553 115.507 57.0198 112.594 58.6049 109.64C60.4093 106.28 62.5456 103.135 64.6825 99.989C65.4422 98.8713 66.2943 97.8153 67.1222 96.7445C67.3457 96.4563 67.4998 96.1627 67.5828 95.8051C67.7999 94.8641 68.0568 93.9314 68.284 92.9921C68.6819 91.3509 69.3313 89.8184 70.1545 88.3446C71.7227 85.5332 74.0092 83.4515 76.7121 81.7865C78.4768 80.6993 80.3673 79.8715 82.3329 79.2192C82.6223 79.1224 82.921 78.9188 83.2931 79.1576C83.2665 79.3264 83.2739 79.5256 83.2025 79.69C83.0352 80.0727 82.8503 80.4532 82.6328 80.8101C81.8123 82.1646 81.1424 83.5965 80.4821 85.0314C79.3155 87.5652 77.8488 89.9028 76.0426 92.0313C74.644 93.6816 72.9576 94.9475 71.0268 95.9014C70.3032 96.2586 69.5789 96.6139 68.8383 96.9315C68.3467 97.1422 67.9549 97.4512 67.6476 97.8775C66.5364 99.4191 65.3952 100.941 64.3235 102.511C63.287 104.028 62.3073 105.583 61.3326 107.14C60.7519 108.069 60.2253 109.031 59.6828 109.984C56.9557 114.784 54.5407 119.739 52.3241 124.792C51.8742 125.82 51.3724 126.835 51.1187 127.946C51.0287 128.344 50.7499 128.695 50.6055 129.085C50.1358 130.355 49.6674 131.626 49.2371 132.909C48.5312 135.017 47.8406 137.132 47.1714 139.251C46.2485 142.174 45.586 145.163 44.9462 148.158C44.7987 148.851 44.655 149.545 44.5157 150.24C44.4676 150.483 44.4371 150.728 44.521 151.026C44.6302 150.854 44.7489 150.689 44.8466 150.513C45.7046 148.96 46.555 147.404 47.4137 145.853C48.493 143.904 49.7851 142.091 51.1015 140.299C51.845 139.286 52.6435 138.315 53.4093 137.318C53.5641 137.117 53.7414 136.902 53.8067 136.666C54.223 135.159 54.9684 133.798 55.7005 132.438C57.0646 129.904 58.711 127.558 60.5916 125.379C61.3299 124.523 62.1508 123.747 63.0686 123.084C65.3758 121.418 67.8227 119.988 70.4147 118.809C70.9357 118.574 71.4535 118.302 72.1172 118.245C72.1232 118.437 72.1576 118.587 72.1243 118.721C72.0868 118.873 71.9891 119.011 71.9149 119.155C70.9952 120.93 70.0907 122.712 69.1532 124.475C68.0308 126.586 66.7568 128.601 65.1775 130.406C63.8544 131.919 62.3254 133.205 60.628 134.28C58.9649 135.331 57.2922 136.371 55.4194 137.029C55.0672 137.151 54.8311 137.398 54.5927 137.668C53.4184 138.999 52.3795 140.436 51.3412 141.872C49.8094 143.99 48.4088 146.191 47.2184 148.524C46.5457 149.844 45.7891 151.125 45.1532 152.464C44.5314 153.773 44.0056 155.127 43.4619 156.473C43.3195 156.827 43.2394 157.214 43.1769 157.594C41.5881 167.25 40.8227 176.976 40.7137 186.757C40.7097 187.083 40.5512 187.458 40.8528 187.752C40.821 187.824 40.7887 187.898 40.7557 187.97C40.7942 187.971 40.8333 187.974 40.8719 187.975C40.8669 187.898 40.852 187.825 40.8383 187.753ZM123.472 65.9256C124.404 64.0302 124.624 63.4051 125.106 61.5022C125.382 60.4084 125.515 59.2875 125.544 58.1587C125.559 57.6053 125.489 57.0632 125.2 56.5746C124.945 56.1449 124.572 55.9339 124.069 56.0091C123.816 56.0467 123.568 56.1291 123.316 56.18C122.969 56.2505 122.624 56.3456 122.273 56.3688C121.307 56.4323 120.499 56.1196 119.939 55.2892C119.831 55.1293 119.726 54.9661 119.612 54.8107C119.444 54.5828 119.209 54.4834 118.935 54.5314C118.65 54.5821 118.369 54.6529 118.094 54.7395C117.787 54.8359 117.493 54.9744 117.187 55.0727C115.634 55.5716 114.414 55.1543 113.483 53.8113C113.317 53.5733 113.163 53.327 112.992 53.0941C112.6 52.5654 112.068 52.4298 111.446 52.5698C110.928 52.6863 110.498 52.9566 110.119 53.3215C109.503 53.9124 109.076 54.6224 108.748 55.4035C107.695 57.9169 107.274 60.5159 107.552 63.2406C107.826 65.9288 108.841 68.2697 110.64 70.2829C111.29 71.0092 111.999 71.6639 112.864 72.1185C114.629 73.0478 116.415 73.1916 118.203 72.1816C119.136 71.6543 119.942 70.9642 120.675 70.1875C121.903 68.8871 122.816 67.3768 123.472 65.9256ZM103.94 46.7444C103.787 46.857 103.651 46.9106 103.593 47.0092C103.215 47.644 102.796 48.2624 102.5 48.9352C101.801 50.5189 101.55 52.1996 101.56 53.9278C101.569 55.6509 101.848 57.3273 102.361 58.9676C103.314 62.0208 104.795 64.784 106.927 67.1829C107.035 67.3038 107.111 67.5342 107.388 67.3972C107.354 67.2727 107.326 67.1495 107.285 67.0315C106.105 63.6371 106.013 60.2133 107.074 56.7815C107.434 55.6152 107.816 54.4422 108.561 53.4426C108.867 53.0327 109.206 52.6469 109.553 52.2226C109.495 52.0253 109.442 51.8091 109.368 51.5995C108.871 50.1955 108.023 49.2185 106.439 49.0012C105.571 48.8817 104.91 48.3561 104.463 47.5835C104.305 47.3069 104.128 47.0432 103.94 46.7444ZM132.821 55.0841C132.624 55.1582 132.412 55.2236 132.213 55.3154C131.174 55.788 130.091 56.0739 128.943 56.0839C128.782 56.0862 128.622 56.103 128.46 56.116C127.878 56.1608 127.447 56.4728 127.043 56.8683C126.679 57.2248 126.69 57.6498 126.655 58.1089C126.57 59.1981 126.467 60.2927 126.27 61.3653C125.911 63.3118 125.158 65.1246 124.265 66.887C123.278 68.8329 122.055 70.588 120.38 72.0082C120.281 72.0923 120.228 72.2293 120.082 72.4515C120.377 72.3886 120.532 72.3618 120.683 72.3218C121.817 72.0245 122.851 71.5058 123.843 70.8945C125.7 69.7498 127.339 68.3579 128.602 66.5701C129.609 65.1442 130.409 63.5969 131.024 61.9602C131.376 61.0262 131.743 60.095 132.033 59.1403C132.351 58.0945 132.603 57.028 132.852 55.963C132.916 55.6984 133.033 55.4009 132.821 55.0841ZM120.192 52.1192C120.261 51.3714 120.186 50.7032 120.006 50.0466C119.765 49.1664 119.277 48.5431 118.291 48.4606C118.163 48.4492 118.04 48.4036 117.911 48.384C117.286 48.2907 116.75 48.0245 116.277 47.6054C115.94 47.3068 115.57 47.044 115.223 46.7562C114.546 46.1937 113.77 45.9309 112.895 45.9786C112.041 46.0254 111.231 45.8294 110.43 45.5638C110.065 45.4422 109.69 45.3447 109.315 45.2516C107.99 44.9197 106.359 45.6751 105.914 47.5396C106.056 47.6316 106.201 47.7626 106.371 47.8271C106.611 47.9176 106.867 47.9708 107.12 48.0177C108.461 48.268 109.383 49.0535 109.98 50.2511C110.125 50.5398 110.247 50.8383 110.388 51.1284C110.467 51.2919 110.567 51.4462 110.668 51.6252C111.608 51.2688 112.483 51.3743 113.342 51.7993C114.323 51.1452 115.31 51.258 116.302 51.722C116.448 51.7906 116.596 51.8623 116.752 51.898C117.126 51.9829 117.503 52.0942 117.883 52.1115C118.622 52.1452 119.362 52.1202 120.192 52.1192ZM126.254 56.0759C127.114 55.1788 128.085 54.955 129.157 54.9493C130.205 54.9439 131.181 54.6021 132.103 54.1166C132.265 54.0317 132.403 53.8979 132.532 53.8008C132.52 52.9904 132.081 52.5608 131.404 52.3679C130.944 52.2369 130.461 52.129 129.985 52.1187C128.445 52.0856 127.09 51.6002 125.896 50.6255C125.601 50.3844 125.261 50.1753 124.908 50.0315C123.802 49.5798 122.712 49.5838 121.69 50.282C121.435 50.4553 121.288 50.6738 121.312 51.0077C121.348 51.5181 121.35 52.0309 121.366 52.546C121.597 52.7465 121.845 52.9114 122.027 53.1289C122.349 53.5161 122.761 53.7209 123.216 53.9106C123.623 54.0802 123.984 54.3653 124.362 54.6053C124.496 54.6904 124.609 54.8308 124.753 54.8798C125.348 55.0808 125.816 55.452 126.254 56.0759Z" fill="#DEE1D9"/>
</g>
<defs>
<clipPath id="clip0_327_157">
<rect width="113" height="217" fill="white" transform="translate(94.5489 0.0351562) rotate(25.7355)"/>
</clipPath>
</defs>
</svg>
