<svg width="191" height="245" viewBox="0 0 191 245" fill="none" xmlns="http://www.w3.org/2000/svg">
<g clip-path="url(#clip0_327_153)">
<path d="M150.726 54.5398C150.671 54.7879 150.589 55.0337 150.565 55.2845C150.121 59.8801 149.291 64.4102 148.241 68.9C147.12 73.6957 145.38 78.2637 143.072 82.6178C141.864 84.8973 140.662 87.1796 139.253 89.3413C138.127 91.068 136.96 92.7692 135.769 94.4527C134.022 96.9259 132.294 99.4139 130.375 101.762C126.927 105.979 123.365 110.096 119.604 114.039C117.802 115.928 116.002 117.816 114.227 119.731C113.088 120.958 112.001 122.231 110.889 123.485C110.377 124.062 109.787 124.589 109.371 125.229C108.76 126.172 108.193 127.161 107.751 128.191C107.051 129.818 106.436 131.491 106.031 133.218C105.723 134.53 105.578 135.881 105.346 137.212C104.995 139.23 105.083 141.258 105.176 143.288C105.199 143.788 105.357 144.222 105.657 144.626C106.159 145.298 106.632 145.99 107.115 146.675C108.835 149.118 109.683 151.859 109.892 154.813C110.104 157.797 109.758 160.732 109.128 163.643C109.108 163.735 109.057 163.82 109.016 163.905C109.003 163.932 108.97 163.948 108.9 164.01C108.794 163.924 108.648 163.854 108.571 163.737C107.612 162.283 106.702 160.797 105.703 159.372C103.472 156.187 102.535 150.815 103.086 147.816C103.284 146.736 103.532 145.67 103.928 144.646C104.072 144.273 104.118 143.912 104.084 143.516C104.029 142.875 104.022 142.229 103.989 141.585C103.983 141.467 103.948 141.349 103.886 141.017C103.732 141.477 103.646 141.736 103.559 141.993C103.466 142.268 103.362 142.54 103.278 142.817C102.285 146.058 101.091 149.224 99.7247 152.323C99.4401 152.97 99.3376 153.583 99.4735 154.278C99.7938 155.928 99.5559 157.554 99.1162 159.152C97.9971 163.211 95.5892 166.344 92.1384 168.699C91.2329 169.316 90.2791 169.86 89.3404 170.427C89.157 170.538 88.9396 170.596 88.7345 170.679C88.4633 170.336 88.6204 170.012 88.6805 169.717C88.8783 168.738 89.103 167.764 89.3329 166.793C89.7627 164.969 90.3075 163.181 91.1547 161.501C92.4701 158.896 94.0355 156.467 96.2306 154.501C96.6846 154.095 97.184 153.734 97.6925 153.398C98.0308 153.174 98.2737 152.915 98.4233 152.537C99.1996 150.591 100.048 148.671 100.758 146.701C101.589 144.398 102.331 142.061 103.061 139.723C103.511 138.279 103.858 136.802 104.26 135.341C104.841 133.228 105.414 131.111 106.208 129.064C106.264 128.921 106.308 128.774 106.359 128.628C106.119 128.52 106.033 128.684 105.933 128.798C104.059 130.927 102.265 133.122 100.565 135.393C98.7497 137.817 96.9543 140.256 95.3195 142.81C93.8934 145.038 92.5828 147.33 91.3812 149.687C90.2662 151.871 89.2478 154.099 88.3324 156.373C86.9955 159.696 85.8351 163.079 84.8911 166.535C84.5176 167.902 84.1659 169.276 83.8129 170.649C83.7327 170.958 83.6911 171.278 83.6269 171.615C83.7374 171.704 83.8216 171.808 83.9303 171.855C85.2202 172.413 86.3188 173.261 87.3837 174.151C88.1755 174.812 88.9521 175.493 89.6939 176.21C93.0091 179.41 95.1921 183.266 96.2219 187.749C96.7542 190.068 96.8046 192.413 96.244 194.749C95.971 195.887 95.5155 196.95 94.9286 197.958C94.7987 198.179 94.6448 198.389 94.484 198.59C93.8843 199.343 93.3732 199.391 92.5986 198.779C92.5021 198.703 92.4032 198.63 92.272 198.531C92.0835 198.789 91.9156 199.021 91.7456 199.25C90.7596 200.569 89.4345 201.051 87.8325 200.801C87.3888 200.732 86.9515 200.605 86.5189 200.475C85.9263 200.295 85.3264 200.168 84.709 200.237C83.3378 200.389 82.1769 199.909 81.1128 199.103C80.9069 198.946 80.6958 198.798 80.5013 198.629C80.0724 198.256 79.5823 198.034 79.0136 198.002C77.8148 197.933 76.9398 197.368 76.3781 196.311C76.3492 196.257 76.2902 196.219 76.2165 196.144C76.0278 196.239 75.8305 196.339 75.6306 196.439C74.1908 197.154 72.7636 197.069 71.3602 196.343C70.932 196.121 70.5248 195.854 70.1266 195.58C69.4697 195.13 68.752 194.884 67.9567 194.845C67.4099 194.819 66.8631 194.782 66.3161 194.742C65.7615 194.701 65.2448 194.524 64.7478 194.279C64.1358 193.977 63.7209 193.504 63.536 192.848C63.4393 192.507 63.3124 192.189 63.1474 191.87C63.0066 191.599 62.9461 191.248 62.9663 190.939C63.0179 190.138 63.0625 189.324 63.2347 188.543C63.9317 185.384 64.8965 182.314 66.476 179.469C67.0883 178.363 67.8259 177.349 68.7038 176.44C69.9416 175.158 71.3104 174.042 72.855 173.142C74.2085 172.352 75.6542 171.823 77.196 171.568C78.9163 171.285 80.6464 171.111 82.4255 171.26C82.5073 171.071 82.6125 170.906 82.6513 170.728C83.2307 167.98 84.0676 165.304 84.8981 162.626C85.8551 159.542 87.009 156.532 88.3058 153.579C89.0829 151.809 89.9709 150.088 90.8076 148.344C90.8479 148.262 90.8706 148.17 90.9456 147.961C90.7518 148.068 90.6488 148.114 90.5556 148.177C89.5049 148.877 88.8061 149.838 88.3332 151.008C87.8975 152.086 87.2465 153.053 86.5894 154.013C85.6469 155.387 84.4658 156.517 83.1058 157.463C81.873 158.322 80.5152 158.897 79.0361 159.188C77.5095 159.489 75.9652 159.561 74.4141 159.545C74.2333 159.544 74.0527 159.478 73.7927 159.428C73.8761 159.257 73.92 159.149 73.9797 159.05C74.0289 158.968 74.0936 158.893 74.1605 158.824C75.3832 157.566 76.2983 156.085 77.2324 154.616C78.1369 153.195 79.1826 151.891 80.5301 150.857C82.6506 149.23 85.0547 148.412 87.7224 148.427C88.2857 148.429 88.7049 148.274 89.1218 147.929C90.7184 146.611 92.1622 145.137 93.4811 143.551C94.0546 142.862 94.4772 142.049 94.9785 141.299C98.1003 136.635 101.459 132.148 105.196 127.958C108.005 124.808 110.845 121.685 113.713 118.589C116.58 115.493 119.5 112.444 122.4 109.375C122.53 109.238 122.692 109.13 122.836 109.008C122.821 108.98 122.8 108.954 122.801 108.928C122.801 108.91 122.831 108.894 122.85 108.876C122.838 108.92 122.826 108.964 122.814 109.008C122.726 108.994 122.614 108.941 122.553 108.976C122.357 109.086 122.174 109.221 121.999 109.36C116.999 113.311 111.639 116.705 106.025 119.709C105.457 120.013 104.914 120.362 104.365 120.699C103.925 120.968 103.506 121.273 103.058 121.526C101.11 122.627 99.3863 124.029 97.673 125.454C92.7157 129.576 87.9272 133.895 82.9049 137.941C82.7295 138.083 82.5615 138.233 82.3814 138.369C80.6561 139.668 79.3129 141.304 78.2175 143.148C77.395 144.533 76.5988 145.936 75.7776 147.321C75.4239 147.918 75.2356 148.544 75.2117 149.242C75.1815 150.111 75.1287 150.983 75.0261 151.845C74.8157 153.613 74.3688 155.32 73.6966 156.976C72.2 160.667 70.1337 163.977 67.2739 166.767C66.9382 167.095 66.6435 167.492 66.0938 167.675C66.0676 167.511 66.0188 167.393 66.0369 167.287C66.5088 164.492 66.9354 161.688 67.4796 158.908C67.8904 156.812 68.6379 154.815 69.7284 152.964C70.7526 151.227 72.0245 149.696 73.6088 148.441C73.9739 148.152 74.2433 147.824 74.4614 147.416C74.963 146.478 75.5017 145.56 76.0229 144.634C76.1012 144.496 76.1671 144.35 76.3236 144.039C76.0252 144.22 75.8668 144.291 75.7388 144.399C70.7682 148.591 66.3135 153.276 62.3055 158.392C60.9338 160.143 59.5674 161.896 58.3775 163.778C56.9434 166.042 55.6433 168.377 54.5596 170.831C54.4276 171.129 54.3168 171.409 54.4277 171.757C54.9691 173.451 54.7249 175.134 54.3315 176.814C53.8513 178.867 52.8061 180.635 51.5354 182.281C50.7871 183.249 49.988 184.178 49.2047 185.118C49.1092 185.232 48.9667 185.305 48.7739 185.452C48.7166 185.194 48.6544 185.018 48.6412 184.838C48.5533 183.617 48.4811 182.395 48.3951 181.173C48.2638 179.296 48.3342 177.432 48.8508 175.613C49.0516 174.904 49.3168 174.203 49.6429 173.542C50.0813 172.65 50.8398 172.038 51.6731 171.52C52.138 171.231 52.609 170.95 53.0787 170.667C53.3931 170.478 53.6053 170.215 53.7592 169.877C55.8733 165.243 58.6667 161.039 61.8931 157.11C62.8522 155.943 63.8074 154.773 64.7798 153.586C64.5989 153.446 64.4811 153.59 64.3768 153.657C62.0564 155.12 59.6834 156.488 57.247 157.751C56.9675 157.895 56.7072 158.102 56.4826 158.326C56.1426 158.668 55.8249 159.036 55.5268 159.415C53.7853 161.64 51.4345 162.68 48.6841 162.952C47.4232 163.076 46.1682 163.009 44.9253 162.797C43.6864 162.586 42.4565 162.323 41.2256 162.065C40.9507 162.007 40.644 161.98 40.4142 161.677C40.5154 161.542 40.5972 161.364 40.7354 161.258C42.1665 160.158 43.6029 159.064 45.0469 157.98C45.3551 157.748 45.6953 157.559 46.0275 157.36C48.4755 155.897 51.0911 155.542 53.857 156.186C54.4536 156.325 55.0518 156.456 55.6498 156.584C56.3713 156.74 57.0357 156.64 57.6965 156.272C61.1651 154.341 64.6068 152.369 67.7454 149.922C68.76 149.131 69.7188 148.266 70.6879 147.416C71.39 146.8 72.0631 146.151 72.7555 145.521C75.0922 143.395 77.4215 141.261 79.7732 139.154C80.8286 138.208 81.9318 137.315 83.0161 136.402C84.743 134.949 86.4787 133.508 88.1995 132.048C91.2965 129.42 94.386 126.784 97.4781 124.149C97.6687 123.986 97.8492 123.81 98.079 123.599C97.8263 123.466 97.6681 123.586 97.5171 123.644C95.4007 124.433 93.2857 125.223 91.1122 125.846C89.5937 126.281 88.0662 126.691 86.5486 127.131C86.0864 127.264 85.6393 127.451 85.191 127.631C84.3526 127.965 83.5208 128.317 82.6837 128.652C82.1156 128.881 81.519 129.051 80.9736 129.324C78.5804 130.522 76.2036 131.753 73.8133 132.958C72.9262 133.405 72.2399 134.067 71.6366 134.835C71.0399 135.596 70.4398 136.353 69.8358 137.109C67.8363 139.617 65.2725 141.341 62.331 142.566C59.4476 143.767 56.4417 144.458 53.3572 144.859C53.1162 144.89 52.8704 144.879 52.5052 144.891C52.6838 144.603 52.7736 144.399 52.9159 144.241C53.2827 143.834 53.6668 143.444 54.0514 143.053C55.4304 141.651 56.7602 140.206 57.9788 138.659C59.0398 137.313 60.244 136.109 61.6111 135.065C62.9177 134.068 64.3696 133.41 65.973 133.07C67.3984 132.769 68.8356 132.599 70.2949 132.646C70.4557 132.651 70.6176 132.653 70.7782 132.655C72.073 132.677 72.0561 132.645 73.232 132.014C75.0786 131.023 76.9507 130.08 78.8127 129.115C79.0903 128.971 79.3617 128.816 79.6378 128.665C79.5065 128.418 79.3354 128.49 79.1851 128.503C77.8685 128.625 76.5528 128.751 75.2368 128.871C73.7578 129.005 72.276 129.064 70.791 128.999C70.2931 128.977 69.8491 129.097 69.3943 129.295C68.3001 129.769 67.1914 130.21 66.0776 130.637C63.4701 131.641 60.7883 131.68 58.0706 131.219C55.5047 130.785 53.0786 129.942 50.7644 128.758C50.1036 128.42 49.4338 128.102 48.7707 127.769C48.4879 127.627 48.1906 127.497 48.0076 127.148C48.0961 127.068 48.1726 126.956 48.2771 126.913C48.5144 126.816 48.7638 126.744 49.013 126.68C51.3557 126.075 53.6961 125.464 56.0443 124.878C56.9512 124.652 57.8668 124.455 58.7878 124.299C61.7416 123.798 64.4917 124.454 67.0927 125.852C67.5141 126.079 67.8877 126.399 68.2747 126.688C68.5073 126.861 68.7253 127.054 68.945 127.243C69.4777 127.699 70.0662 127.896 70.7933 127.9C75.5582 127.933 80.2632 127.42 84.902 126.363C89.0272 125.423 93.0657 124.172 97.0064 122.628C98.3269 122.11 99.6201 121.521 100.924 120.961C101.035 120.912 101.136 120.839 101.332 120.725C101.155 120.689 101.07 120.647 100.994 120.659C97.5995 121.176 94.1944 121.334 90.7717 120.981C90.5231 120.955 90.2485 120.982 90.0142 121.065C87.548 121.938 85.0658 121.782 82.576 121.193C80.1811 120.626 78.049 119.502 76.0861 118.054C74.9719 117.232 73.9127 116.333 72.8326 115.464C72.7631 115.408 72.7178 115.321 72.6342 115.216C72.7269 115.165 72.8027 115.086 72.8707 115.092C74.8106 115.282 76.7365 115.071 78.6638 114.896C79.9252 114.781 81.1713 114.869 82.4111 115.141C83.8493 115.457 85.1595 116.064 86.4163 116.802C87.5628 117.475 88.6111 118.282 89.5145 119.257C89.895 119.668 90.3341 119.825 90.8672 119.876C93.7374 120.148 96.6021 120.102 99.4594 119.74C101.477 119.484 103.485 119.151 105.424 118.519C106.063 118.31 106.704 118.064 107.291 117.737C112.202 115.003 116.928 111.983 121.311 108.458C123.219 106.924 125.048 105.29 126.906 103.694C127.199 103.443 127.459 103.153 127.732 102.881C129.447 101.171 130.976 99.3087 132.365 97.3269C133.936 95.0831 135.528 92.8546 137.092 90.6061C138.363 88.7792 139.494 86.8659 140.573 84.9194C141.701 82.8875 142.773 80.8302 143.742 78.7192C144.82 76.371 145.707 73.9506 146.399 71.46C146.433 71.3381 146.455 71.2124 146.507 70.9797C146.16 71.269 145.992 71.565 145.822 71.8478C143.438 75.8031 140.724 79.5251 137.751 83.0553C134.775 86.5914 131.529 89.8524 127.748 92.547C125.247 94.3283 122.581 95.8387 119.874 97.2756C118.021 98.2589 116.139 99.1864 114.174 99.9276C113.542 100.166 113.062 100.522 112.667 101.065C111.673 102.433 110.446 103.562 109.074 104.551C106.927 106.099 104.534 106.968 101.915 107.249C99.1988 107.54 96.5063 107.398 93.8315 106.845C92.7575 106.623 91.6829 106.413 90.6077 106.193C90.4568 106.162 90.311 106.108 90.0682 106.037C90.224 105.861 90.3032 105.728 90.4191 105.652C90.6894 105.479 90.9734 105.324 91.2611 105.178C92.5035 104.55 93.6575 103.788 94.7573 102.935C95.5977 102.283 96.4503 101.646 97.3159 101.028C98.502 100.181 99.7801 99.5025 101.129 98.9447C103.772 97.8505 106.497 97.6134 109.288 98.1628C110.362 98.3743 111.425 98.659 112.475 98.9709C112.982 99.1213 113.41 99.0467 113.873 98.8584C115.729 98.1073 117.535 97.2497 119.302 96.3103C122.236 94.7504 125.129 93.1188 127.796 91.1188C130.098 89.3927 132.198 87.4489 134.182 85.3669C136.165 83.2875 137.967 81.0589 139.722 78.7904C139.813 78.673 139.874 78.532 139.871 78.3401C139.603 78.5651 139.331 78.7853 139.068 79.0158C135.852 81.8475 132.306 84.1717 128.42 85.9834C126.923 86.6813 125.374 87.231 123.773 87.6208C123.133 87.7758 122.558 88.0385 122.031 88.4262C121.302 88.9607 120.561 89.4738 119.832 90.0083C118.812 90.7572 117.713 91.3631 116.534 91.8194C113.48 92.9999 110.332 93.5331 107.05 93.2095C105.345 93.0428 103.668 92.7317 102.003 92.341C101.881 92.3129 101.769 92.249 101.655 92.1952C101.63 92.1827 101.615 92.1456 101.561 92.0746C101.622 91.9936 101.676 91.877 101.767 91.812C101.923 91.6998 102.097 91.6107 102.274 91.5303C103.453 90.9913 104.523 90.2732 105.585 89.5373C106.487 88.9137 107.384 88.2821 108.322 87.7153C112.051 85.4669 116.046 84.9934 120.251 85.9946C120.941 86.1583 121.629 86.3303 122.315 86.5119C122.831 86.6478 123.324 86.5955 123.838 86.46C125.848 85.9317 127.751 85.1408 129.581 84.177C132.907 82.427 136 80.3366 138.763 77.7806C141.07 75.6462 143.098 73.2762 144.678 70.5487C145.323 69.4345 145.974 68.3168 146.532 67.1569C147.899 64.316 148.71 61.3116 149.124 58.1857C150.047 51.2281 149.85 44.2933 148.76 37.3753C148.615 36.4553 148.335 35.5567 148.117 34.6477C148.064 34.4283 147.989 34.2144 147.953 33.9928C147.914 33.7593 148.061 33.5574 148.292 33.4727C148.52 33.3888 148.777 33.4354 148.885 33.6543C149.084 34.0553 149.277 34.4692 149.399 34.897C149.911 36.6982 150.327 38.5211 150.618 40.371C151.338 44.9312 151.789 49.5162 151.962 54.1285C152.465 67.6358 151.635 81.0563 149.336 94.3799C148.843 97.2393 148.343 100.096 147.611 102.904C147.068 104.994 146.483 107.073 145.873 109.145C145.31 111.061 144.679 112.959 144.103 114.872C143.994 115.233 143.952 115.635 143.975 116.013C144.051 117.363 144.162 118.713 144.275 120.061C144.329 120.704 144.429 121.342 144.488 121.984C144.603 123.236 144.686 124.493 145.227 125.658C146.51 130.136 146.65 134.634 145.292 139.106C144.006 143.343 141.862 147.088 138.519 150.072C137.966 150.565 137.38 151.022 136.801 151.484C136.655 151.6 136.476 151.673 136.231 151.813C136.224 151.619 136.187 151.498 136.221 151.398C136.323 151.094 136.452 150.796 136.571 150.497C137.061 149.27 137.56 148.046 138.036 146.814C138.751 144.968 139.147 143.049 139.295 141.076C139.428 139.31 139.554 137.541 139.75 135.78C140.036 133.21 140.593 130.695 141.482 128.26C141.915 127.076 142.465 125.943 143.187 124.907C143.481 124.485 143.609 124.08 143.54 123.557C143.334 121.991 143.176 120.419 142.996 118.849C142.987 118.765 142.95 118.683 142.926 118.602C142.636 118.628 142.654 118.871 142.587 119.031C141.863 120.755 141.148 122.485 140.434 124.213C139.153 127.315 137.608 130.294 136.144 133.309C134.477 136.739 132.47 139.969 130.463 143.199C129.749 144.347 128.94 145.436 128.157 146.54C127.945 146.837 127.803 147.136 127.735 147.497C127.556 148.446 127.337 149.388 127.148 150.336C126.817 151.992 126.231 153.55 125.468 155.056C124.015 157.928 121.815 160.101 119.182 161.875C117.463 163.032 115.607 163.936 113.67 164.668C113.384 164.776 113.094 164.992 112.713 164.768C112.733 164.599 112.717 164.4 112.782 164.233C112.933 163.844 113.103 163.456 113.306 163.09C114.07 161.704 114.682 160.246 115.283 158.785C116.346 156.206 117.717 153.811 119.435 151.611C120.765 149.905 122.399 148.572 124.29 147.541C124.998 147.154 125.707 146.77 126.434 146.422C126.917 146.192 127.296 145.867 127.586 145.429C128.634 143.844 129.712 142.276 130.719 140.664C131.693 139.107 132.609 137.513 133.52 135.918C134.062 134.966 134.549 133.983 135.053 133.009C137.583 128.103 139.795 123.054 141.804 117.915C142.212 116.87 142.672 115.835 142.881 114.715C142.955 114.313 143.219 113.951 143.347 113.555C143.765 112.267 144.182 110.978 144.559 109.679C145.179 107.544 145.783 105.403 146.366 103.258C147.17 100.301 147.71 97.2868 148.228 94.2689C148.347 93.5707 148.463 92.8708 148.574 92.1705C148.612 91.9259 148.632 91.6797 148.536 91.3862C148.434 91.5617 148.322 91.7314 148.232 91.912C147.438 93.498 146.651 95.0874 145.856 96.6715C144.857 98.6635 143.639 100.527 142.397 102.371C141.695 103.413 140.936 104.415 140.212 105.443C140.065 105.65 139.897 105.872 139.841 106.111C139.486 107.633 138.797 109.024 138.121 110.412C136.86 112.999 135.311 115.411 133.52 117.664C132.817 118.549 132.028 119.358 131.138 120.058C128.9 121.816 126.514 123.344 123.971 124.627C123.461 124.883 122.954 125.176 122.293 125.26C122.28 125.068 122.239 124.92 122.267 124.785C122.298 124.631 122.39 124.489 122.459 124.342C123.305 122.531 124.137 120.714 125.002 118.915C126.038 116.76 127.229 114.694 128.734 112.827C129.994 111.262 131.47 109.914 133.122 108.772C134.741 107.654 136.371 106.547 138.215 105.814C138.562 105.677 138.788 105.421 139.015 105.142C140.134 103.764 141.114 102.286 142.093 100.809C143.538 98.6303 144.848 96.3749 145.943 93.9955C146.561 92.6484 147.265 91.3384 147.846 89.975C148.415 88.6414 148.885 87.2671 149.374 85.9006C149.502 85.5411 149.566 85.151 149.613 84.7688C150.809 75.0562 151.179 65.3073 150.891 55.5301C150.881 55.2034 151.025 54.8229 150.711 54.5413C150.74 54.4677 150.769 54.3928 150.799 54.3198C150.761 54.32 150.722 54.3184 150.683 54.3186C150.691 54.3958 150.709 54.4681 150.726 54.5398ZM73.1042 179.62C72.2495 181.552 72.0552 182.185 71.6511 184.106C71.4191 185.21 71.3317 186.336 71.3488 187.465C71.3567 188.018 71.4479 188.557 71.7568 189.033C72.0291 189.452 72.4103 189.648 72.9099 189.553C73.1613 189.505 73.4058 189.412 73.6552 189.351C73.9994 189.267 74.3403 189.158 74.6902 189.12C75.6527 189.018 76.4727 189.297 77.066 190.104C77.1801 190.26 77.2913 190.418 77.4122 190.569C77.5887 190.79 77.8282 190.88 78.0998 190.821C78.382 190.758 78.6606 190.676 78.9319 190.579C79.2343 190.47 79.5224 190.32 79.824 190.209C81.3557 189.647 82.5914 190.015 83.5769 191.319C83.7521 191.55 83.9158 191.79 84.0964 192.016C84.5097 192.528 85.0463 192.642 85.6621 192.477C86.1753 192.339 86.5935 192.052 86.9579 191.672C87.5488 191.056 87.9465 190.33 88.2424 189.536C89.1929 186.982 89.508 184.368 89.1194 181.657C88.7366 178.982 87.6278 176.684 85.7483 174.746C85.0699 174.046 84.335 173.421 83.4523 173.002C81.6505 172.145 79.8606 172.074 78.1144 173.155C77.2041 173.72 76.427 174.442 75.7259 175.248C74.5513 176.597 73.7005 178.143 73.1042 179.62ZM93.3987 197.993C93.5469 197.874 93.6802 197.815 93.7346 197.714C94.0866 197.064 94.4799 196.43 94.7484 195.745C95.3827 194.135 95.5652 192.445 95.4853 190.719C95.4063 188.997 95.0594 187.334 94.4805 185.716C93.4041 182.703 91.8115 180.003 89.584 177.692C89.4714 177.576 89.3868 177.349 89.115 177.497C89.1541 177.62 89.1874 177.742 89.2324 177.858C90.5496 181.202 90.7802 184.619 89.8598 188.091C89.5473 189.271 89.2131 190.459 88.5093 191.488C88.2205 191.91 87.8969 192.309 87.5673 192.747C87.6337 192.942 87.6949 193.156 87.7778 193.362C88.3309 194.745 89.218 195.686 90.8095 195.839C91.6819 195.923 92.3642 196.422 92.8421 197.176C93.0113 197.445 93.1986 197.702 93.3987 197.993ZM64.2028 190.832C64.3967 190.75 64.6055 190.676 64.801 190.576C65.8203 190.062 66.8902 189.732 68.0373 189.676C68.1979 189.667 68.3572 189.644 68.5179 189.624C69.098 189.556 69.5158 189.226 69.9032 188.815C70.2529 188.444 70.2243 188.02 70.2405 187.559C70.2811 186.468 70.3397 185.37 70.4934 184.29C70.7728 182.331 71.4518 180.489 72.2729 178.692C73.1797 176.707 74.331 174.904 75.9467 173.417C76.0417 173.329 76.0896 173.19 76.2267 172.962C75.9345 173.037 75.7802 173.07 75.6311 173.116C74.5107 173.459 73.4977 174.019 72.5315 174.67C70.7228 175.889 69.1415 177.347 67.9523 179.184C67.0041 180.65 66.2669 182.228 65.7187 183.889C65.4054 184.836 65.0761 185.781 64.8256 186.747C64.5506 187.805 64.3417 188.881 64.1365 189.955C64.0824 190.222 63.9778 190.524 64.2028 190.832ZM76.942 193.282C76.9033 194.032 77.0046 194.696 77.2112 195.345C77.4882 196.215 78.0007 196.818 78.9895 196.86C79.1176 196.867 79.243 196.907 79.3721 196.922C80.0009 196.989 80.5472 197.234 81.037 197.633C81.3858 197.918 81.7661 198.165 82.1244 198.439C82.8233 198.973 83.609 199.205 84.4816 199.121C85.3334 199.04 86.1501 199.203 86.9612 199.436C87.3317 199.542 87.7098 199.625 88.0882 199.702C89.4257 199.98 91.0252 199.159 91.3936 197.278C91.2479 197.192 91.0975 197.067 90.9256 197.01C90.6823 196.929 90.4239 196.886 90.1691 196.85C88.8191 196.654 87.8664 195.906 87.2206 194.734C87.0646 194.451 86.9302 194.158 86.7779 193.874C86.692 193.714 86.5863 193.564 86.4774 193.389C85.5532 193.783 84.6747 193.713 83.7993 193.324C82.8455 194.017 81.8544 193.944 80.8444 193.521C80.6962 193.458 80.5447 193.393 80.3882 193.363C80.0109 193.294 79.6295 193.198 79.249 193.196C78.5094 193.192 77.7705 193.247 76.942 193.282ZM70.7245 189.574C69.9015 190.506 68.9403 190.769 67.8687 190.818C66.8223 190.866 65.8607 191.247 64.9594 191.77C64.8014 191.861 64.6689 192 64.5431 192.103C64.5879 192.912 65.0449 193.323 65.7284 193.488C66.1934 193.601 66.6811 193.689 67.1571 193.68C68.6969 193.65 70.07 194.08 71.3025 195.006C71.6078 195.235 71.9554 195.43 72.3146 195.559C73.438 195.966 74.5261 195.917 75.5197 195.178C75.7667 194.995 75.9053 194.771 75.8679 194.438C75.8113 193.929 75.7886 193.417 75.7512 192.903C75.5125 192.712 75.2581 192.557 75.0676 192.347C74.7296 191.974 74.3097 191.786 73.8471 191.615C73.4335 191.462 73.0614 191.192 72.6742 190.967C72.5365 190.887 72.4184 190.752 72.2725 190.709C71.6693 190.532 71.1866 190.18 70.7245 189.574Z" fill="#DEE1D9"/>
</g>
<defs>
<clipPath id="clip0_327_153">
<rect width="113" height="217" fill="white" transform="translate(104.677 244.281) rotate(-156.59)"/>
</clipPath>
</defs>
</svg>
