<svg width="693" height="954" viewBox="0 0 693 954" fill="none" xmlns="http://www.w3.org/2000/svg">
<path d="M15 346.5C15 163.418 163.418 15 346.5 15C529.582 15 678 163.418 678 346.5V939H15V346.5Z" stroke="#9F7B59" stroke-width="30"/>
<rect x="50" y="168" width="30" height="765" fill="#9F7B59"/>
<rect x="100" y="106" width="30" height="827" fill="#9F7B59"/>
<rect x="150" y="67" width="30" height="866" fill="#9F7B59"/>
<rect x="200" y="45" width="30" height="879" fill="#9F7B59"/>
<rect x="250" y="23" width="30" height="910" fill="#9F7B59"/>
<rect x="300" y="14" width="30" height="919" fill="#9F7B59"/>
<rect x="350" y="14" width="30" height="919" fill="#9F7B59"/>
<rect x="400" y="14" width="30" height="919" fill="#9F7B59"/>
<rect x="450" y="34" width="30" height="899" fill="#9F7B59"/>
<rect x="500" y="67" width="30" height="866" fill="#9F7B59"/>
<rect x="550" y="100" width="30" height="833" fill="#9F7B59"/>
<rect x="600" y="148" width="30" height="785" fill="#9F7B59"/>
</svg>
