<svg width="67" height="47" viewBox="0 0 67 47" fill="none" xmlns="http://www.w3.org/2000/svg">
<g clip-path="url(#clip0_328_426)">
<path d="M33.9419 41.5928C34.0343 41.7082 34.0773 41.8554 34.0615 42.0023C34.0457 42.1492 33.9725 42.284 33.8577 42.3773C29.703 45.6684 24.4421 47.2427 19.1592 46.7759C13.8763 46.309 8.97416 43.8364 5.46313 39.8679C1.9521 35.8993 0.0997755 30.7372 0.287956 25.4455C0.476136 20.1538 2.69048 15.1359 6.47457 11.4259C10.2587 7.71593 15.3241 5.5967 20.6268 5.50505C25.9296 5.41341 31.0654 7.35632 34.9759 10.9333C38.8863 14.5103 41.2733 19.4487 41.6448 24.7308C42.0163 30.0128 40.344 35.2358 36.9726 39.3233C36.8792 39.4379 36.7443 39.5111 36.5971 39.5268C36.4499 39.5425 36.3025 39.4996 36.1869 39.4074C36.0712 39.3116 35.9976 39.1745 35.9818 39.0252C35.9661 38.876 36.0095 38.7266 36.1027 38.6089C39.2611 34.6974 40.7954 29.7249 40.3893 24.717C39.9832 19.7091 37.6676 15.0478 33.9201 11.6945C30.1726 8.34128 25.2791 6.55179 20.2488 6.69518C15.2185 6.83857 10.4352 8.90391 6.88544 12.4652C3.33568 16.0265 1.29022 20.8121 1.17096 25.8349C1.05171 30.8578 2.86774 35.7348 6.2445 39.46C9.62125 43.1852 14.3012 45.4745 19.319 45.8557C24.3368 46.2369 29.3098 44.6809 33.2122 41.5087C33.3237 41.4328 33.4587 41.3996 33.5927 41.415C33.7267 41.4305 33.8507 41.4936 33.9419 41.5928Z" fill="#242424"/>
<path d="M30.981 38.6228C31.0684 38.7413 31.1069 38.8887 31.0886 39.0346C31.0703 39.1806 30.9966 39.314 30.8828 39.4073C27.56 41.9461 23.3948 43.1287 19.2312 42.7152C15.0676 42.3018 11.2172 40.3233 8.46044 37.1808C5.70366 34.0383 4.24675 29.9669 4.38499 25.7917C4.52322 21.6166 6.24627 17.6501 9.20489 14.6962C12.1635 11.7423 16.1364 10.022 20.3182 9.88399C24.5 9.74598 28.578 11.2006 31.7255 13.9529C34.8731 16.7053 36.8548 20.5495 37.2689 24.7064C37.683 28.8633 36.4985 33.022 33.9557 36.3394C33.8645 36.4583 33.7297 36.5361 33.5811 36.5558C33.4324 36.5755 33.282 36.5355 33.1629 36.4444C33.0438 36.3534 32.9658 36.2189 32.9461 36.0704C32.9263 35.922 32.9665 35.7718 33.0576 35.6529C35.406 32.5202 36.4728 28.6129 36.0416 24.7237C35.6103 20.8346 33.7133 17.2548 30.7355 14.7108C27.7576 12.1668 23.9219 10.8492 20.0067 11.0251C16.0914 11.2011 12.3898 12.8575 9.65296 15.6583C6.91608 18.4591 5.34889 22.1945 5.26936 26.1067C5.18983 30.0188 6.60393 33.8146 9.22473 36.724C11.8455 39.6334 15.4768 41.4384 19.3816 41.7728C23.2865 42.1072 27.1726 40.946 30.2514 38.5248C30.3653 38.4534 30.5006 38.4241 30.6339 38.442C30.7672 38.4599 30.89 38.5239 30.981 38.6228Z" fill="#242424"/>
<path d="M45.7846 6.44408L42.9783 2.68969C42.9233 2.60398 42.894 2.50433 42.894 2.40253C42.894 2.30073 42.9233 2.20104 42.9783 2.11532L43.8482 0.322178C43.8946 0.227308 43.9663 0.147048 44.0554 0.0902065C44.1446 0.0333646 44.2476 0.00216744 44.3534 0H48.198C48.3037 0.00216744 48.4068 0.0333646 48.4959 0.0902065C48.585 0.147048 48.6567 0.227308 48.7031 0.322178L49.5731 2.11532C49.625 2.20215 49.6524 2.30141 49.6524 2.40253C49.6524 2.50365 49.625 2.60286 49.5731 2.68969L46.7668 6.44408C46.7131 6.51214 46.645 6.56753 46.5674 6.60628C46.4897 6.64503 46.4045 6.66618 46.3178 6.66823C46.2171 6.67979 46.1151 6.66525 46.0217 6.62599C45.9283 6.58672 45.8466 6.52406 45.7846 6.44408ZM44.1148 2.2414L46.2336 5.11326L48.3664 2.2414L47.7911 1.06465H44.6901L44.1148 2.2414Z" fill="#242424"/>
<path d="M39.2035 7.53681L37.0847 4.73502C37.0297 4.6493 37.0005 4.54965 37.0005 4.44785C37.0005 4.34605 37.0297 4.24641 37.0847 4.16069L37.7582 2.7598C37.8025 2.66434 37.8741 2.58413 37.964 2.52928C38.0539 2.47443 38.1581 2.44739 38.2634 2.4516H41.1538C41.2588 2.44919 41.3622 2.47694 41.4518 2.53159C41.5413 2.58623 41.6132 2.66547 41.659 2.7598L42.3325 4.16069C42.3844 4.24752 42.4118 4.34674 42.4118 4.44785C42.4118 4.54897 42.3844 4.64819 42.3325 4.73502L40.2137 7.53681C40.1615 7.6064 40.0937 7.66292 40.0157 7.70183C39.9378 7.74073 39.8519 7.76096 39.7647 7.76096C39.6776 7.76096 39.5917 7.74073 39.5137 7.70183C39.4358 7.66292 39.368 7.6064 39.3157 7.53681H39.2035ZM38.1932 4.28677L39.5964 6.26203L40.9995 4.28677L40.6347 3.53027H38.558L38.1932 4.28677Z" fill="#242424"/>
<path d="M52.4071 7.53653L50.2883 4.73474C50.2333 4.64902 50.2041 4.54937 50.2041 4.44757C50.2041 4.34577 50.2333 4.24613 50.2883 4.16041L50.9619 2.75951C51.0076 2.66519 51.0795 2.58595 51.1691 2.5313C51.2586 2.47666 51.362 2.44891 51.467 2.45132H54.3575C54.4621 2.45059 54.5648 2.47903 54.654 2.53349C54.7433 2.58794 54.8155 2.66625 54.8626 2.75951L55.5361 4.16041C55.588 4.24724 55.6154 4.34645 55.6154 4.44757C55.6154 4.54869 55.588 4.64791 55.5361 4.73474L53.4174 7.53653C53.3651 7.60612 53.2973 7.66264 53.2193 7.70155C53.1414 7.74045 53.0555 7.76067 52.9683 7.76067C52.8812 7.76067 52.7953 7.74045 52.7173 7.70155C52.6394 7.66264 52.5716 7.60612 52.5193 7.53653H52.4071ZM51.3968 4.28648L52.8 6.26175L54.2031 4.28648L53.8383 3.52999H51.7336L51.3968 4.28648Z" fill="#242424"/>
<path d="M46.2337 5.54786C50.941 5.5478 55.5086 7.14561 59.1865 10.079C62.8644 13.0124 65.4341 17.1071 66.4739 21.6908C67.5136 26.2746 66.9615 31.0751 64.9082 35.3043C62.855 39.5335 59.4225 42.9402 55.1744 44.9649C50.9263 46.9897 46.1149 47.5123 41.53 46.447C36.9451 45.3817 32.8593 42.7918 29.9431 39.1024C27.0269 35.413 25.4538 30.8434 25.4818 26.1436C25.5099 21.4438 27.1375 16.8932 30.0975 13.2388C30.1425 13.1825 30.1983 13.1356 30.2615 13.1009C30.3247 13.0662 30.3942 13.0443 30.4659 13.0365C30.5376 13.0286 30.6102 13.0351 30.6794 13.0553C30.7486 13.0756 30.8132 13.1094 30.8693 13.1547C32.0269 14.0396 33.0646 15.0709 33.9562 16.2227C34.0281 16.3227 34.0668 16.4427 34.0668 16.5659C34.0668 16.689 34.0281 16.8091 33.9562 16.9091C31.6078 20.0418 30.541 23.9491 30.9722 27.8383C31.4035 31.7275 33.3005 35.3072 36.2784 37.8512C39.2562 40.3952 43.0919 41.7129 47.0071 41.5369C50.9224 41.361 54.624 39.7045 57.3609 36.9037C60.0977 34.1029 61.6649 30.3675 61.7445 26.4554C61.824 22.5432 60.4099 18.7474 57.7891 15.838C55.1683 12.9287 51.5371 11.1236 47.6322 10.7892C43.7273 10.4548 39.8412 11.616 36.7625 14.0373L36.4257 14.1493C36.3396 14.1521 36.254 14.1345 36.176 14.098C36.098 14.0615 36.0297 14.0071 35.9767 13.9392C35.1407 12.8899 34.2005 11.9277 33.1704 11.0674L33.002 10.8152C32.9561 10.7064 32.9477 10.5854 32.9782 10.4713C33.0086 10.3571 33.0763 10.2564 33.1704 10.1848C36.8591 7.1816 41.474 5.54349 46.2337 5.54786ZM46.2337 6.66856C41.9579 6.66028 37.7976 8.05306 34.3911 10.6331C35.1715 11.3095 35.8986 12.0448 36.566 12.8325C39.0603 11.0437 42.003 9.98139 45.0664 9.76405C48.1298 9.54671 51.1934 10.1828 53.916 11.6016C56.6385 13.0203 58.9131 15.1659 60.4862 17.7993C62.0592 20.4327 62.8691 23.4504 62.8255 26.5163C62.7818 29.5821 61.8864 32.5756 60.239 35.1633C58.5916 37.751 56.2569 39.8312 53.4951 41.1722C50.7332 42.5131 47.6527 43.062 44.5968 42.7579C41.5408 42.4537 38.6295 41.3084 36.1872 39.4495L36.0889 39.3654C34.9672 38.5046 33.9625 37.5015 33.1003 36.3816L33.0301 36.2835C30.8737 33.4613 29.6836 30.0215 29.6356 26.4721C29.5876 22.9228 30.6842 19.4522 32.7635 16.5729C32.1244 15.7778 31.4102 15.046 30.6307 14.3875C28.0043 17.7964 26.5877 21.9804 26.6037 26.2811C26.6037 30.1601 27.7558 33.9519 29.9143 37.1772C32.0728 40.4025 35.1408 42.9163 38.7303 44.4007C42.3197 45.8851 46.2695 46.2735 50.08 45.5168C53.8906 44.76 57.3908 42.8921 60.1381 40.1492C62.8853 37.4064 64.7563 33.9117 65.5142 30.1073C66.2722 26.3028 65.8832 22.3594 64.3964 18.7757C62.9096 15.192 60.3917 12.1289 57.1613 9.97388C53.9309 7.81883 50.1329 6.66856 46.2477 6.66856H46.2337Z" fill="#242424"/>
</g>
<defs>
<clipPath id="clip0_328_426">
<rect width="67" height="47" fill="white"/>
</clipPath>
</defs>
</svg>
