<svg width="52" height="61" viewBox="0 0 52 61" fill="none" xmlns="http://www.w3.org/2000/svg">
<g clip-path="url(#clip0_328_436)">
<path d="M41.2735 60.2077C38.9139 60.2077 38.9139 61.0125 36.1717 61.0381C33.4295 61.0636 33.4295 60.1949 31.0699 60.2077C28.7103 60.2205 28.7103 61.0125 25.9681 61.0381C23.2259 61.0636 23.2386 60.1949 20.8663 60.2077C18.494 60.2205 18.5067 61.0125 15.7645 61.0381C13.0223 61.0636 13.0223 60.1949 10.6627 60.2077C8.30313 60.2205 8.30313 61.0125 5.56092 61.0381C2.81871 61.0636 2.83146 60.1949 0.45913 60.2077C0.391165 60.2114 0.323186 60.2007 0.25962 60.1763C0.196055 60.152 0.138328 60.1144 0.0901983 60.0662C0.042069 60.018 0.00461688 59.9602 -0.0197195 59.8965C-0.0440558 59.8329 -0.0547301 59.7648 -0.0510481 59.6967C-0.0510481 39.7552 12.2315 23.4544 25.9426 23.4161C39.6536 23.3778 51.9745 39.7679 51.9872 59.6584C51.988 59.7273 51.9748 59.7956 51.9485 59.8593C51.9222 59.923 51.8833 59.9806 51.8342 60.0289C51.7869 60.0748 51.731 60.1109 51.6697 60.135C51.6084 60.1591 51.5429 60.1708 51.477 60.1694C49.1175 60.1694 49.1175 60.9742 46.3752 60.9997C43.633 61.0253 43.6458 60.2077 41.2735 60.2077ZM50.9669 59.1985C50.9845 50.4384 48.313 41.8846 43.3142 34.6963C38.6715 28.3089 32.4346 24.4764 26.0063 24.4764C19.5781 24.4764 13.3284 28.2705 8.73678 34.658C3.73799 41.8463 1.06642 50.4001 1.0841 59.1602C3.31613 59.2879 3.46919 59.9905 5.66296 59.965C7.85673 59.9394 8.02253 59.1729 10.7647 59.1474C13.507 59.1218 13.507 59.9905 15.8665 59.965C18.2261 59.9394 18.2261 59.1729 20.9683 59.1474C23.7105 59.1218 23.7105 59.9905 26.0701 59.965C28.4297 59.9394 28.4425 59.1729 31.1719 59.1474C33.9014 59.1218 33.9141 59.9905 36.2737 59.965C38.6333 59.9394 38.6333 59.1729 41.3755 59.1474C44.1177 59.1218 44.1177 59.9905 46.4773 59.965C48.8369 59.9394 48.7348 59.2879 50.9669 59.1602V59.1985Z" fill="#242424"/>
<path d="M25.9934 23.3779C35.3807 23.544 43.2375 40.4196 43.5946 59.8502C43.5947 59.9277 43.5761 60.0041 43.5406 60.073C43.5051 60.1419 43.4537 60.2013 43.3905 60.2462C43.3317 60.2967 43.2616 60.3324 43.1861 60.3502C43.1107 60.3679 43.0321 60.3673 42.9569 60.3484C42.4053 60.2189 41.8397 60.1588 41.2733 60.1696C38.9137 60.1696 38.9137 60.9744 36.1715 60.9999C33.4293 61.0255 33.4293 60.1568 31.0697 60.1696C28.7101 60.1823 28.7101 60.9744 25.9679 60.9999C23.2257 61.0255 23.2385 60.1568 20.8661 60.1696C18.4938 60.1823 18.5066 60.9744 15.7644 60.9999C13.0221 61.0255 13.0221 60.1568 10.6626 60.1696C10.1003 60.1578 9.53883 60.2179 8.99173 60.3484C8.91626 60.3654 8.83795 60.3655 8.76246 60.3485C8.68696 60.3316 8.61616 60.2981 8.55516 60.2504C8.49416 60.2028 8.44447 60.1422 8.40969 60.0729C8.3749 60.0037 8.35589 59.9277 8.354 59.8502C8.73664 40.4196 16.6061 23.544 25.9934 23.3779ZM25.9934 24.3871C21.9758 24.3871 17.8433 28.3218 14.7312 34.837C11.3173 42.522 9.51153 50.8261 9.42538 59.237C9.84785 59.1767 10.2741 59.1468 10.7008 59.1476C13.443 59.1476 13.443 59.9907 15.8026 59.9652C18.1622 59.9396 18.1622 59.1731 20.9044 59.1476C23.6466 59.122 23.6466 59.9907 26.0062 59.9652C28.3658 59.9396 28.3785 59.1731 31.108 59.1476C33.8374 59.122 33.8502 59.9907 36.2098 59.9652C38.5694 59.9396 38.5694 59.1731 41.3116 59.1476C41.7383 59.1463 42.1646 59.1762 42.587 59.237C42.5081 50.8252 40.702 42.5197 37.2812 34.837C34.1436 28.2707 30.0111 24.3616 25.9934 24.4382V24.3871Z" fill="#242424"/>
<path d="M37.6892 27.53C37.7425 27.6059 37.7742 27.6949 37.7808 27.7875C37.7874 27.88 37.7687 27.9726 37.7268 28.0554C37.6848 28.1381 37.6212 28.2078 37.5426 28.2571C37.4641 28.3063 37.3737 28.3332 37.2811 28.3349L36.975 28.2327C33.8134 25.8201 29.9673 24.4779 25.9934 24.4002C22.0195 24.4779 18.1734 25.8201 15.0118 28.2327C14.9249 28.3017 14.8165 28.3379 14.7057 28.3349C14.6389 28.3346 14.5729 28.3209 14.5115 28.2946C14.4502 28.2683 14.3948 28.2298 14.3485 28.1816C14.2679 28.0923 14.2232 27.9762 14.2232 27.8558C14.2232 27.7354 14.2679 27.6193 14.3485 27.53C16.2826 24.7113 17.339 21.3816 17.3841 17.9617C17.3841 15.6111 16.5423 8.66157 14.1445 6.28544C14.0763 6.21089 14.0306 6.11858 14.0125 6.01913C13.9945 5.91969 14.0049 5.81715 14.0424 5.72335C14.081 5.63051 14.1467 5.55154 14.231 5.49682C14.3152 5.4421 14.414 5.41419 14.5143 5.41675C20.1646 5.41675 22.69 6.20879 25.9934 10.4245C29.3478 6.20879 31.8732 5.31455 37.4724 5.41675C37.5751 5.41152 37.677 5.43832 37.7639 5.49346C37.8508 5.5486 37.9184 5.62936 37.9576 5.72463C37.9968 5.8199 38.0055 5.92499 37.9826 6.02543C37.9596 6.12586 37.9062 6.2167 37.8295 6.28544C35.4444 8.66157 34.5771 15.6111 34.6026 17.9617C34.6628 21.3869 35.7371 24.7171 37.6892 27.53ZM18.3534 17.9617C18.3351 20.8061 17.663 23.6081 16.3893 26.1504C19.2867 24.3309 22.6373 23.3659 26.0572 23.3659C29.477 23.3659 32.8276 24.3309 35.725 26.1504C34.4292 23.6134 33.7352 20.8111 33.6971 17.9617C33.6971 15.6494 34.3093 9.72188 36.5158 6.46429C31.5033 6.57927 29.7942 7.35853 26.4653 11.5742C26.415 11.6335 26.3525 11.6811 26.282 11.7137C26.2115 11.7464 26.1348 11.7633 26.0572 11.7633C25.9795 11.7633 25.9028 11.7464 25.8323 11.7137C25.7618 11.6811 25.6993 11.6335 25.649 11.5742C22.3201 7.34576 20.5472 6.56649 15.5985 6.46429C17.7412 9.72188 18.3279 15.6494 18.3534 17.9617Z" fill="#242424"/>
<path d="M13.9532 5.92754V1.96733C14.0006 1.45293 14.2295 0.972304 14.5989 0.611736C14.9682 0.251169 15.4538 0.0342781 15.9684 0C16.1037 0 16.2335 0.0538364 16.3291 0.149667C16.4248 0.245497 16.4786 0.375463 16.4786 0.510987C16.4786 0.646511 16.4248 0.776487 16.3291 0.872317C16.2335 0.968147 16.1037 1.02198 15.9684 1.02198C15.7997 1.01317 15.6324 1.05615 15.4888 1.14519C15.3452 1.23423 15.2322 1.36507 15.1649 1.5202C15.0755 1.68118 15.0069 1.85289 14.9608 2.0312V5.92754C14.9608 6.06306 14.907 6.19303 14.8114 6.28886C14.7157 6.38469 14.5859 6.43854 14.4506 6.43854C14.3153 6.43854 14.1855 6.38469 14.0899 6.28886C13.9942 6.19303 13.9404 6.06306 13.9404 5.92754H13.9532Z" fill="#242424"/>
<path d="M37.0134 5.92762V2.09516C37.0134 2.09516 36.8093 0.932649 36.0058 1.0093C35.8705 1.0093 35.7407 0.955452 35.645 0.859622C35.5494 0.763792 35.4956 0.633826 35.4956 0.498301C35.4956 0.362777 35.5494 0.232801 35.645 0.136971C35.7407 0.0411411 35.8705 -0.0126953 36.0058 -0.0126953C36.5388 0.0198765 37.042 0.244967 37.4219 0.620834C37.8019 0.9967 38.0329 1.49783 38.072 2.03128V5.92762C38.072 6.06315 38.0183 6.19311 37.9226 6.28894C37.8269 6.38477 37.6971 6.43862 37.5618 6.43862C37.4265 6.43862 37.2968 6.38477 37.2011 6.28894C37.1054 6.19311 37.0517 6.06315 37.0517 5.92762H37.0134Z" fill="#242424"/>
</g>
<defs>
<clipPath id="clip0_328_436">
<rect width="52" height="61" fill="white"/>
</clipPath>
</defs>
</svg>
