<svg width="60" height="43" viewBox="0 0 60 43" fill="none" xmlns="http://www.w3.org/2000/svg">
<g clip-path="url(#clip0_328_334)">
<path d="M5.18946 42.9878C4.67625 42.9878 4.18406 42.7826 3.82116 42.4173C3.45826 42.0521 3.25439 41.5567 3.25439 41.0401V7.03218C3.25439 6.69676 3.38678 6.37509 3.62243 6.13791C3.85807 5.90074 4.17768 5.76747 4.51094 5.76747H12.402C12.4666 5.76755 12.5287 5.74266 12.5754 5.69792C12.6222 5.65319 12.6501 5.59208 12.6533 5.52721V4.45221C12.6533 4.11679 12.7857 3.79508 13.0214 3.5579C13.257 3.32073 13.5766 3.1875 13.9099 3.1875H55.4764C55.8096 3.1875 56.1292 3.32073 56.3649 3.5579C56.6005 3.79508 56.7329 4.11679 56.7329 4.45221V41.0401C56.7346 41.2953 56.6861 41.5483 56.5902 41.7845C56.4943 42.0207 56.353 42.2356 56.1743 42.4166C55.9956 42.5976 55.7831 42.7412 55.549 42.8393C55.315 42.9373 55.0639 42.9878 54.8104 42.9878H5.18946ZM4.25962 41.0401C4.26288 41.2873 4.36189 41.5235 4.53557 41.6983C4.70925 41.8731 4.94387 41.9727 5.18946 41.976H54.7979C55.0435 41.9727 55.2781 41.8731 55.4517 41.6983C55.6254 41.5235 55.7244 41.2873 55.7277 41.0401V4.45221C55.7277 4.38512 55.7012 4.32079 55.6541 4.27335C55.6069 4.22592 55.543 4.19925 55.4764 4.19925H13.9099C13.8432 4.19925 13.7793 4.22592 13.7322 4.27335C13.6851 4.32079 13.6586 4.38512 13.6586 4.45221V5.52721C13.6586 5.86263 13.5262 6.1843 13.2905 6.42148C13.0549 6.65866 12.7353 6.79192 12.402 6.79192H4.51094C4.44429 6.79192 4.38036 6.81855 4.33323 6.86598C4.2861 6.91342 4.25962 6.97775 4.25962 7.04484V41.0401Z" fill="#242424"/>
<path d="M3.757 39.6866C3.6237 39.6866 3.49587 39.6333 3.40161 39.5384C3.30735 39.4435 3.25439 39.3148 3.25439 39.1807C3.25439 39.0465 3.30735 38.9178 3.40161 38.823C3.49587 38.7281 3.6237 38.6748 3.757 38.6748H56.2806C56.4139 38.6748 56.5417 38.7281 56.636 38.823C56.7302 38.9178 56.7832 39.0465 56.7832 39.1807C56.7832 39.3148 56.7302 39.4435 56.636 39.5384C56.5417 39.6333 56.4139 39.6866 56.2806 39.6866H3.757Z" fill="#242424"/>
<path d="M55.7153 13.4057C55.7153 13.3382 55.7287 13.2713 55.7548 13.2091C55.7808 13.1469 55.8189 13.0906 55.867 13.0434C55.915 12.9963 55.9719 12.9593 56.0343 12.9346C56.0967 12.91 56.1635 12.8981 56.2305 12.8998H57.2483C57.7082 12.8998 58.1493 12.7159 58.4745 12.3886C58.7996 12.0613 58.9823 11.6174 58.9823 11.1545C58.9823 10.6916 58.7996 10.2477 58.4745 9.92041C58.1493 9.5931 57.7082 9.40921 57.2483 9.40921H56.2808C56.1475 9.40921 56.0196 9.35591 55.9254 9.26104C55.8311 9.16617 55.7782 9.0375 55.7782 8.90334C55.7782 8.76917 55.8311 8.6405 55.9254 8.54563C56.0196 8.45076 56.1475 8.39746 56.2808 8.39746H57.2986C58.0251 8.39746 58.7218 8.68791 59.2355 9.20496C59.7492 9.72201 60.0378 10.4233 60.0378 11.1545C60.0378 11.8857 59.7492 12.587 59.2355 13.1041C58.7218 13.6211 58.0251 13.9116 57.2986 13.9116H56.2808C56.2101 13.9186 56.1387 13.9107 56.0711 13.8886C56.0035 13.8665 55.9412 13.8306 55.8881 13.7831C55.835 13.7356 55.7923 13.6775 55.7625 13.6126C55.7328 13.5476 55.7167 13.4772 55.7153 13.4057Z" fill="#242424"/>
<path d="M2.73927 13.9117C2.01277 13.9117 1.31603 13.6213 0.802318 13.1042C0.288606 12.5872 0 11.8859 0 11.1547C0 10.4235 0.288606 9.72218 0.802318 9.20513C1.31603 8.68808 2.01277 8.39763 2.73927 8.39763H3.75707C3.82354 8.39589 3.88967 8.40779 3.95144 8.4326C4.0132 8.4574 4.06929 8.49461 4.11632 8.54194C4.16334 8.58926 4.2003 8.6457 4.22494 8.70786C4.24959 8.77002 4.26141 8.83659 4.25969 8.9035C4.25969 9.03767 4.20673 9.16634 4.11247 9.26121C4.01821 9.35608 3.89037 9.40938 3.75707 9.40938H2.73927C2.27937 9.40938 1.83832 9.59327 1.51312 9.92058C1.18793 10.2479 1.00524 10.6918 1.00524 11.1547C1.00524 11.6176 1.18793 12.0615 1.51312 12.3888C1.83832 12.7161 2.27937 12.9 2.73927 12.9H3.75707C3.82354 12.8982 3.88967 12.9101 3.95144 12.9349C4.0132 12.9598 4.06929 12.997 4.11632 13.0443C4.16334 13.0916 4.2003 13.148 4.22494 13.2102C4.24959 13.2724 4.26141 13.3389 4.25969 13.4059C4.25641 13.5378 4.20201 13.6633 4.1081 13.7554C4.01419 13.8476 3.88822 13.8991 3.75707 13.8991L2.73927 13.9117Z" fill="#242424"/>
<path d="M43.1499 12.103C42.8866 12.103 42.6341 11.9977 42.448 11.8103C42.2618 11.623 42.1572 11.3688 42.1572 11.1038V6.53827C42.1572 6.27329 42.2618 6.01915 42.448 5.83178C42.6341 5.6444 42.8866 5.53914 43.1499 5.53914H50.6263C50.7578 5.53747 50.8882 5.56209 51.0101 5.61155C51.132 5.66101 51.2429 5.73432 51.3364 5.82726C51.4299 5.9202 51.5042 6.03092 51.5548 6.15297C51.6055 6.27502 51.6316 6.40599 51.6316 6.53827V11.1038C51.6316 11.2361 51.6055 11.3671 51.5548 11.4891C51.5042 11.6112 51.4299 11.7219 51.3364 11.8149C51.2429 11.9078 51.132 11.9811 51.0101 12.0306C50.8882 12.08 50.7578 12.1046 50.6263 12.103H43.1499ZM50.6263 11.0912V6.55093H43.1625V11.0406L50.6263 11.0912Z" fill="#242424"/>
<path d="M45.399 10.358C45.2233 10.3397 45.0602 10.2578 44.94 10.1275C44.8198 9.99722 44.7508 9.82745 44.7456 9.64975V7.99299C44.7477 7.81643 44.8141 7.6468 44.9322 7.51625C45.0504 7.38571 45.212 7.30333 45.3864 7.28476C45.8869 7.22365 46.3902 7.1899 46.8943 7.1836C47.3944 7.18321 47.894 7.217 48.3896 7.28476C48.5651 7.30059 48.7283 7.38214 48.847 7.51328C48.9657 7.64442 49.0311 7.81561 49.0304 7.99299V9.64975C49.0311 9.82713 48.9657 9.99831 48.847 10.1295C48.7283 10.2606 48.5651 10.3421 48.3896 10.358C47.3972 10.4929 46.3913 10.4929 45.399 10.358ZM46.8943 9.44739C47.2336 9.44739 47.5854 9.44741 48.0252 9.38417V8.25857C47.5854 8.25857 47.2461 8.19535 46.8943 8.19535C46.5425 8.19535 46.2032 8.19533 45.7508 8.25857V9.38417C46.2283 9.42211 46.5425 9.44739 46.8943 9.44739Z" fill="#242424"/>
<path d="M15.1667 12.786C14.9334 12.786 14.7097 12.6927 14.5447 12.5267C14.3798 12.3607 14.2871 12.1355 14.2871 11.9007V8.51129C14.2871 8.27649 14.3798 8.05133 14.5447 7.8853C14.7097 7.71928 14.9334 7.62598 15.1667 7.62598H20.8337C21.066 7.62925 21.2878 7.72357 21.4521 7.88889C21.6163 8.05421 21.71 8.27751 21.7133 8.51129V11.9639C21.71 12.1977 21.6163 12.421 21.4521 12.5863C21.2878 12.7516 21.066 12.8459 20.8337 12.8492L15.1667 12.786ZM20.7081 11.7742V8.57451H15.2923V11.7742H20.7081Z" fill="#242424"/>
<path d="M18.5845 12.3054V8.09396C18.5845 8.02645 18.5979 7.95961 18.6239 7.89739C18.6499 7.83518 18.6881 7.77885 18.7361 7.7317C18.7841 7.68456 18.841 7.64753 18.9035 7.62286C18.9659 7.5982 19.0326 7.58636 19.0997 7.58805C19.1651 7.58803 19.2298 7.60122 19.2901 7.6268C19.3504 7.65237 19.405 7.6898 19.4507 7.73695C19.4964 7.7841 19.5322 7.83998 19.5561 7.90129C19.5799 7.9626 19.5914 8.02813 19.5897 8.09396V12.3054C19.5914 12.3712 19.5799 12.4367 19.5561 12.498C19.5322 12.5594 19.4964 12.6152 19.4507 12.6624C19.405 12.7095 19.3504 12.747 19.2901 12.7726C19.2298 12.7982 19.1651 12.8113 19.0997 12.8113C19.0326 12.813 18.9659 12.8011 18.9035 12.7765C18.841 12.7518 18.7841 12.7148 18.7361 12.6677C18.6881 12.6205 18.6499 12.5642 18.6239 12.502C18.5979 12.4398 18.5845 12.3729 18.5845 12.3054Z" fill="#242424"/>
<path d="M16.4229 12.3055V8.09408C16.442 7.97206 16.5037 7.86091 16.597 7.78064C16.6903 7.70038 16.809 7.65625 16.9318 7.65625C17.0545 7.65625 17.1732 7.70038 17.2665 7.78064C17.3598 7.86091 17.4215 7.97206 17.4406 8.09408V12.3055C17.4215 12.4276 17.3598 12.5387 17.2665 12.619C17.1732 12.6992 17.0545 12.7433 16.9318 12.7433C16.809 12.7433 16.6903 12.6992 16.597 12.619C16.5037 12.5387 16.442 12.4276 16.4229 12.3055Z" fill="#242424"/>
<path d="M16.8882 24.5737C16.8857 21.9642 17.6522 19.4126 19.0908 17.2417C20.5294 15.0708 22.5753 13.3782 24.9699 12.3779C27.3644 11.3775 29.9999 11.1145 32.543 11.622C35.0861 12.1296 37.4225 13.3849 39.2567 15.2292C41.0908 17.0734 42.3402 19.4238 42.847 21.9829C43.3537 24.542 43.0949 27.1949 42.1033 29.606C41.1117 32.0171 39.4319 34.078 37.2764 35.5279C35.1209 36.9779 32.5866 37.7519 29.9939 37.7519C26.5203 37.7519 23.1887 36.3639 20.7312 33.8928C18.2738 31.4218 16.8915 28.0699 16.8882 24.5737ZM17.906 24.5737C17.9085 26.9794 18.6195 29.3304 19.9493 31.3295C21.279 33.3286 23.1678 34.8861 25.3768 35.805C27.5858 36.7239 30.0159 36.963 32.3599 36.4921C34.7039 36.0213 36.8566 34.8615 38.5459 33.1595C40.2351 31.4575 41.3852 29.2896 41.8506 26.9299C42.316 24.5702 42.0758 22.1246 41.1606 19.9022C40.2453 17.6798 38.6959 15.7804 36.7083 14.4441C34.7208 13.1078 32.3842 12.3945 29.9939 12.3945C28.4055 12.3945 26.8326 12.7096 25.3652 13.3218C23.8978 13.934 22.5647 14.8314 21.442 15.9625C20.3194 17.0936 19.4293 18.4363 18.8225 19.9138C18.2158 21.3914 17.9043 22.9749 17.906 24.5737Z" fill="#242424"/>
<path d="M16.8882 24.5737C16.8857 21.9642 17.6522 19.4126 19.0908 17.2417C20.5294 15.0708 22.5753 13.3782 24.9699 12.3779C27.3644 11.3775 29.9999 11.1145 32.543 11.622C35.0861 12.1296 37.4225 13.3849 39.2567 15.2292C41.0908 17.0734 42.3402 19.4238 42.847 21.9829C43.3537 24.542 43.0949 27.1949 42.1033 29.606C41.1117 32.0171 39.4319 34.078 37.2764 35.5279C35.1209 36.9779 32.5866 37.7519 29.9939 37.7519C26.5203 37.7519 23.1887 36.3639 20.7312 33.8928C18.2738 31.4218 16.8915 28.0699 16.8882 24.5737ZM17.906 24.5737C17.9085 26.9794 18.6195 29.3304 19.9493 31.3295C21.279 33.3286 23.1678 34.8861 25.3768 35.805C27.5858 36.7239 30.0159 36.963 32.3599 36.4921C34.7039 36.0213 36.8566 34.8615 38.5459 33.1595C40.2351 31.4575 41.3852 29.2896 41.8506 26.9299C42.316 24.5702 42.0758 22.1246 41.1606 19.9022C40.2453 17.6798 38.6959 15.7804 36.7083 14.4441C34.7208 13.1078 32.3842 12.3945 29.9939 12.3945C28.4055 12.3945 26.8326 12.7096 25.3652 13.3218C23.8978 13.934 22.5647 14.8314 21.442 15.9625C20.3194 17.0936 19.4293 18.4363 18.8225 19.9138C18.2158 21.3914 17.9043 22.9749 17.906 24.5737Z" fill="#242424"/>
<path d="M19.1245 24.5735C19.122 22.4093 19.7574 20.2929 20.9502 18.4922C22.143 16.6916 23.8396 15.2874 25.8255 14.4575C27.8113 13.6275 29.9971 13.4091 32.1064 13.8298C34.2156 14.2504 36.1535 15.2913 37.6748 16.8208C39.1961 18.3502 40.2325 20.2995 40.653 22.4219C41.0734 24.5443 40.8589 26.7446 40.0366 28.7443C39.2143 30.744 37.8212 32.4533 36.0335 33.6559C34.2458 34.8586 32.1439 35.5005 29.9936 35.5005C27.1131 35.5005 24.3504 34.3497 22.3124 32.3008C20.2744 30.2519 19.1278 27.4727 19.1245 24.5735ZM20.1298 24.5735C20.1298 26.537 20.7083 28.4565 21.7921 30.0891C22.876 31.7218 24.4165 32.9942 26.2189 33.7457C28.0213 34.4971 30.0046 34.6937 31.918 34.3106C33.8314 33.9276 35.5889 32.982 36.9684 31.5936C38.3479 30.2051 39.2874 28.4361 39.668 26.5103C40.0486 24.5844 39.8532 22.5883 39.1067 20.7742C38.3601 18.9601 37.0958 17.4096 35.4737 16.3187C33.8516 15.2278 31.9445 14.6455 29.9936 14.6455C27.3786 14.6489 24.8716 15.6959 23.0225 17.557C21.1734 19.4182 20.1331 21.9414 20.1298 24.5735Z" fill="#242424"/>
<path d="M28.0337 24.5735C28.0337 24.1833 28.1487 23.8019 28.364 23.4774C28.5794 23.153 28.8856 22.9001 29.2438 22.7508C29.602 22.6014 29.9961 22.5624 30.3763 22.6385C30.7566 22.7146 31.1058 22.9025 31.38 23.1785C31.6541 23.4544 31.8408 23.8059 31.9164 24.1886C31.9921 24.5713 31.9533 24.968 31.8049 25.3285C31.6565 25.6891 31.4053 25.9972 31.0829 26.214C30.7606 26.4308 30.3816 26.5465 29.9939 26.5465C29.474 26.5465 28.9754 26.3386 28.6078 25.9686C28.2402 25.5986 28.0337 25.0968 28.0337 24.5735ZM29.0389 24.5735C29.0414 24.7631 29.0995 24.9476 29.2059 25.104C29.3124 25.2604 29.4624 25.3817 29.6371 25.4525C29.8118 25.5233 30.0034 25.5405 30.1878 25.502C30.3722 25.4635 30.5412 25.371 30.6735 25.2361C30.8058 25.1012 30.8955 24.9299 30.9313 24.7438C30.9672 24.5577 30.9476 24.3651 30.8749 24.1902C30.8023 24.0153 30.6799 23.8659 30.5231 23.7609C30.3664 23.6558 30.1822 23.5997 29.9939 23.5997C29.7395 23.603 29.4966 23.7071 29.3179 23.8893C29.1391 24.0716 29.0389 24.3174 29.0389 24.5735Z" fill="#242424"/>
<path d="M3.25439 13.9375C3.25439 13.8034 3.30735 13.6747 3.40161 13.5798C3.49587 13.485 3.6237 13.4317 3.757 13.4317H22.9821C25.079 12.0934 27.5108 11.3828 29.9937 11.3828C32.4766 11.3828 34.9083 12.0934 37.0052 13.4317H56.2806C56.4139 13.4317 56.5417 13.485 56.636 13.5798C56.7302 13.6747 56.7832 13.8034 56.7832 13.9375C56.7832 14.0717 56.7302 14.2004 56.636 14.2952C56.5417 14.3901 56.4139 14.4434 56.2806 14.4434H36.8544L36.5905 14.3675C34.6284 13.0794 32.3363 12.3936 29.9937 12.3936C27.651 12.3936 25.359 13.0794 23.3968 14.3675L23.1329 14.4434H3.757C3.691 14.4434 3.62565 14.4303 3.56467 14.4049C3.50369 14.3795 3.44828 14.3422 3.40161 14.2952C3.35494 14.2483 3.31791 14.1925 3.29265 14.1311C3.2674 14.0698 3.25439 14.004 3.25439 13.9375Z" fill="#242424"/>
<path d="M10.6177 6.27309V5.13482C10.6177 5.06774 10.5912 5.00341 10.5441 4.95597C10.497 4.90853 10.433 4.88191 10.3664 4.88191H7.1999C7.13424 4.88498 7.07207 4.91262 7.02559 4.95941C6.97911 5.00619 6.95165 5.06873 6.94859 5.13482V6.27309C6.95032 6.34 6.9385 6.40653 6.91386 6.46869C6.88921 6.53086 6.85224 6.58733 6.80522 6.63465C6.7582 6.68198 6.7021 6.71919 6.64034 6.744C6.57858 6.7688 6.51244 6.7807 6.44597 6.77896C6.31267 6.77896 6.18483 6.72567 6.09057 6.63079C5.99631 6.53592 5.94336 6.40726 5.94336 6.27309V5.13482C5.94336 4.7994 6.07574 4.47774 6.31139 4.24056C6.54704 4.00338 6.86665 3.87012 7.1999 3.87012H10.3664C10.6996 3.87012 11.0193 4.00338 11.2549 4.24056C11.4906 4.47774 11.6229 4.7994 11.6229 5.13482V6.27309C11.6229 6.40726 11.57 6.53592 11.4757 6.63079C11.3815 6.72567 11.2536 6.77896 11.1203 6.77896C10.987 6.77896 10.8592 6.72567 10.7649 6.63079C10.6707 6.53592 10.6177 6.40726 10.6177 6.27309Z" fill="#242424"/>
<path d="M54.7226 3.69296V1.01179H45.487V3.69296C45.4986 3.76697 45.4941 3.84263 45.4738 3.91473C45.4536 3.98683 45.4181 4.05365 45.3697 4.1106C45.3213 4.16756 45.2613 4.21329 45.1937 4.24465C45.1261 4.276 45.0525 4.29223 44.9781 4.29223C44.9036 4.29223 44.8301 4.276 44.7625 4.24465C44.6949 4.21329 44.6348 4.16756 44.5864 4.1106C44.5381 4.05365 44.5026 3.98683 44.4823 3.91473C44.4621 3.84263 44.4576 3.76697 44.4692 3.69296V1.01179C44.4692 0.743451 44.5751 0.486081 44.7636 0.296338C44.9521 0.106596 45.2078 0 45.4744 0H54.7226C54.8546 0 54.9853 0.0261912 55.1073 0.0770371C55.2292 0.127883 55.34 0.202387 55.4334 0.296338C55.5267 0.390289 55.6008 0.501842 55.6513 0.624595C55.7018 0.747348 55.7278 0.878921 55.7278 1.01179V3.69296C55.7278 3.82713 55.6748 3.95579 55.5806 4.05066C55.4863 4.14553 55.3585 4.19883 55.2252 4.19883C55.0919 4.19883 54.964 4.14553 54.8698 4.05066C54.7755 3.95579 54.7226 3.82713 54.7226 3.69296Z" fill="#242424"/>
<path d="M52.6743 3.70562V0.505913C52.6743 0.371745 52.7273 0.24304 52.8215 0.148169C52.9158 0.0532978 53.0436 0 53.1769 0C53.3102 0 53.4381 0.0532978 53.5323 0.148169C53.6266 0.24304 53.6795 0.371745 53.6795 0.505913V3.70562C53.6795 3.83979 53.6266 3.96845 53.5323 4.06332C53.4381 4.15819 53.3102 4.21149 53.1769 4.21149C53.0436 4.21149 52.9158 4.15819 52.8215 4.06332C52.7273 3.96845 52.6743 3.83979 52.6743 3.70562Z" fill="#242424"/>
<path d="M50.6261 3.70578V0.50608C50.6244 0.439172 50.6362 0.3726 50.6609 0.310438C50.6855 0.248275 50.7225 0.191803 50.7695 0.144476C50.8165 0.0971495 50.8726 0.0599417 50.9344 0.0351342C50.9962 0.0103267 51.0623 -0.00157229 51.1288 0.000166449C51.2621 0.000166449 51.3899 0.0534642 51.4842 0.148336C51.5784 0.243207 51.6314 0.371911 51.6314 0.50608V3.70578C51.6314 3.77163 51.6183 3.83681 51.5929 3.89749C51.5675 3.95817 51.5303 4.01312 51.4834 4.05909C51.4366 4.10506 51.3811 4.14112 51.3202 4.16515C51.2592 4.18918 51.1942 4.20069 51.1288 4.199C51.0633 4.20069 50.9983 4.18918 50.9374 4.16515C50.8764 4.14112 50.8209 4.10506 50.7741 4.05909C50.7272 4.01312 50.69 3.95817 50.6646 3.89749C50.6392 3.83681 50.6261 3.77163 50.6261 3.70578Z" fill="#242424"/>
<path d="M48.5778 3.70578V0.50608C48.5761 0.439172 48.5879 0.3726 48.6125 0.310438C48.6372 0.248275 48.6742 0.191803 48.7212 0.144476C48.7682 0.0971495 48.8243 0.0599417 48.8861 0.0351342C48.9478 0.0103267 49.014 -0.00157229 49.0804 0.000166449C49.1464 0.000166449 49.2118 0.013262 49.2728 0.038685C49.3338 0.064108 49.3892 0.10136 49.4358 0.148336C49.4825 0.195311 49.5195 0.251107 49.5448 0.312483C49.57 0.37386 49.583 0.439646 49.583 0.50608V3.70578C49.5831 3.77163 49.57 3.83681 49.5446 3.89749C49.5192 3.95817 49.4819 4.01312 49.4351 4.05909C49.3883 4.10506 49.3327 4.14112 49.2718 4.16515C49.2109 4.18918 49.1458 4.20069 49.0804 4.199C49.015 4.20069 48.9499 4.18918 48.889 4.16515C48.8281 4.14112 48.7726 4.10506 48.7258 4.05909C48.6789 4.01312 48.6417 3.95817 48.6163 3.89749C48.5909 3.83681 48.5778 3.77163 48.5778 3.70578Z" fill="#242424"/>
<path d="M46.5171 3.70578V0.506071C46.5171 0.43856 46.5305 0.371719 46.5565 0.309503C46.5826 0.247288 46.6207 0.190956 46.6687 0.143812C46.7167 0.0966669 46.7736 0.0596378 46.8361 0.0349715C46.8985 0.0103053 46.9652 -0.00152962 47.0323 0.000158159C47.0977 0.000136508 47.1625 0.0133338 47.2228 0.0389083C47.2831 0.0644828 47.3376 0.101912 47.3833 0.149061C47.429 0.19621 47.4648 0.252092 47.4887 0.313401C47.5126 0.374711 47.524 0.440242 47.5223 0.506071V3.70578C47.5241 3.77102 47.5126 3.83593 47.4885 3.89655C47.4645 3.95718 47.4285 4.01223 47.3827 4.05839C47.3368 4.10454 47.2821 4.14082 47.2218 4.16499C47.1616 4.18916 47.0971 4.20073 47.0323 4.19899C46.9663 4.20067 46.9006 4.18925 46.839 4.16537C46.7773 4.14149 46.721 4.10562 46.6731 4.05981C46.6253 4.01401 46.5869 3.95916 46.5601 3.89841C46.5333 3.83766 46.5187 3.77222 46.5171 3.70578Z" fill="#242424"/>
</g>
<defs>
<clipPath id="clip0_328_334">
<rect width="60" height="43" fill="white"/>
</clipPath>
</defs>
</svg>
