<svg width="60" height="60" viewBox="0 0 60 60" fill="none" xmlns="http://www.w3.org/2000/svg">
<path d="M10.0425 4.78027C10.0425 4.78027 10.8275 9.36027 14.0975 10.1778C15.1125 10.4403 16.2225 10.6353 17.3675 10.7653" stroke="black" stroke-miterlimit="10" stroke-linecap="round" stroke-linejoin="round"/>
<path d="M48.8326 45.5328L53.3776 45.5978C53.3776 45.5978 61.7176 45.7603 58.0551 49.7853C54.3276 53.9053 46.7401 54.2653 42.7476 54.8878C41.1126 55.1503 39.6726 55.2478 38.3976 55.2153C31.4976 55.0528 29.1751 51.2253 27.3101 48.1828C22.5676 40.5953 16.3526 36.7028 11.3826 35.7878C5.72508 34.7078 5.88758 37.2928 6.08508 38.8303L6.70758 54.1028L3.89508 54.3978L3.70008 50.8978C3.30758 43.3753 2.49008 35.8528 1.31258 28.4278C1.11758 27.6103 1.01758 26.7603 1.01758 25.9103C1.01758 19.0428 6.90508 11.7803 6.90508 11.7803C7.85258 7.49527 10.0451 4.78027 10.0451 4.78027C10.0451 4.78027 37.4851 6.41527 31.8276 9.13027C30.1276 9.94777 28.0001 10.5028 25.7126 10.7653" stroke="black" stroke-miterlimit="10" stroke-linecap="round" stroke-linejoin="round"/>
<path d="M42.6353 38.5381L48.7353 41.5706C48.7353 41.5706 50.5278 45.0906 45.3053 54.5381" stroke="black" stroke-miterlimit="10" stroke-linecap="round" stroke-linejoin="round"/>
<path d="M32.61 8.41016L33.035 13.7402C33.1 14.3627 32.7075 14.9502 32.12 15.1477C29.7975 15.9002 27.575 16.3577 25.48 16.5202" stroke="black" stroke-miterlimit="10" stroke-linecap="round" stroke-linejoin="round"/>
<path d="M17.1726 16.0655C11.9726 15.0505 8.70264 12.958 8.70264 12.958V15.933L14.5901 30.258C14.5901 30.258 24.2051 35.4905 27.5101 40.823C28.9826 43.243 31.9576 47.9855 37.4526 46.613C38.1401 46.4505 38.6951 45.9255 39.0226 45.273C39.9651 42.443 42.1776 35.7055 43.2751 39.713C44.2501 43.8955 40.5551 52.643 38.4026 55.2155" stroke="black" stroke-miterlimit="10" stroke-linecap="round" stroke-linejoin="round"/>
<path d="M14.7875 36.8152L7.02002 17.6377L8.70502 15.9502" stroke="black" stroke-miterlimit="10" stroke-linecap="round" stroke-linejoin="round"/>
<path d="M8.70508 12.9529C8.70508 12.9529 9.45508 7.83539 11.2101 7.83789" stroke="black" stroke-miterlimit="10" stroke-linecap="round" stroke-linejoin="round"/>
<path d="M24.6352 18.1976L17.8752 17.9276C17.4427 17.9101 17.1077 17.5476 17.1252 17.1151L17.4102 10.0251C17.4277 9.59257 17.7902 9.25757 18.2227 9.27507L24.9827 9.54757C25.4152 9.56507 25.7502 9.92757 25.7327 10.3601L25.4477 17.4501C25.4302 17.8801 25.0677 18.2151 24.6352 18.1976Z" stroke="black" stroke-miterlimit="10" stroke-linecap="round" stroke-linejoin="round"/>
<path d="M23.4302 14.1104L25.5802 14.1754" stroke="black" stroke-miterlimit="10" stroke-linecap="round" stroke-linejoin="round"/>
<path d="M20.4924 14.8705C20.8762 14.8705 21.1874 14.5593 21.1874 14.1755C21.1874 13.7916 20.8762 13.4805 20.4924 13.4805C20.1085 13.4805 19.7974 13.7916 19.7974 14.1755C19.7974 14.5593 20.1085 14.8705 20.4924 14.8705Z" fill="black"/>
</svg>
