<svg width="56" height="62" viewBox="0 0 56 62" fill="none" xmlns="http://www.w3.org/2000/svg">
<g clip-path="url(#clip0_328_373)">
<path d="M0.52504 61.9871C0.456702 61.9889 0.388716 61.9767 0.325083 61.9514C0.26145 61.9261 0.203459 61.8881 0.154529 61.8397C0.105599 61.7913 0.0667188 61.7335 0.0401795 61.6696C0.0136403 61.6057 -2.13405e-05 61.5371 2.50216e-08 61.4678C-2.13405e-05 61.3985 0.0136403 61.3299 0.0401795 61.266C0.0667188 61.2021 0.105599 61.1443 0.154529 61.0958C0.203459 61.0474 0.26145 61.0095 0.325083 60.9841C0.388716 60.9588 0.456702 60.9467 0.52504 60.9484H55.5006C55.6342 60.9518 55.7612 61.008 55.8545 61.105C55.9478 61.2021 56 61.3322 56 61.4678C56.0017 61.5354 55.9901 61.6026 55.9657 61.6655C55.9414 61.7285 55.9049 61.7859 55.8583 61.8343C55.8118 61.8827 55.7561 61.9211 55.6947 61.9474C55.6333 61.9736 55.5672 61.9872 55.5006 61.9871H0.52504Z" fill="#242424"/>
<path d="M2.99641 59.2346C2.65677 59.2346 2.33105 59.0978 2.09089 58.8543C1.85074 58.6108 1.71582 58.2805 1.71582 57.9361V46.2503C1.7323 45.2396 2.1356 44.275 2.84052 43.5603C3.54544 42.8455 4.49678 42.4366 5.49355 42.4199H50.5958C51.5925 42.4366 52.5439 42.8455 53.2488 43.5603C53.9537 44.275 54.357 45.2396 54.3735 46.2503V57.9361C54.3735 58.2805 54.2386 58.6108 53.9984 58.8543C53.7583 59.0978 53.4325 59.2346 53.0929 59.2346H2.99641ZM2.68907 57.9361C2.68907 58.0188 2.72144 58.098 2.77908 58.1565C2.83672 58.2149 2.91489 58.2478 2.99641 58.2478H53.0673C53.1488 58.2478 53.227 58.2149 53.2846 58.1565C53.3423 58.098 53.3746 58.0188 53.3746 57.9361V46.2503C53.3746 45.5087 53.085 44.7973 52.569 44.2717C52.053 43.7461 51.3528 43.4491 50.6214 43.4457H5.41671C4.68533 43.4491 3.98505 43.7461 3.46908 44.2717C2.95311 44.7973 2.66345 45.5087 2.66345 46.2503L2.68907 57.9361Z" fill="#242424"/>
<path d="M8.9512 43.4069C8.81862 43.4046 8.6913 43.3539 8.59264 43.2641C8.50035 43.1653 8.44586 43.0364 8.43896 42.9005V30.3577C8.45576 29.3359 8.86792 28.3617 9.58658 27.6452C10.3052 26.9287 11.2728 26.5272 12.2807 26.5273H43.7831C44.791 26.5272 45.7586 26.9287 46.4773 27.6452C47.1959 28.3617 47.6081 29.3359 47.6249 30.3577V42.8746C47.618 43.0105 47.5635 43.1394 47.4712 43.2381C47.3725 43.328 47.2452 43.3787 47.1126 43.3809L8.9512 43.4069ZM9.46343 42.3682H46.5364V30.3577C46.5297 29.6172 46.2357 28.9091 45.718 28.3867C45.2004 27.8643 44.5007 27.5695 43.7703 27.5661H12.2295C11.4991 27.5695 10.7994 27.8643 10.2818 28.3867C9.76414 28.9091 9.47016 29.6172 9.46343 30.3577V42.3682Z" fill="#242424"/>
<path d="M14.3936 27.5924C14.3266 27.5921 14.2603 27.5782 14.1987 27.5514C14.1371 27.5247 14.0814 27.4856 14.035 27.4366C13.9385 27.3407 13.8833 27.21 13.8813 27.073V14.5691C13.8813 14.0576 13.9807 13.5511 14.1738 13.0785C14.3668 12.6059 14.6498 12.1764 15.0066 11.8147C15.3633 11.453 15.7868 11.1661 16.2529 10.9703C16.719 10.7746 17.2186 10.6738 17.7231 10.6738H38.3405C39.3594 10.6738 40.3366 11.0842 41.0571 11.8147C41.7775 12.5452 42.1823 13.536 42.1823 14.5691V27.073C42.1804 27.21 42.1251 27.3407 42.0286 27.4366C41.9822 27.4856 41.9266 27.5247 41.865 27.5514C41.8034 27.5782 41.7371 27.5921 41.6701 27.5924H14.3936ZM38.3405 11.7775H17.6591C16.9289 11.7775 16.2286 12.0716 15.7122 12.5951C15.1959 13.1187 14.9058 13.8287 14.9058 14.5691V26.5536H41.1066V14.5691C41.1032 13.8275 40.8103 13.1175 40.2919 12.5943C39.7735 12.0712 39.0719 11.7775 38.3405 11.7775Z" fill="#242424"/>
<path d="M38.3537 10.7383C39.3726 10.7383 40.3497 11.1487 41.0702 11.8792C41.7907 12.6097 42.1954 13.6005 42.1954 14.6336V15.1789C42.1935 15.3159 42.1383 15.4466 42.0417 15.5425C41.9954 15.5915 41.9397 15.6306 41.8781 15.6573C41.8165 15.6841 41.7502 15.698 41.6832 15.6983C40.9601 15.687 40.2581 15.9458 39.7111 16.4254C38.9893 17.0268 38.0841 17.3556 37.1499 17.3556C36.2157 17.3556 35.3105 17.0268 34.5887 16.4254C34.0357 15.9563 33.3377 15.6993 32.6166 15.6993C31.8956 15.6993 31.1975 15.9563 30.6445 16.4254C29.9228 17.0268 29.0176 17.3556 28.0834 17.3556C27.1492 17.3556 26.2439 17.0268 25.5222 16.4254C24.9723 15.9549 24.276 15.6968 23.5565 15.6968C22.837 15.6968 22.1407 15.9549 21.5908 16.4254C20.8691 17.0268 19.9638 17.3556 19.0296 17.3556C18.0954 17.3556 17.1902 17.0268 16.4685 16.4254C15.9214 15.9458 15.2195 15.687 14.4964 15.6983C14.4293 15.698 14.3631 15.6841 14.3015 15.6573C14.2398 15.6306 14.1842 15.5915 14.1378 15.5425C14.0875 15.4969 14.0477 15.4408 14.0212 15.378C13.9946 15.3152 13.982 15.2472 13.9841 15.1789V14.6336C13.9841 13.6005 14.3889 12.6097 15.1093 11.8792C15.8298 11.1487 16.807 10.7383 17.8259 10.7383H38.3537ZM38.3537 11.777H17.6594C16.9292 11.777 16.2289 12.0711 15.7126 12.5947C15.1962 13.1182 14.9061 13.8283 14.9061 14.5686C15.6612 14.7033 16.3705 15.0293 16.9679 15.5165C17.5143 15.9945 18.2119 16.2574 18.9336 16.2574C19.6552 16.2574 20.3529 15.9945 20.8993 15.5165C21.6251 14.9243 22.5288 14.6013 23.4605 14.6013C24.3921 14.6013 25.2958 14.9243 26.0216 15.5165C26.5642 16.0052 27.2681 16.2693 27.9937 16.2566C28.7185 16.2643 29.4207 16.0009 29.9658 15.5165C30.6896 14.9197 31.5941 14.5939 32.527 14.5939C33.4599 14.5939 34.3644 14.9197 35.0882 15.5165C35.6333 16.0009 36.3355 16.2643 37.0603 16.2566C37.7859 16.2693 38.4898 16.0052 39.0324 15.5165C39.6212 15.0326 40.3301 14.7226 41.0813 14.6206C41.0881 14.2518 41.0227 13.8853 40.889 13.5423C40.7553 13.1993 40.5559 12.8866 40.3022 12.6222C40.0486 12.3578 39.7458 12.1469 39.4114 12.0019C39.0769 11.8568 38.7174 11.7804 38.3537 11.777Z" fill="#242424"/>
<path d="M43.7959 26.5533C44.8038 26.5532 45.7714 26.9546 46.49 27.6712C47.2087 28.3877 47.6208 29.3619 47.6376 30.3837V30.942C47.6307 31.0779 47.5762 31.2068 47.484 31.3056C47.4376 31.3546 47.3819 31.3937 47.3203 31.4204C47.2587 31.4472 47.1924 31.4611 47.1254 31.4614C46.3631 31.4477 45.6201 31.705 45.0252 32.1885C44.2683 32.7972 43.3276 33.1228 42.3616 33.1104C41.3905 33.1302 40.4434 32.8039 39.6852 32.1885C39.0953 31.7049 38.3563 31.4475 37.5978 31.4614C36.8355 31.4477 36.0925 31.705 35.4977 32.1885C34.7321 32.7855 33.7934 33.1091 32.8276 33.1091C31.8619 33.1091 30.9232 32.7855 30.1576 32.1885C29.5678 31.7049 28.8287 31.4475 28.0703 31.4614C27.308 31.4477 26.565 31.705 25.9701 32.1885C25.2169 32.804 24.2737 33.1304 23.3065 33.1104C22.3359 33.1269 21.3899 32.801 20.6301 32.1885C20.0337 31.7168 19.2991 31.4606 18.5427 31.4606C17.7864 31.4606 17.0517 31.7168 16.4554 32.1885C15.6956 32.801 14.7495 33.1269 13.7789 33.1104C12.8117 33.1304 11.8686 32.804 11.1153 32.1885C10.5205 31.705 9.77747 31.4477 9.01517 31.4614C8.88034 31.4581 8.75193 31.4023 8.65656 31.3056C8.56119 31.2089 8.50618 31.0787 8.50293 30.942V30.3577C8.51941 29.347 8.92271 28.3825 9.62763 27.6677C10.3326 26.953 11.2839 26.5441 12.2807 26.5273L43.7959 26.5533ZM43.7959 27.592H12.2166C11.4908 27.592 10.7944 27.8826 10.2788 28.4005C9.76317 28.9184 9.47012 29.6218 9.46337 30.3577C10.2496 30.4921 10.9921 30.8173 11.6276 31.3056C12.2129 31.7989 12.954 32.0616 13.7149 32.0456C14.4797 32.0613 15.2247 31.7987 15.8151 31.3056C16.5732 30.7005 17.5141 30.3795 18.4787 30.3967C19.4467 30.3828 20.3906 30.7033 21.1551 31.3056C21.7486 31.7838 22.4844 32.0441 23.2425 32.0441C24.0006 32.0441 24.7363 31.7838 25.3298 31.3056C26.0988 30.7168 27.0362 30.3982 27.9998 30.3982C28.9635 30.3982 29.9008 30.7168 30.6699 31.3056C31.2602 31.7987 32.0052 32.0613 32.77 32.0456C33.531 32.0616 34.2721 31.7989 34.8574 31.3056C35.6264 30.7168 36.5638 30.3982 37.5274 30.3982C38.491 30.3982 39.4284 30.7168 40.1974 31.3056C40.7878 31.7987 41.5328 32.0613 42.2976 32.0456C43.0585 32.0616 43.7996 31.7989 44.3849 31.3056C45.009 30.8152 45.7525 30.5056 46.5363 30.4097C46.5397 30.042 46.4714 29.6772 46.3353 29.3364C46.1993 28.9955 45.9982 28.6853 45.7435 28.4235C45.4889 28.1616 45.1857 27.9534 44.8515 27.8107C44.5173 27.6681 44.1585 27.5937 43.7959 27.592Z" fill="#242424"/>
<path d="M50.5959 42.3809C51.5927 42.3976 52.544 42.8065 53.249 43.5212C53.9539 44.236 54.3572 45.2005 54.3737 46.2112V46.7566C54.3758 46.8249 54.3632 46.8928 54.3366 46.9556C54.3101 47.0185 54.2703 47.0746 54.22 47.1201C54.1741 47.1698 54.1185 47.2092 54.0568 47.2361C53.9951 47.2629 53.9286 47.2764 53.8614 47.2759C53.027 47.2538 52.2099 47.5193 51.5436 48.029C50.7103 48.6302 49.7106 48.9484 48.6879 48.9379C47.6644 48.9539 46.663 48.6352 45.8322 48.029C45.1581 47.5395 44.3498 47.2763 43.5207 47.2763C42.6916 47.2763 41.8833 47.5395 41.2093 48.029C40.3688 48.6204 39.3702 48.9374 38.3471 48.9374C37.3241 48.9374 36.3255 48.6204 35.485 48.029C34.811 47.5395 34.0027 47.2763 33.1736 47.2763C32.3445 47.2763 31.5362 47.5395 30.8621 48.029C30.0217 48.6204 29.023 48.9374 28 48.9374C26.977 48.9374 25.9784 48.6204 25.1379 48.029C24.4638 47.5395 23.6555 47.2763 22.8264 47.2763C21.9973 47.2763 21.1891 47.5395 20.515 48.029C19.6862 48.6394 18.6834 48.9586 17.6593 48.9379C16.6358 48.9539 15.6345 48.6352 14.8036 48.029C14.1295 47.5395 13.3212 47.2763 12.4921 47.2763C11.663 47.2763 10.8547 47.5395 10.1807 48.029C9.34979 48.6352 8.34845 48.9539 7.32496 48.9379C6.3008 48.9586 5.29803 48.6394 4.46925 48.029C3.80154 47.522 2.98537 47.2568 2.15139 47.2759C2.01656 47.2726 1.88815 47.2169 1.79279 47.1202C1.69742 47.0235 1.64241 46.8933 1.63916 46.7566V46.2112C1.65564 45.2005 2.05894 44.236 2.76386 43.5212C3.46878 42.8065 4.42011 42.3976 5.41689 42.3809H50.5959ZM50.5959 43.4066H5.41689C4.6855 43.41 3.98523 43.7071 3.46926 44.2327C2.95329 44.7582 2.66362 45.4696 2.66363 46.2112C3.50828 46.3244 4.3128 46.6454 5.0071 47.1461C5.67481 47.6531 6.49098 47.9183 7.32496 47.8992C8.15501 47.9184 8.96717 47.653 9.63001 47.1461C10.4705 46.5547 11.4691 46.2378 12.4921 46.2378C13.5152 46.2378 14.5138 46.5547 15.3542 47.1461C16.0283 47.6356 16.8366 47.8987 17.6657 47.8987C18.4948 47.8987 19.3031 47.6356 19.9771 47.1461C20.8149 46.554 21.8116 46.2366 22.8329 46.2366C23.8541 46.2366 24.8507 46.554 25.6886 47.1461C26.3626 47.6356 27.1709 47.8987 28 47.8987C28.8291 47.8987 29.6374 47.6356 30.3115 47.1461C31.1519 46.5547 32.1505 46.2378 33.1736 46.2378C34.1966 46.2378 35.1952 46.5547 36.0357 47.1461C36.7097 47.6356 37.518 47.8987 38.3471 47.8987C39.1762 47.8987 39.9845 47.6356 40.6586 47.1461C41.4895 46.5399 42.4908 46.2212 43.5143 46.2372C44.5385 46.2165 45.5412 46.5357 46.37 47.1461C47.046 47.6366 47.8565 47.9004 48.6879 47.9004C49.5192 47.9004 50.3297 47.6366 51.0057 47.1461C51.6939 46.6426 52.5037 46.3375 53.3492 46.2632C53.3543 45.892 53.287 45.5236 53.1512 45.1789C53.0154 44.8343 52.8138 44.5202 52.558 44.2548C52.3022 43.9893 51.9971 43.7778 51.6604 43.6322C51.3237 43.4867 50.962 43.41 50.5959 43.4066Z" fill="#242424"/>
<path d="M18.2227 21.9312C18.2202 21.5814 18.3201 21.2387 18.51 20.9466C18.6998 20.6545 18.9709 20.4262 19.2889 20.2905C19.6069 20.1549 19.9575 20.118 20.2962 20.1847C20.6348 20.2514 20.9463 20.4185 21.1912 20.665C21.436 20.9114 21.6032 21.226 21.6714 21.5689C21.7397 21.9118 21.7059 22.2675 21.5745 22.5909C21.4431 22.9144 21.2199 23.1909 20.9332 23.3855C20.6465 23.5802 20.3093 23.6841 19.9643 23.6841C19.5046 23.6841 19.0636 23.4998 18.7373 23.1715C18.4111 22.8431 18.2261 22.3973 18.2227 21.9312ZM19.2472 21.9312C19.2472 22.075 19.2892 22.2156 19.368 22.3352C19.4468 22.4547 19.5588 22.5479 19.6899 22.603C19.8209 22.658 19.9651 22.6724 20.1042 22.6443C20.2433 22.6163 20.3711 22.547 20.4714 22.4453C20.5717 22.3437 20.64 22.2141 20.6676 22.0731C20.6953 21.932 20.6811 21.7858 20.6268 21.6529C20.5726 21.5201 20.4806 21.4065 20.3627 21.3266C20.2448 21.2467 20.1061 21.2041 19.9643 21.2041C19.7741 21.2041 19.5917 21.2807 19.4572 21.417C19.3227 21.5534 19.2472 21.7383 19.2472 21.9312Z" fill="#242424"/>
<path d="M26.2647 21.9312C26.2622 21.5814 26.3621 21.2387 26.552 20.9466C26.7418 20.6545 27.0129 20.4262 27.3309 20.2905C27.6489 20.1549 27.9995 20.118 28.3381 20.1847C28.6768 20.2514 28.9883 20.4185 29.2332 20.665C29.478 20.9114 29.6452 21.226 29.7134 21.5689C29.7817 21.9118 29.7479 22.2675 29.6165 22.5909C29.4851 22.9144 29.2619 23.1909 28.9752 23.3855C28.6885 23.5802 28.3513 23.6841 28.0063 23.6841C27.5466 23.6841 27.1056 23.4998 26.7793 23.1715C26.4531 22.8431 26.2681 22.3973 26.2647 21.9312ZM27.2892 21.9312C27.2892 22.075 27.3312 22.2156 27.41 22.3352C27.4888 22.4547 27.6008 22.5479 27.7319 22.603C27.8629 22.658 28.0071 22.6724 28.1462 22.6443C28.2853 22.6163 28.4131 22.547 28.5134 22.4453C28.6137 22.3437 28.682 22.2141 28.7096 22.0731C28.7373 21.932 28.7231 21.7858 28.6688 21.6529C28.6146 21.5201 28.5226 21.4065 28.4047 21.3266C28.2868 21.2467 28.1481 21.2041 28.0063 21.2041C27.8228 21.2141 27.6502 21.2951 27.5239 21.4304C27.3976 21.5656 27.3273 21.7449 27.3276 21.9312H27.2892Z" fill="#242424"/>
<path d="M34.3199 21.9311C34.3173 21.5808 34.4177 21.2376 34.608 20.9452C34.7984 20.6529 35.0703 20.4245 35.3891 20.2892C35.7078 20.154 36.059 20.1179 36.3981 20.1856C36.7371 20.2534 37.0486 20.4218 37.2929 20.6696C37.5372 20.9173 37.7034 21.2331 37.7702 21.5769C37.837 21.9206 37.8014 22.2768 37.668 22.6C37.5346 22.9231 37.3094 23.1988 37.021 23.3918C36.7327 23.5849 36.3942 23.6866 36.0487 23.684C35.5902 23.684 35.1504 23.4994 34.8262 23.1706C34.502 22.8419 34.3199 22.396 34.3199 21.9311ZM35.3443 21.9311C35.3444 22.0755 35.3868 22.2166 35.4661 22.3364C35.5455 22.4563 35.6583 22.5494 35.7901 22.6041C35.9219 22.6587 36.0667 22.6723 36.2061 22.6432C36.3456 22.6141 36.4733 22.5435 36.5731 22.4405C36.6729 22.3376 36.7401 22.2068 36.7663 22.0649C36.7925 21.923 36.7765 21.7764 36.7203 21.6438C36.664 21.5112 36.5701 21.3985 36.4505 21.3202C36.3309 21.2419 36.191 21.2015 36.0487 21.204C35.9551 21.204 35.8624 21.2229 35.7761 21.2596C35.6898 21.2963 35.6116 21.3501 35.546 21.4178C35.4805 21.4855 35.4289 21.5657 35.3942 21.6539C35.3596 21.742 35.3426 21.8363 35.3443 21.9311Z" fill="#242424"/>
<path d="M14.2017 37.7453C14.2017 37.3955 14.3042 37.0536 14.4961 36.7629C14.6881 36.4723 14.9608 36.2459 15.2798 36.1127C15.5988 35.9794 15.9496 35.9452 16.2878 36.0144C16.626 36.0836 16.9363 36.2531 17.1793 36.5013C17.4224 36.7496 17.5872 37.0654 17.653 37.4088C17.7187 37.7522 17.6824 38.1077 17.5486 38.4301C17.4148 38.7526 17.1896 39.0275 16.9015 39.2199C16.6135 39.4124 16.2755 39.5137 15.9305 39.5112C15.7024 39.5112 15.4765 39.4654 15.2659 39.3765C15.0554 39.2876 14.8642 39.1573 14.7035 38.9932C14.5428 38.829 14.4157 38.6343 14.3296 38.4201C14.2435 38.2059 14.2 37.9766 14.2017 37.7453ZM15.2262 37.7453C15.2262 37.8897 15.2686 38.0308 15.348 38.1506C15.4274 38.2704 15.5401 38.3636 15.6719 38.4182C15.8037 38.4729 15.9485 38.4865 16.088 38.4574C16.2274 38.4283 16.3552 38.3577 16.4549 38.2547C16.5547 38.1517 16.622 38.0209 16.6482 37.8791C16.6744 37.7372 16.6583 37.5906 16.6021 37.458C16.5459 37.3253 16.4519 37.2127 16.3323 37.1344C16.2127 37.0561 16.0728 37.0156 15.9305 37.0182C15.8369 37.0182 15.7443 37.0371 15.658 37.0738C15.5717 37.1105 15.4935 37.1642 15.4279 37.2319C15.3623 37.2996 15.3107 37.3799 15.2761 37.468C15.2414 37.5562 15.2245 37.6505 15.2262 37.7453Z" fill="#242424"/>
<path d="M22.2056 37.7453C22.2056 37.3961 22.3077 37.0547 22.4991 36.7643C22.6904 36.4739 22.9624 36.2476 23.2807 36.1139C23.5989 35.9803 23.9491 35.9453 24.2869 36.0134C24.6248 36.0816 24.9351 36.2497 25.1787 36.4967C25.4222 36.7436 25.5881 37.0583 25.6553 37.4009C25.7225 37.7434 25.688 38.0984 25.5562 38.4211C25.4244 38.7438 25.2011 39.0196 24.9147 39.2136C24.6283 39.4076 24.2916 39.5112 23.9472 39.5112C23.4853 39.5112 23.0423 39.3252 22.7157 38.994C22.3891 38.6628 22.2056 38.2137 22.2056 37.7453ZM23.23 37.7453C23.23 37.8892 23.2721 38.0298 23.3509 38.1493C23.4297 38.2689 23.5417 38.3621 23.6727 38.4171C23.8038 38.4721 23.948 38.4865 24.0871 38.4585C24.2262 38.4304 24.354 38.3612 24.4543 38.2595C24.5545 38.1578 24.6228 38.0283 24.6505 37.8872C24.6782 37.7462 24.664 37.6 24.6097 37.4671C24.5554 37.3342 24.4635 37.2206 24.3456 37.1408C24.2276 37.0609 24.089 37.0182 23.9472 37.0182C23.7637 37.0282 23.591 37.1092 23.4647 37.2445C23.3384 37.3798 23.2682 37.5591 23.2685 37.7453H23.23Z" fill="#242424"/>
<path d="M30.2856 37.7453C30.2856 37.3961 30.3878 37.0547 30.5792 36.7643C30.7705 36.4739 31.0425 36.2476 31.3608 36.1139C31.679 35.9803 32.0292 35.9453 32.367 36.0134C32.7048 36.0816 33.0152 36.2497 33.2587 36.4967C33.5023 36.7436 33.6682 37.0583 33.7354 37.4009C33.8026 37.7434 33.7681 38.0984 33.6363 38.4211C33.5044 38.7438 33.2812 39.0196 32.9948 39.2136C32.7084 39.4076 32.3717 39.5112 32.0272 39.5112C31.5664 39.5078 31.1253 39.3207 30.7994 38.9902C30.4736 38.6598 30.289 38.2126 30.2856 37.7453ZM31.3101 37.7453C31.3101 37.8892 31.3522 38.0298 31.431 38.1493C31.5098 38.2689 31.6218 38.3621 31.7528 38.4171C31.8838 38.4721 32.028 38.4865 32.1671 38.4585C32.3063 38.4304 32.434 38.3612 32.5343 38.2595C32.6346 38.1578 32.7029 38.0283 32.7306 37.8872C32.7583 37.7462 32.7441 37.6 32.6898 37.4671C32.6355 37.3342 32.5436 37.2206 32.4257 37.1408C32.3077 37.0609 32.1691 37.0182 32.0272 37.0182C31.837 37.0182 31.6546 37.0948 31.5202 37.2312C31.3857 37.3675 31.3101 37.5525 31.3101 37.7453Z" fill="#242424"/>
<path d="M38.3408 37.7456C38.341 37.3986 38.4419 37.0593 38.6311 36.7701C38.8203 36.481 39.0894 36.2547 39.4046 36.1197C39.7199 35.9846 40.0674 35.9468 40.4038 36.0108C40.7401 36.0748 41.0505 36.2379 41.2959 36.4797C41.5414 36.7215 41.7112 37.0313 41.7841 37.3703C41.8569 37.7094 41.8297 38.0627 41.7057 38.3861C41.5817 38.7095 41.3665 38.9888 41.0869 39.1889C40.8073 39.389 40.4757 39.5012 40.1336 39.5114C39.9007 39.5184 39.6687 39.4779 39.4514 39.3922C39.2342 39.3066 39.0361 39.1776 38.8689 39.0129C38.7017 38.8483 38.5688 38.6512 38.4781 38.4335C38.3874 38.2158 38.3407 37.9819 38.3408 37.7456ZM39.3653 37.7456C39.3653 37.8899 39.4077 38.031 39.4871 38.1509C39.5665 38.2707 39.6792 38.3639 39.811 38.4185C39.9428 38.4731 40.0877 38.4868 40.2271 38.4576C40.3665 38.4285 40.4943 38.3579 40.5941 38.2549C40.6938 38.152 40.7611 38.0212 40.7873 37.8793C40.8135 37.7374 40.7975 37.5908 40.7412 37.4582C40.685 37.3256 40.5911 37.2129 40.4715 37.1346C40.3519 37.0563 40.212 37.0159 40.0696 37.0185C39.8816 37.0219 39.7025 37.1 39.5708 37.236C39.4391 37.3719 39.3653 37.555 39.3653 37.7456Z" fill="#242424"/>
<path d="M6.14697 53.5608C6.14697 53.0924 6.33046 52.6433 6.65708 52.3121C6.98369 51.9809 7.42667 51.7949 7.88857 51.7949C8.35047 51.7949 8.79345 51.9809 9.12007 52.3121C9.44668 52.6433 9.63017 53.0924 9.63017 53.5608C9.63017 54.0291 9.44668 54.4783 9.12007 54.8094C8.79345 55.1406 8.35047 55.3267 7.88857 55.3267C7.42667 55.3267 6.98369 55.1406 6.65708 54.8094C6.33046 54.4783 6.14697 54.0291 6.14697 53.5608ZM7.17144 53.5608C7.1689 53.7051 7.20879 53.847 7.28603 53.9682C7.36326 54.0895 7.47435 54.1847 7.60515 54.2417C7.73594 54.2988 7.88052 54.315 8.02046 54.2884C8.1604 54.2619 8.28938 54.1937 8.39095 54.0925C8.49253 53.9914 8.56211 53.8618 8.59084 53.7205C8.61956 53.5791 8.60613 53.4322 8.55225 53.2986C8.49837 53.1649 8.40648 53.0506 8.28828 52.9702C8.17009 52.8897 8.03094 52.8467 7.88857 52.8466C7.70057 52.8466 7.52008 52.9214 7.38596 53.055C7.25183 53.1886 7.1748 53.3702 7.17144 53.5608Z" fill="#242424"/>
<path d="M14.2017 53.5608C14.2391 53.1203 14.4381 52.71 14.7593 52.4111C15.0806 52.1121 15.5008 51.9463 15.9369 51.9463C16.373 51.9463 16.7932 52.1121 17.1145 52.4111C17.4358 52.71 17.6347 53.1203 17.6721 53.5608C17.6928 53.8046 17.6633 54.05 17.5854 54.2816C17.5076 54.5132 17.3832 54.7259 17.2201 54.9061C17.0569 55.0864 16.8586 55.2303 16.6377 55.3287C16.4168 55.4272 16.1782 55.478 15.9369 55.478C15.6956 55.478 15.457 55.4272 15.2361 55.3287C15.0152 55.2303 14.8169 55.0864 14.6537 54.9061C14.4906 54.7259 14.3662 54.5132 14.2884 54.2816C14.2106 54.05 14.181 53.8046 14.2017 53.5608ZM15.2262 53.5608C15.2237 53.7057 15.2639 53.8481 15.3417 53.9696C15.4195 54.0912 15.5314 54.1864 15.6629 54.243C15.7945 54.2996 15.9397 54.3151 16.08 54.2875C16.2203 54.2598 16.3492 54.1903 16.4503 54.0879C16.5513 53.9854 16.6199 53.8547 16.6472 53.7124C16.6744 53.5702 16.6591 53.4229 16.6033 53.2895C16.5474 53.1562 16.4535 53.0427 16.3337 52.9638C16.2138 52.8849 16.0734 52.8442 15.9305 52.8467C15.7447 52.8501 15.5675 52.9263 15.4361 53.0596C15.3047 53.1928 15.2295 53.3725 15.2262 53.5608Z" fill="#242424"/>
<path d="M22.2051 53.5608C22.2051 53.2115 22.3073 52.8701 22.4986 52.5797C22.69 52.2893 22.962 52.063 23.2802 51.9293C23.5985 51.7957 23.9487 51.7607 24.2865 51.8289C24.6243 51.897 24.9347 52.0652 25.1782 52.3121C25.4218 52.5591 25.5877 52.8737 25.6549 53.2163C25.7221 53.5588 25.6876 53.9139 25.5557 54.2365C25.4239 54.5592 25.2007 54.835 24.9143 55.029C24.6279 55.2231 24.2912 55.3267 23.9467 55.3267C23.7175 55.3284 23.4903 55.2839 23.2782 55.1957C23.0662 55.1076 22.8735 54.9776 22.7114 54.8133C22.5494 54.649 22.4211 54.4536 22.3342 54.2386C22.2473 54.0236 22.2034 53.7932 22.2051 53.5608ZM23.2296 53.5608C23.2271 53.7051 23.2669 53.847 23.3442 53.9682C23.4214 54.0895 23.5325 54.1847 23.6633 54.2417C23.7941 54.2988 23.9387 54.315 24.0786 54.2885C24.2186 54.2619 24.3475 54.1937 24.4491 54.0925C24.5507 53.9914 24.6203 53.8619 24.649 53.7205C24.6777 53.5791 24.6643 53.4322 24.6104 53.2986C24.5565 53.165 24.4646 53.0507 24.3464 52.9702C24.2282 52.8897 24.0891 52.8467 23.9467 52.8467C23.7655 52.8565 23.5946 52.9357 23.4687 53.0682C23.3427 53.2007 23.271 53.3767 23.268 53.5608H23.2296Z" fill="#242424"/>
<path d="M30.2856 53.5608C30.2856 53.2115 30.3878 52.8701 30.5792 52.5797C30.7705 52.2893 31.0425 52.063 31.3608 51.9293C31.679 51.7957 32.0292 51.7607 32.367 51.8289C32.7048 51.897 33.0152 52.0652 33.2587 52.3121C33.5023 52.5591 33.6682 52.8737 33.7354 53.2163C33.8026 53.5588 33.7681 53.9139 33.6363 54.2365C33.5044 54.5592 33.2812 54.835 32.9948 55.029C32.7084 55.2231 32.3717 55.3267 32.0272 55.3267C31.5653 55.3267 31.1224 55.1406 30.7957 54.8094C30.4691 54.4783 30.2856 54.0291 30.2856 53.5608ZM31.3101 53.5608C31.3134 53.7526 31.39 53.9356 31.5238 54.0712C31.6576 54.2069 31.8381 54.2846 32.0272 54.2879C32.1691 54.2879 32.3077 54.2453 32.4257 54.1654C32.5436 54.0855 32.6355 53.9719 32.6898 53.839C32.7441 53.7062 32.7583 53.56 32.7306 53.4189C32.7029 53.2779 32.6346 53.1483 32.5343 53.0466C32.434 52.945 32.3063 52.8757 32.1671 52.8476C32.028 52.8196 31.8838 52.834 31.7528 52.889C31.6218 52.9441 31.5098 53.0372 31.431 53.1568C31.3522 53.2764 31.3101 53.417 31.3101 53.5608Z" fill="#242424"/>
<path d="M38.3409 53.561C38.341 53.214 38.442 52.8747 38.6312 52.5856C38.8204 52.2964 39.0894 52.0702 39.4047 51.9351C39.72 51.8001 40.0675 51.7622 40.4038 51.8262C40.7402 51.8903 41.0505 52.0534 41.296 52.2951C41.5415 52.5369 41.7113 52.8467 41.7841 53.1858C41.857 53.5248 41.8297 53.8781 41.7057 54.2016C41.5817 54.525 41.3665 54.8042 41.0869 55.0043C40.8073 55.2045 40.4758 55.3167 40.1337 55.3269C39.9003 55.3357 39.6675 55.2964 39.4494 55.2114C39.2314 55.1264 39.0326 54.9975 38.865 54.8325C38.6975 54.6674 38.5646 54.4697 38.4745 54.2512C38.3845 54.0327 38.339 53.7978 38.3409 53.561ZM39.3653 53.561C39.3628 53.7053 39.4027 53.8472 39.4799 53.9685C39.5572 54.0897 39.6683 54.1849 39.7991 54.242C39.9298 54.299 40.0744 54.3152 40.2144 54.2887C40.3543 54.2621 40.4833 54.1939 40.5849 54.0928C40.6864 53.9916 40.756 53.8621 40.7847 53.7207C40.8135 53.5793 40.8 53.4324 40.7462 53.2988C40.6923 53.1652 40.6004 53.0509 40.4822 52.9704C40.364 52.8899 40.2248 52.8469 40.0825 52.8469C39.8945 52.8469 39.714 52.9217 39.5799 53.0552C39.4457 53.1888 39.3687 53.3704 39.3653 53.561Z" fill="#242424"/>
<path d="M46.3829 53.5608C46.3829 53.2115 46.485 52.8701 46.6764 52.5797C46.8677 52.2893 47.1397 52.063 47.458 51.9293C47.7762 51.7957 48.1264 51.7607 48.4642 51.8289C48.8021 51.897 49.1124 52.0652 49.3559 52.3121C49.5995 52.5591 49.7654 52.8737 49.8326 53.2163C49.8998 53.5588 49.8653 53.9139 49.7335 54.2365C49.6017 54.5592 49.3784 54.835 49.092 55.029C48.8056 55.2231 48.4689 55.3267 48.1245 55.3267C47.8953 55.3284 47.668 55.2839 47.456 55.1957C47.2439 55.1076 47.0512 54.9776 46.8892 54.8133C46.7271 54.649 46.5989 54.4536 46.512 54.2386C46.425 54.0236 46.3812 53.7932 46.3829 53.5608ZM47.4073 53.5608C47.4073 53.7536 47.4829 53.9386 47.6174 54.075C47.7519 54.2113 47.9343 54.2879 48.1245 54.2879C48.2965 54.2644 48.4544 54.1785 48.5687 54.0459C48.683 53.9134 48.746 53.7433 48.746 53.5673C48.746 53.3912 48.683 53.2211 48.5687 53.0886C48.4544 52.9561 48.2965 52.8701 48.1245 52.8467C47.9365 52.8466 47.756 52.9214 47.6218 53.055C47.4877 53.1886 47.4107 53.3702 47.4073 53.5608Z" fill="#242424"/>
<path d="M28.6085 11.5435C28.4572 11.6838 28.2626 11.7664 28.0578 11.7772C27.85 11.7633 27.6522 11.6813 27.4944 11.5435C26.5596 10.6475 20.9378 8.94662 20.8481 4.70075C20.8481 2.46745 22.0519 0.000423581 24.9716 0.000423581C25.557 -0.00817405 26.1371 0.114207 26.6705 0.358831C27.204 0.603455 27.6776 0.964321 28.0578 1.41573C28.438 0.964321 28.9117 0.603455 29.4452 0.358831C29.9786 0.114207 30.5587 -0.00817405 31.1441 0.000423581C34.0638 0.000423581 35.2547 2.46745 35.2675 4.70075C35.1267 8.93363 29.5177 10.6605 28.6085 11.5435ZM21.8726 4.70075C21.7958 7.804 26.5211 9.58283 28.0578 10.6735C29.5945 9.59582 34.3199 7.804 34.2431 4.70075C34.2431 2.74012 33.3851 1.05216 31.1441 1.03917C30.4228 1.02544 29.7214 1.27942 29.1719 1.75331C28.8965 1.97116 28.6878 2.26383 28.5701 2.59728C28.5701 2.73625 28.5166 2.86973 28.4208 2.9692C28.3251 3.06867 28.1949 3.12625 28.0578 3.12964C27.9233 3.12503 27.7954 3.06944 27.6993 2.97384C27.6509 2.92679 27.6124 2.87035 27.586 2.80789C27.5596 2.74543 27.5459 2.67823 27.5456 2.61028C27.4246 2.27497 27.2167 1.97893 26.9437 1.75331C26.3942 1.27942 25.6929 1.02544 24.9716 1.03917C22.6794 1.05216 21.8598 2.74012 21.8214 4.70075H21.8726Z" fill="#242424"/>
<path d="M16.1484 10.8809C15.4744 10.2357 15.0709 9.3524 15.0215 8.41389C15.0269 8.03338 15.108 7.65787 15.2598 7.30984C15.4116 6.96181 15.6311 6.64839 15.9051 6.38832C16.1683 6.11323 16.4826 5.89363 16.8298 5.7421C17.1771 5.59058 17.5504 5.51013 17.9284 5.5054H18.0181V5.4275C18.0211 4.6407 18.3264 3.88606 18.8691 3.32367C19.4118 2.76129 20.1492 2.43539 20.925 2.41513C21.2075 2.41271 21.4886 2.45657 21.7574 2.54498C21.8839 2.58439 21.9898 2.67313 22.0519 2.79169C22.1025 2.92095 22.1025 3.06494 22.0519 3.1942C21.9068 3.68269 21.8334 4.19021 21.8342 4.70038C21.8815 5.35689 22.0756 5.99387 22.4018 6.56303C22.7279 7.13219 23.1776 7.61861 23.7167 7.98541C23.7914 8.05184 23.8465 8.13795 23.8759 8.23421C23.9053 8.33047 23.9078 8.43312 23.8831 8.53074C23.6654 9.3098 23.4477 9.98498 23.4221 10.2317C23.4158 10.4121 23.3422 10.5835 23.2163 10.7111C23.0904 10.8388 22.9214 10.9134 22.7434 10.9198C21.4242 11.3343 20.0693 11.6213 18.6968 11.7768C18.2345 11.8082 17.7706 11.7451 17.3329 11.5912C16.8951 11.4373 16.4923 11.1957 16.1484 10.8809ZM16.635 7.11546C16.4548 7.27982 16.3096 7.47975 16.2083 7.70302C16.107 7.92629 16.0518 8.1682 16.046 8.41389C16.0922 9.08088 16.3903 9.7041 16.8783 10.1538C17.3747 10.5989 18.0219 10.8316 18.684 10.803C19.9545 10.6593 21.2073 10.3852 22.4233 9.98498C22.5001 9.59545 22.6538 9.15398 22.7946 8.68655C22.2013 8.22457 21.715 7.63642 21.3699 6.96346C21.0247 6.2905 20.8292 5.54906 20.7969 4.79126C20.7907 4.35492 20.8336 3.91928 20.925 3.49283C20.6832 3.49477 20.4445 3.54773 20.224 3.64832C20.0036 3.74892 19.8062 3.89494 19.6444 4.07712C19.2932 4.41757 19.0865 4.88326 19.0681 5.37555C19.0693 5.53563 19.0997 5.69411 19.1578 5.84299C19.2315 5.93714 19.2717 6.05385 19.2717 6.17409C19.2717 6.29433 19.2315 6.41104 19.1578 6.5052C19.1108 6.56575 19.0546 6.61834 18.9913 6.661C18.9195 6.67642 18.8454 6.67642 18.7736 6.661H18.6968C18.5816 6.64905 18.4735 6.59884 18.3894 6.51818H18.2998C18.1766 6.50092 18.0516 6.50092 17.9284 6.51818C17.4451 6.51693 16.9807 6.7081 16.635 7.05054V7.11546Z" fill="#242424"/>
<path d="M40.1336 6.32342C40.4076 6.58348 40.6271 6.89689 40.7789 7.24492C40.9307 7.59295 41.0118 7.96845 41.0172 8.34897C40.9683 9.29034 40.5595 10.1753 39.8775 10.816C39.5386 11.146 39.1363 11.4016 38.6956 11.5669C38.255 11.7322 37.7854 11.8037 37.3163 11.7768C35.9382 11.6305 34.5781 11.3434 33.2569 10.9199C33.0795 10.9103 32.9114 10.8366 32.783 10.7121C32.6547 10.5792 32.5775 10.4042 32.5653 10.2187C32.5653 9.98499 32.322 9.3098 32.1171 8.53075C32.0886 8.43535 32.0892 8.33342 32.1189 8.23839C32.1487 8.14336 32.2061 8.05968 32.2836 7.99838C32.8237 7.62956 33.2738 7.14092 33.6 6.56951C33.9261 5.9981 34.1197 5.35891 34.1661 4.70038C34.1669 4.19021 34.0935 3.68269 33.9484 3.1942C33.9082 3.06334 33.9206 2.92166 33.983 2.80005C34.0453 2.67844 34.1526 2.58675 34.2813 2.54498C34.5501 2.45657 34.8312 2.41271 35.1137 2.41513C35.8696 2.44782 36.5849 2.7704 37.1151 3.31759C37.6453 3.86479 37.9506 4.59575 37.9694 5.36257V5.44048H38.0591C38.4457 5.43829 38.8288 5.51538 39.1853 5.66711C39.5418 5.81884 39.8644 6.04209 40.1336 6.32342ZM39.4037 7.05054C39.0674 6.69693 38.6074 6.49171 38.1231 6.47922C37.966 6.4763 37.8097 6.5027 37.6621 6.55713C37.5654 6.64764 37.4382 6.69699 37.3066 6.69494C37.1751 6.69289 37.0494 6.6396 36.9555 6.54611C36.8617 6.45263 36.8069 6.32612 36.8025 6.1928C36.7982 6.05948 36.8446 5.92958 36.9321 5.83001C36.9321 5.83001 36.9321 5.83 36.9321 5.73911C36.9475 5.61408 36.9475 5.4876 36.9321 5.36257C36.9289 5.1189 36.8773 4.87839 36.7805 4.65533C36.6837 4.43227 36.5437 4.23123 36.3687 4.06414C36.2074 3.88133 36.0101 3.73486 35.7895 3.63421C35.569 3.53357 35.33 3.48099 35.0881 3.47986C35.0881 3.88237 35.1649 4.29787 35.1649 4.77829C35.1327 5.53609 34.9371 6.27752 34.592 6.95048C34.2469 7.62344 33.7605 8.21159 33.1672 8.67357C33.3081 9.19294 33.4618 9.63441 33.5386 9.972C34.7529 10.3784 36.0064 10.6526 37.2779 10.79C37.9399 10.8186 38.5871 10.5859 39.0835 10.1408C39.5716 9.6911 39.8697 9.06788 39.9159 8.40089C39.9206 8.15068 39.8754 7.90207 39.783 7.67001C39.6906 7.43796 39.5528 7.22725 39.3781 7.05054H39.4037Z" fill="#242424"/>
</g>
<defs>
<clipPath id="clip0_328_373">
<rect width="56" height="62" fill="white"/>
</clipPath>
</defs>
</svg>
