<svg width="52" height="61" viewBox="0 0 52 61" fill="none" xmlns="http://www.w3.org/2000/svg">
<g clip-path="url(#clip0_328_324)">
<path d="M28.5917 26.7127C28.5917 26.5772 28.6454 26.4472 28.7409 26.3514C28.8365 26.2556 28.966 26.2017 29.1011 26.2017H49.2363C49.4665 26.2018 49.6945 26.1561 49.907 26.0673C50.1195 25.9786 50.3124 25.8485 50.4746 25.6846C50.6368 25.5208 50.7651 25.3263 50.852 25.1125C50.9389 24.8987 50.9828 24.6697 50.9812 24.4388V20.9002C50.9828 20.6693 50.9389 20.4403 50.852 20.2265C50.7651 20.0127 50.6368 19.8182 50.4746 19.6544C50.3124 19.4905 50.1195 19.3604 49.907 19.2717C49.6945 19.1829 49.4665 19.1372 49.2363 19.1372H2.77641C2.31028 19.1372 1.86326 19.323 1.53366 19.6536C1.20406 19.9842 1.01887 20.4326 1.01887 20.9002V24.4388C1.01887 24.9064 1.20406 25.3548 1.53366 25.6854C1.86326 26.016 2.31028 26.2017 2.77641 26.2017H22.9116C23.0467 26.2017 23.1763 26.2556 23.2718 26.3514C23.3673 26.4472 23.421 26.5772 23.421 26.7127C23.421 26.8483 23.3673 26.9782 23.2718 27.0741C23.1763 27.1699 23.0467 27.2237 22.9116 27.2237H2.77641C2.04007 27.2237 1.33387 26.9303 0.813192 26.4081C0.292518 25.8858 2.94875e-05 25.1774 2.94875e-05 24.4388V20.9002C-0.00165679 20.534 0.0689963 20.1711 0.207926 19.8324C0.346855 19.4938 0.551274 19.1861 0.809422 18.9272C1.06757 18.6682 1.37433 18.4632 1.71194 18.3238C2.04955 18.1845 2.41134 18.1136 2.77641 18.1153H49.2363C49.6003 18.1153 49.9608 18.1874 50.2969 18.3275C50.6331 18.4676 50.9383 18.6729 51.1951 18.9317C51.4519 19.1905 51.6552 19.4976 51.7933 19.8354C51.9315 20.1732 52.0017 20.5351 52 20.9002V24.4388C52 25.1752 51.7092 25.8817 51.1913 26.4036C50.6734 26.9255 49.9705 27.2204 49.2363 27.2237H29.1011C29.0342 27.2237 28.968 27.2105 28.9062 27.1848C28.8444 27.1592 28.7882 27.1215 28.7409 27.0741C28.6936 27.0266 28.6561 26.9703 28.6305 26.9083C28.6049 26.8463 28.5917 26.7799 28.5917 26.7127Z" fill="#242424"/>
<path d="M27.4203 60.9882H6.24077C5.50662 60.9882 4.80237 60.6965 4.28206 60.177C3.76175 59.6575 3.46775 58.9524 3.46439 58.216V26.7132C3.46364 26.6443 3.47679 26.5759 3.50306 26.5123C3.52932 26.4486 3.56815 26.3909 3.61721 26.3427C3.71403 26.2522 3.84148 26.202 3.97381 26.2022H22.9118C23.0469 26.2022 23.1765 26.256 23.272 26.3518C23.3676 26.4477 23.4213 26.5777 23.4213 26.7132C23.4213 26.8487 23.3676 26.9787 23.272 27.0745C23.1765 27.1703 23.0469 27.2242 22.9118 27.2242H4.48323V58.216C4.48322 58.4469 4.52876 58.6755 4.61724 58.8887C4.70572 59.1019 4.83538 59.2954 4.99875 59.4581C5.16212 59.6208 5.35599 59.7494 5.56915 59.8366C5.78232 59.9238 6.01057 59.9678 6.24077 59.9662H45.7215C46.1843 59.9662 46.6281 59.7818 46.9553 59.4536C47.2825 59.1253 47.4663 58.6802 47.4663 58.216V27.2242H29.1014C28.9663 27.2242 28.8367 27.1703 28.7412 27.0745C28.6456 26.9787 28.592 26.8487 28.592 26.7132C28.592 26.5777 28.6456 26.4477 28.7412 26.3518C28.8367 26.256 28.9663 26.2022 29.1014 26.2022H48.0267C48.0954 26.2014 48.1635 26.2146 48.227 26.241C48.2905 26.2673 48.348 26.3063 48.396 26.3555C48.4418 26.4028 48.4778 26.4588 48.5018 26.5202C48.5259 26.5816 48.5375 26.6472 48.5361 26.7132V58.216C48.5361 58.9512 48.2449 59.6563 47.7267 60.1762C47.2084 60.6961 46.5055 60.9882 45.7725 60.9882H27.4203Z" fill="#242424"/>
<path d="M22.9118 61.0006C22.7755 60.9972 22.646 60.9406 22.5508 60.8427C22.4556 60.7449 22.4023 60.6135 22.4024 60.4768V18.6263C22.4016 18.5574 22.4148 18.4891 22.441 18.4254C22.4673 18.3618 22.5061 18.3041 22.5552 18.2559C22.6024 18.2099 22.6582 18.1739 22.7194 18.1497C22.7807 18.1256 22.846 18.1139 22.9118 18.1154H29.1013C29.2332 18.1176 29.3598 18.1675 29.4579 18.2559C29.5053 18.3047 29.5422 18.3628 29.5663 18.4265C29.5904 18.4903 29.6012 18.5583 29.5981 18.6263V60.4768C29.6012 60.5449 29.5904 60.6129 29.5663 60.6766C29.5422 60.7403 29.5053 60.7984 29.4579 60.8473C29.3611 60.9393 29.2346 60.9937 29.1013 61.0006H22.9118ZM23.4212 59.9658H28.5919V19.0862H23.4212V59.9658Z" fill="#242424"/>
<path d="M26.7198 18.8307C26.5248 19.013 26.2727 19.1214 26.0066 19.1373C25.7347 19.1197 25.4777 19.0067 25.2807 18.8179C23.4977 17.2466 14.1624 14.3339 14.0732 7.56327C14.0732 3.89688 15.9964 0.000545641 20.734 0.000545641C21.7693 -0.0224045 22.7939 0.214476 23.7147 0.689678C24.6355 1.16488 25.4233 1.86334 26.0066 2.72159C26.5937 1.87378 27.3819 1.18582 28.3001 0.719727C29.2183 0.253629 30.2377 0.0240427 31.2665 0.0516463C36.0042 0.0516463 37.9145 3.8841 37.9273 7.61437C37.8381 14.3339 28.5156 17.2722 26.7198 18.8307ZM15.0921 7.56327C15.0157 13.2864 23.6632 16.2629 25.9302 18.0387H26.0066H26.0958C28.3755 16.2885 36.9976 13.2864 36.9084 7.57604C36.9084 4.17793 35.3164 1.04808 31.2665 1.03531C29.9488 0.998865 28.6646 1.45406 27.6623 2.31279C27.1038 2.73648 26.6936 3.32685 26.4906 3.99908C26.4923 4.07001 26.4797 4.14056 26.4534 4.20644C26.4271 4.27232 26.3878 4.33216 26.3378 4.38233C26.2921 4.43117 26.2368 4.47 26.1755 4.49638C26.1141 4.52276 26.0479 4.53612 25.9812 4.53562C25.9125 4.53636 25.8444 4.52317 25.7809 4.49683C25.7174 4.47048 25.6599 4.43154 25.6118 4.38233C25.5216 4.28521 25.4716 4.15735 25.4717 4.02462C25.2796 3.34686 24.8783 2.74758 24.3255 2.31279C23.3181 1.45428 22.03 0.999336 20.7085 1.03531C16.6841 1.03531 15.143 4.16515 15.0921 7.56327Z" fill="#242424"/>
<path d="M6.11319 17.6297C5.01755 16.6173 4.36331 15.213 4.29199 13.7205C4.30212 13.1253 4.43134 12.5381 4.67199 11.9939C4.91264 11.4497 5.25983 10.9595 5.69293 10.5524C6.10698 10.1235 6.60136 9.78086 7.14774 9.5441C7.69412 9.30734 8.28174 9.18113 8.87686 9.17269H9.42449C9.41139 8.98982 9.41139 8.80625 9.42449 8.62337C9.42865 8.02574 9.55254 7.43503 9.78882 6.88638C10.0251 6.33773 10.369 5.84235 10.7999 5.42966C11.201 4.99598 11.6852 4.64797 12.2236 4.4065C12.7619 4.16504 13.3433 4.03508 13.933 4.02441C14.3644 4.02735 14.7932 4.09188 15.2065 4.21604C15.3345 4.26375 15.4423 4.35391 15.5122 4.47154C15.5638 4.59846 15.5638 4.74064 15.5122 4.86756C15.2548 5.72076 15.126 6.60777 15.1301 7.49918C15.205 8.66501 15.5446 9.79824 16.1229 10.8123C16.7012 11.8263 17.5029 12.6944 18.4669 13.3501C18.5449 13.4099 18.6035 13.4916 18.6352 13.5848C18.6669 13.6781 18.6704 13.7786 18.6451 13.8738C18.3266 14.8331 18.0629 15.8098 17.8555 16.7993C17.8414 17.0189 17.7513 17.2268 17.6008 17.3869C17.435 17.5362 17.2245 17.6261 17.0022 17.6424C16.0088 17.6424 12.9905 19.0732 10.1504 19.086C9.41463 19.1261 8.67826 19.0179 7.98484 18.7678C7.29142 18.5177 6.65499 18.1307 6.11319 17.6297ZM8.87686 10.1947C8.4138 10.2022 7.95682 10.302 7.53263 10.4885C7.10844 10.6749 6.72552 10.9441 6.40613 11.2805C6.06667 11.5903 5.79428 11.9667 5.60587 12.3865C5.41746 12.8062 5.31702 13.2603 5.31084 13.7205C5.39086 14.9429 5.93839 16.0871 6.83914 16.9143C7.28721 17.3278 7.81332 17.647 8.38641 17.8533C8.9595 18.0595 9.56795 18.1486 10.1759 18.1151C12.723 18.1151 15.474 16.8376 16.8749 16.6843C17.0632 15.7679 17.3056 14.8636 17.6008 13.976C16.5868 13.2362 15.7498 12.279 15.1506 11.1742C14.5514 10.0693 14.2051 8.84449 14.1367 7.5886C14.1333 6.77543 14.2273 5.9648 14.4169 5.17415C14.2431 5.16103 14.0685 5.16103 13.8947 5.17415C13.4377 5.18059 12.987 5.28147 12.5707 5.4705C12.1543 5.65954 11.7813 5.93265 11.4749 6.27279C11.1402 6.59291 10.8729 6.97726 10.6892 7.403C10.5054 7.82874 10.4088 8.2872 10.4051 8.75112C10.3938 9.10434 10.4681 9.45502 10.6217 9.77311C10.7872 10.0542 10.7872 10.1436 10.7745 10.233C10.7625 10.3367 10.7126 10.4323 10.6344 10.5013C10.5577 10.5788 10.4587 10.6303 10.3514 10.6486C10.2441 10.6669 10.1337 10.6512 10.0358 10.6035L9.90845 10.5141C9.58396 10.2989 9.20205 10.1876 8.81316 10.1947H8.87686Z" fill="#242424"/>
<path d="M46.3708 10.5521C46.8062 10.9573 47.1549 11.4471 47.3958 11.9918C47.6366 12.5364 47.7645 13.1245 47.7717 13.7202C47.7004 15.2127 47.0462 16.617 45.9505 17.6293C45.4086 18.1408 44.7697 18.5379 44.0718 18.7968C43.3738 19.0558 42.6311 19.1714 41.8878 19.1368C39.0477 19.1368 36.0294 17.7571 35.036 17.6932C34.8138 17.6769 34.6032 17.587 34.4374 17.4377C34.2906 17.2763 34.205 17.0683 34.1954 16.8501C34.1954 16.3646 33.7624 15.2404 33.4058 13.9374C33.3781 13.8415 33.3791 13.7396 33.4085 13.6443C33.438 13.5489 33.4946 13.4643 33.5714 13.4009C34.5337 12.7465 35.3344 11.8804 35.9127 10.8688C36.4909 9.85706 36.8314 8.72636 36.9081 7.56274C36.9135 6.66705 36.7847 5.77564 36.5261 4.91834C36.4744 4.79142 36.4744 4.64924 36.5261 4.52232C36.5878 4.40567 36.6931 4.31837 36.819 4.2796C37.2303 4.14534 37.66 4.07637 38.0926 4.0752C38.6838 4.08705 39.2668 4.2175 39.8071 4.45884C40.3473 4.70017 40.8339 5.04753 41.2383 5.48044C41.6641 5.8964 42.0037 6.3927 42.2376 6.94081C42.4714 7.48891 42.595 8.07799 42.601 8.67416C42.6141 8.85703 42.6141 9.0406 42.601 9.22347H43.1486C43.7466 9.22017 44.3393 9.33591 44.8924 9.56397C45.4455 9.79202 45.948 10.1279 46.3708 10.5521ZM45.6576 11.2802C45.0083 10.6066 44.1207 10.2165 43.1868 10.1944C42.833 10.1797 42.4815 10.2591 42.168 10.4243C42.1147 10.4715 42.0546 10.5103 41.9897 10.5393C41.9265 10.5503 41.8619 10.5503 41.7987 10.5393C41.6663 10.5395 41.5389 10.4892 41.4421 10.3988C41.3483 10.3029 41.2938 10.1753 41.2892 10.0411C41.2896 9.90461 41.3394 9.77293 41.4293 9.67059C41.6039 9.35517 41.6835 8.99572 41.6586 8.63582C41.6549 8.1719 41.5583 7.71346 41.3745 7.28771C41.1908 6.86197 40.9236 6.47762 40.5888 6.15751C40.2824 5.81736 39.9094 5.54424 39.493 5.35521C39.0767 5.16618 38.626 5.0653 38.169 5.05887C37.9952 5.04574 37.8206 5.04574 37.6468 5.05887C37.8367 5.85379 37.9307 6.66869 37.927 7.48609C37.8557 8.73992 37.5094 9.96252 36.9128 11.0666C36.3162 12.1708 35.484 13.1292 34.4756 13.8735C34.7661 14.7582 35.0085 15.658 35.2016 16.569C36.5897 16.7479 39.3534 17.9998 41.8878 17.9998C42.4976 18.0321 43.1077 17.9426 43.6827 17.7365C44.2577 17.5303 44.7861 17.2116 45.2373 16.799C46.1355 15.9713 46.6788 14.8264 46.7529 13.6052C46.7321 13.1644 46.6247 12.732 46.4367 12.333C46.2488 11.934 45.9839 11.5762 45.6576 11.2802Z" fill="#242424"/>
</g>
<defs>
<clipPath id="clip0_328_324">
<rect width="52" height="61" fill="white"/>
</clipPath>
</defs>
</svg>
