<svg width="40" height="62" viewBox="0 0 40 62" fill="none" xmlns="http://www.w3.org/2000/svg">
<g clip-path="url(#clip0_328_400)">
<path d="M20.9096 46.6657C20.7839 46.6106 20.6849 46.5072 20.6345 46.3781C20.584 46.249 20.5862 46.1049 20.6406 45.9775C20.6949 45.8501 20.797 45.7498 20.9243 45.6987C21.0517 45.6476 21.1939 45.6498 21.3196 45.7049C23.0027 46.4628 24.8207 46.8649 26.6623 46.8864C27.1807 46.8842 27.6985 46.8495 28.2126 46.7826C28.9814 46.6008 29.2888 46.1074 29.3145 45.1725C29.3135 44.8479 29.2704 44.5249 29.1863 44.2117C28.8404 42.9133 28.456 42.5887 27.5848 42.5497C27.4228 42.5363 27.2599 42.5363 27.0979 42.5497C25.1152 43.0882 23.1717 43.765 21.2812 44.5752C21.1533 44.6238 21.0121 44.6213 20.886 44.5683C20.7599 44.5152 20.6584 44.4156 20.6021 44.2896C20.5514 44.1622 20.5526 44.0195 20.6054 43.893C20.6583 43.7664 20.7584 43.6662 20.884 43.6144C22.8273 42.7789 24.8267 42.0846 26.8673 41.5369C27.1032 41.486 27.3436 41.4599 27.5848 41.459C28.2318 41.487 28.8472 41.7506 29.3179 42.2014C29.7886 42.6522 30.0831 43.2599 30.1473 43.913C30.2487 44.3073 30.3004 44.7131 30.301 45.1206C30.3434 45.7213 30.1674 46.317 29.8064 46.7954C29.4453 47.2737 28.9239 47.6017 28.3407 47.7174C27.7716 47.7947 27.1981 47.8337 26.6239 47.8343C24.6607 47.8407 22.7167 47.4431 20.9096 46.6657Z" fill="#3E3E3E"/>
<path d="M11.6079 47.8082C11.0283 47.6872 10.5117 47.3574 10.1536 46.8799C9.79555 46.4025 9.62034 45.8097 9.6604 45.2114C9.66004 44.803 9.71612 44.3965 9.82697 44.0039C9.88854 43.3497 10.1822 42.7405 10.6534 42.2892C11.1247 41.8379 11.7415 41.5751 12.3894 41.5498C12.6397 41.5525 12.8888 41.583 13.1325 41.6407C15.1638 42.1862 17.1546 42.8761 19.0902 43.7052C19.1524 43.7307 19.2088 43.7686 19.2562 43.8167C19.3036 43.8647 19.341 43.922 19.3661 43.985C19.3912 44.048 19.4035 44.1154 19.4024 44.1834C19.4012 44.2513 19.3866 44.3183 19.3593 44.3804C19.3055 44.5054 19.2064 44.6048 19.0825 44.6579C18.9585 44.7111 18.8191 44.714 18.6931 44.666C16.809 43.8617 14.8744 43.1851 12.9019 42.6405C12.7313 42.6296 12.5601 42.6296 12.3894 42.6405C11.5182 42.6405 11.1082 43.056 10.7751 44.3025C10.691 44.6157 10.6479 44.9387 10.6469 45.2633C10.6469 46.1982 10.9801 46.7046 11.736 46.8734C12.2587 46.9408 12.785 46.9755 13.3119 46.9772C15.1534 46.9542 16.9711 46.5522 18.6546 45.7957C18.7788 45.7435 18.9182 45.7429 19.0428 45.7939C19.1674 45.8449 19.2673 45.9435 19.3209 46.0684C19.3484 46.1314 19.3632 46.1993 19.3645 46.2681C19.3658 46.337 19.3536 46.4055 19.3286 46.4695C19.3035 46.5336 19.2662 46.5919 19.2186 46.6412C19.1711 46.6905 19.1144 46.7297 19.0518 46.7565C17.2462 47.5824 15.2927 48.0243 13.3119 48.0549C12.7393 48.0098 12.1701 47.9274 11.6079 47.8082Z" fill="#3E3E3E"/>
<path d="M22.0115 45.1728C21.971 45.687 21.7409 46.1669 21.3669 46.5169C20.9929 46.8669 20.5026 47.0612 19.9935 47.0612C19.4845 47.0612 18.9942 46.8669 18.6202 46.5169C18.2462 46.1669 18.0161 45.687 17.9756 45.1728C17.9857 44.6355 18.2034 44.1236 18.5819 43.7472C18.9605 43.3709 19.4697 43.1601 20 43.1602C20.5257 43.1567 21.0316 43.3632 21.4081 43.7351C21.7846 44.1069 22.0014 44.6142 22.0115 45.1468V45.1728ZM20 46.1466C20.1888 46.1415 20.372 46.0801 20.5266 45.97C20.6812 45.8599 20.8004 45.7061 20.8692 45.5278C20.938 45.3495 20.9535 45.1545 20.9136 44.9674C20.8736 44.7802 20.7801 44.6092 20.6448 44.4755C20.5094 44.3419 20.3382 44.2517 20.1526 44.2162C19.9669 44.1807 19.775 44.2014 19.6009 44.2758C19.4268 44.3502 19.2782 44.475 19.1737 44.6346C19.0692 44.7941 19.0134 44.9813 19.0134 45.1728C19.0151 45.3024 19.0419 45.4304 19.0924 45.5495C19.1429 45.6685 19.216 45.7764 19.3076 45.8668C19.3993 45.9572 19.5075 46.0285 19.6263 46.0765C19.7451 46.1245 19.8721 46.1483 20 46.1466Z" fill="#3E3E3E"/>
<path d="M21.3708 52.5347C21.2693 52.5248 21.1728 52.4851 21.0932 52.4206C21.0136 52.356 20.9542 52.2693 20.9224 52.1712C20.5893 51.0415 20.3202 49.886 19.9999 48.7823C19.6796 49.886 19.3977 51.0415 19.0774 52.1712C19.0447 52.2712 18.9834 52.3593 18.9013 52.424C18.8192 52.4887 18.7199 52.5272 18.6162 52.5347C18.5131 52.5402 18.4108 52.5148 18.322 52.4617C18.2331 52.4086 18.1616 52.3301 18.1165 52.2361L17.4246 50.7689L15.8487 52.0673C15.7638 52.1333 15.6607 52.1706 15.5538 52.1742C15.4469 52.1778 15.3416 52.1474 15.2526 52.0873C15.1636 52.0272 15.0954 51.9403 15.0576 51.839C15.0197 51.7376 15.0141 51.6267 15.0415 51.522C15.49 49.9898 15.8359 48.3798 16.3868 46.7957C16.4103 46.7088 16.4558 46.6295 16.5187 46.5657C16.5816 46.502 16.6598 46.456 16.7456 46.4321C17.3846 46.2539 18.0098 46.0282 18.6162 45.7569H18.7058C18.7999 45.7196 18.9028 45.7121 19.0012 45.7353C19.0995 45.7584 19.1886 45.8113 19.2568 45.8868C19.3533 45.988 19.4687 46.0688 19.5963 46.1245C19.7238 46.1802 19.861 46.2097 19.9999 46.2114C20.1371 46.211 20.2727 46.182 20.3984 46.1261C20.524 46.0703 20.637 45.9888 20.7302 45.8868C20.8003 45.8102 20.8917 45.7568 20.9923 45.7336C21.0928 45.7105 21.198 45.7186 21.2939 45.7569H21.3708C21.9823 46.0262 22.6116 46.2518 23.2542 46.4321C23.3394 46.4571 23.417 46.5035 23.4798 46.5671C23.5425 46.6307 23.5883 46.7093 23.6129 46.7957C24.1511 48.3668 24.5098 49.9898 24.8942 51.522C24.9291 51.6253 24.9291 51.7375 24.8944 51.8409C24.8596 51.9443 24.7919 52.033 24.702 52.0933C24.6125 52.1588 24.5049 52.194 24.3945 52.194C24.2841 52.194 24.1765 52.1588 24.087 52.0933C23.5745 51.6648 23.0492 51.2493 22.5111 50.7948C22.2933 51.2882 22.0498 51.7817 21.8192 52.2621C21.7755 52.3441 21.7108 52.4128 21.6319 52.4607C21.553 52.5087 21.4628 52.5343 21.3708 52.5347ZM21.5374 50.5481L21.9217 49.7302C21.9544 49.6592 22.0025 49.5966 22.0624 49.5472C22.1223 49.4977 22.1925 49.4626 22.2677 49.4445C22.3432 49.4252 22.4222 49.4246 22.498 49.4427C22.5738 49.4608 22.6442 49.497 22.7033 49.5484L23.5361 50.2235C23.2798 49.2497 23.0236 48.2759 22.7161 47.3281C22.2036 47.1722 21.6911 46.9904 21.1914 46.7827C20.9988 46.9289 20.7818 47.0388 20.5508 47.1073C20.9096 48.2499 21.2299 49.4185 21.5374 50.5481ZM17.6937 49.4445C17.7698 49.4642 17.8411 49.4997 17.9028 49.5489C17.9646 49.5981 18.0156 49.6598 18.0524 49.7302C18.1677 50.0028 18.3087 50.2755 18.424 50.5481C18.7315 49.4055 19.0262 48.2499 19.4233 47.1073C19.1884 47.0389 18.9671 46.9291 18.7699 46.7827C18.2758 46.9915 17.7712 47.1735 17.2581 47.3281C16.9377 48.2759 16.6815 49.2497 16.4253 50.2235L17.2581 49.5484C17.3475 49.4716 17.4612 49.4301 17.5784 49.4315L17.6937 49.4445Z" fill="#3E3E3E"/>
<path d="M20.7046 44.5107C20.5172 44.3217 20.2643 44.2146 20 44.2121C19.7317 44.2139 19.4746 44.3209 19.2825 44.5107C19.2119 44.5826 19.1222 44.6319 19.0243 44.6527C18.9264 44.6734 18.8246 44.6647 18.7315 44.6276C17.2145 43.9864 15.6665 43.423 14.0935 42.9396C13.9929 42.9141 13.9033 42.8558 13.8385 42.7737C13.7737 42.6916 13.7372 42.5903 13.7347 42.4852C13.1069 34.2012 10.032 25.7095 1.3965 15.5428C1.32376 15.4545 1.282 15.3443 1.27771 15.2294C1.27342 15.1146 1.30686 15.0015 1.3728 14.9079C1.43874 14.8144 1.53345 14.7456 1.64208 14.7125C1.75071 14.6793 1.86712 14.6837 1.97307 14.7248C5.61176 16.166 8.37922 17.1398 10.5829 17.7891C13.6366 18.7138 16.8135 19.1519 20 19.0875C25.2658 19.0875 28.4305 18.5292 38.0141 14.7377C38.12 14.6966 38.2364 14.6923 38.3451 14.7255C38.4537 14.7586 38.5484 14.8274 38.6143 14.9209C38.6803 15.0145 38.7137 15.1275 38.7094 15.2424C38.7051 15.3573 38.6633 15.4675 38.5906 15.5558C29.9551 25.7225 26.893 34.2142 26.2652 42.4982C26.2598 42.6044 26.2208 42.706 26.1539 42.7879C26.0869 42.8698 25.9956 42.9276 25.8936 42.9526C24.3305 43.433 22.8058 43.9914 21.2556 44.6406H21.0634C20.9316 44.647 20.8026 44.6003 20.7046 44.5107ZM21.1531 43.5499C22.524 42.9786 23.8693 42.4852 25.2658 42.0567C25.9321 34.0973 28.8661 25.8912 36.5278 16.4127C28.328 19.5809 24.9968 20.1132 20 20.1132C16.7204 20.1886 13.4489 19.7506 10.3011 18.8148C8.40484 18.2695 6.21394 17.5164 3.4593 16.4387C11.1467 25.9172 14.0679 34.1233 14.7213 42.0827C16.1179 42.5111 17.476 43.0045 18.8341 43.5758C19.1754 43.3322 19.5824 43.2008 20 43.1993C20.4108 43.1933 20.8134 43.3157 21.1531 43.5499Z" fill="#3E3E3E"/>
<path d="M14.0676 31.9936C13.1332 29.2899 11.9492 26.6814 10.5314 24.203C10.4635 24.0825 10.4455 23.9395 10.4816 23.8056C10.5176 23.6717 10.6047 23.5578 10.7236 23.4889C10.8425 23.42 10.9836 23.4018 11.1158 23.4384C11.2479 23.4749 11.3603 23.5631 11.4283 23.6836C12.8757 26.23 14.0853 28.9077 15.0414 31.682C15.0635 31.7467 15.0728 31.8153 15.0687 31.8838C15.0646 31.9522 15.0471 32.0191 15.0173 32.0807C14.9876 32.1423 14.946 32.1972 14.8952 32.2424C14.8443 32.2877 14.7852 32.3222 14.7211 32.3442H14.5545C14.4478 32.3427 14.3441 32.3084 14.2571 32.2458C14.1701 32.1832 14.1041 32.0952 14.0676 31.9936Z" fill="#3E3E3E"/>
<path d="M24.1895 36.2262C24.1241 36.211 24.0624 36.1827 24.0081 36.1429C23.9538 36.1031 23.9079 36.0526 23.8733 35.9944C23.8386 35.9363 23.8158 35.8716 23.8063 35.8044C23.7968 35.7371 23.8007 35.6686 23.8179 35.603C24.3617 33.313 25.0902 31.0722 25.996 28.9031C26.0498 28.7749 26.151 28.6732 26.278 28.6198C26.4049 28.5664 26.5475 28.5655 26.6751 28.6174C26.7992 28.6743 26.8967 28.7779 26.9469 28.9064C26.9971 29.0348 26.9961 29.1779 26.9441 29.3056C26.0525 31.4037 25.3409 33.5758 24.8173 35.7977C24.7891 35.9111 24.725 36.012 24.6347 36.0847C24.5444 36.1575 24.4329 36.1981 24.3176 36.2002L24.1895 36.2262Z" fill="#3E3E3E"/>
<path d="M20.0001 62.0006C16.0738 62.1872 12.1614 61.4076 8.59713 59.7283C8.52347 59.6935 8.45927 59.641 8.41015 59.5754C8.36104 59.5098 8.32848 59.433 8.31526 59.3518C8.30231 59.2701 8.30827 59.1866 8.33274 59.1077C8.3572 59.0288 8.39947 58.9568 8.45618 58.8974C12.0949 55.1838 13.5811 52.8856 13.8245 47.3413C13.8331 47.2155 13.8854 47.0968 13.9722 47.0065C14.059 46.9161 14.1747 46.8599 14.2986 46.8479C15.7864 46.7142 17.2439 46.3417 18.6163 45.7443H18.706C18.8 45.707 18.903 45.6994 19.0013 45.7226C19.0997 45.7458 19.1888 45.7986 19.2569 45.8741C19.3535 45.9753 19.4689 46.0561 19.5964 46.1118C19.724 46.1675 19.8612 46.1971 20.0001 46.1987C20.1373 46.1983 20.2729 46.1693 20.3985 46.1134C20.5242 46.0576 20.6371 45.9761 20.7303 45.8741C20.8005 45.7975 20.8919 45.7441 20.9924 45.7209C21.093 45.6978 21.1981 45.7059 21.2941 45.7443H21.3838C22.7557 46.3434 24.2134 46.716 25.7015 46.8479C25.8241 46.8603 25.9381 46.9169 26.0228 47.0075C26.1075 47.0981 26.1572 47.2166 26.1628 47.3413C26.419 52.8856 27.9053 55.1319 31.5311 58.8974C31.5929 58.9536 31.6394 59.0248 31.6663 59.1043C31.6932 59.1838 31.6996 59.269 31.6849 59.3518C31.6693 59.434 31.6344 59.5111 31.5831 59.5767C31.5318 59.6422 31.4656 59.6943 31.3902 59.7283C27.8298 61.4055 23.922 62.1851 20.0001 62.0006ZM20.0001 60.9489C23.5092 61.1094 27.0097 60.4798 30.2499 59.1051C27.0084 55.7422 25.3941 53.0025 25.125 47.8347C23.7589 47.6749 22.4218 47.3208 21.1532 46.783C20.8086 47.0426 20.391 47.1836 19.9616 47.1855C19.5287 47.1811 19.1079 47.0404 18.7573 46.783C17.4931 47.3208 16.1602 47.6749 14.7983 47.8347C14.5164 53.0284 12.9149 55.7422 9.67336 59.1051C12.9382 60.4878 16.4655 61.1176 20.0001 60.9489Z" fill="#3E3E3E"/>
<path d="M12.7481 58.637C12.6433 58.5505 12.5764 58.4256 12.562 58.2895C12.5476 58.1533 12.5869 58.0168 12.6712 57.9099C13.6086 56.7644 14.3847 55.4929 14.9774 54.1314C15.0406 54.0229 15.1405 53.9414 15.2586 53.902C15.3766 53.8626 15.5048 53.8681 15.6192 53.9173C15.7335 53.9665 15.8264 54.0562 15.8804 54.1697C15.9344 54.2831 15.9459 54.4125 15.9128 54.5339C15.2896 55.9836 14.4703 57.3384 13.4784 58.5591C13.4307 58.6195 13.3703 58.6683 13.3016 58.702C13.2329 58.7357 13.1576 58.7534 13.0812 58.7538C12.9606 58.7529 12.8435 58.7118 12.7481 58.637Z" fill="#3E3E3E"/>
<path d="M26.5212 58.5594C25.9187 57.8114 25.3747 57.017 24.894 56.1833C24.8593 56.1245 24.8364 56.0593 24.8267 55.9916C24.8169 55.9238 24.8204 55.8548 24.8371 55.7884C24.8538 55.722 24.8832 55.6596 24.9238 55.6048C24.9644 55.55 25.0152 55.5039 25.0734 55.4691C25.1929 55.4026 25.3331 55.3857 25.4646 55.4221C25.5961 55.4584 25.7085 55.5451 25.7781 55.6639C26.235 56.4502 26.7489 57.2011 27.3156 57.9102C27.4 58.0172 27.4392 58.1536 27.4248 58.2898C27.4104 58.426 27.3435 58.5508 27.2387 58.6373C27.1493 58.714 27.0356 58.7555 26.9184 58.7541C26.8419 58.7547 26.7663 58.7374 26.6975 58.7036C26.6286 58.6699 26.5683 58.6205 26.5212 58.5594Z" fill="#3E3E3E"/>
<path d="M19.4873 19.5935V13.5428C19.4873 13.4051 19.5413 13.273 19.6374 13.1756C19.7335 13.0782 19.8639 13.0234 19.9998 13.0234C20.1357 13.0234 20.2661 13.0782 20.3622 13.1756C20.4583 13.273 20.5123 13.4051 20.5123 13.5428V19.5935C20.5123 19.7313 20.4583 19.8633 20.3622 19.9608C20.2661 20.0582 20.1357 20.1129 19.9998 20.1129C19.8639 20.1129 19.7335 20.0582 19.6374 19.9608C19.5413 19.8633 19.4873 19.7313 19.4873 19.5935Z" fill="#3E3E3E"/>
<path d="M15.5668 8.28422C17.5973 7.28679 19.4608 5.97234 21.0889 4.38893C22.6776 3.0126 23.9204 1.79206 25.3682 1.70117H25.5347C25.6358 1.72033 25.7293 1.76843 25.8042 1.83976C25.8792 1.91109 25.9324 2.00269 25.9576 2.1037C25.9766 2.19352 25.9711 2.28687 25.9418 2.37379C25.9124 2.4607 25.8603 2.53789 25.791 2.59709C25.791 2.59709 25.791 2.5971 25.791 2.66202C25.6776 2.90688 25.5917 3.16383 25.5347 3.42809C25.1786 5.26168 25.0324 7.13081 25.0991 8.99836C25.0988 10.3269 24.5899 11.6035 23.6794 12.5593C22.7689 13.5152 21.5279 14.0757 20.2178 14.1228C18.9076 14.1699 17.6306 13.7 16.6555 12.8119C15.6804 11.9239 15.0835 10.6871 14.9902 9.36192V9.25804C14.9951 9.07239 15.0471 8.89117 15.1414 8.73192C15.2357 8.57267 15.369 8.44082 15.5283 8.34914L15.5668 8.28422ZM19.9998 13.0624C21.0651 13.0457 22.082 12.6094 22.8353 11.846C23.5887 11.0825 24.0192 10.0519 24.0357 8.97238C23.9575 6.95033 24.1296 4.92632 24.5482 2.94767C23.5422 3.56465 22.6093 4.29657 21.768 5.12904C20.0715 6.78671 18.1306 8.16657 16.0152 9.21909C16.0801 10.2468 16.5276 11.2113 17.2673 11.9175C18.007 12.6237 18.9836 13.019 19.9998 13.0235V13.0624Z" fill="#3E3E3E"/>
<path d="M15.2337 9.58238C15.1532 9.54303 15.0846 9.48252 15.035 9.40716C14.9854 9.33179 14.9567 9.24434 14.9518 9.15389C14.9518 9.15389 14.9518 9.01108 14.9518 8.88124C14.9518 3.80438 14.2984 2.59682 14.2087 2.49295C14.1261 2.41533 14.0703 2.31286 14.0495 2.20063C14.0288 2.08841 14.0441 1.97239 14.0934 1.86971C14.1509 1.75823 14.2455 1.67099 14.3604 1.62346C14.4753 1.57592 14.6032 1.57117 14.7212 1.61002L21.6911 4.09003C21.774 4.12209 21.8478 4.17442 21.9059 4.24239C21.9641 4.31035 22.0047 4.39183 22.0242 4.47956C22.0361 4.56926 22.0272 4.66051 21.9983 4.74614C21.9694 4.83176 21.9212 4.9094 21.8577 4.97295C20.1372 6.65392 18.1708 8.05544 16.0281 9.12792C15.9955 9.30709 15.8941 9.46586 15.7462 9.5694C15.6649 9.61896 15.572 9.64584 15.4772 9.6473C15.392 9.64598 15.3085 9.62369 15.2337 9.58238ZM15.9512 8.01127C17.6063 7.14319 19.1401 6.05599 20.5124 4.77819L15.4772 3.09023C15.8129 4.72553 15.9719 6.39303 15.9512 8.06322V8.01127Z" fill="#3E3E3E"/>
<path d="M24.2023 2.31131C24.2639 2.36299 24.3123 2.42888 24.3435 2.50344C24.3747 2.57799 24.3878 2.65905 24.3817 2.7398C24.3754 2.82161 24.35 2.90075 24.3077 2.97071C24.2654 3.04068 24.2073 3.09948 24.1383 3.14231C23.3298 3.71271 22.5633 4.34196 21.8449 5.02505C21.7467 5.10555 21.6252 5.15116 21.4989 5.15488C21.444 5.16681 21.3873 5.16681 21.3324 5.15488L16.1306 3.31111C16.0421 3.27678 15.9644 3.21883 15.9057 3.1434C15.8471 3.06797 15.8097 2.97786 15.7975 2.88263C15.7854 2.78665 15.8007 2.68917 15.8415 2.60172C15.8824 2.51428 15.9472 2.44056 16.0281 2.38924C17.3514 1.41189 18.7996 0.621252 20.333 0.0390625H20.4355C21.768 0.0909997 23.7283 1.96074 24.2023 2.31131ZM21.3965 4.03823C21.9602 3.53184 22.4983 3.05142 23.0236 2.6619C22.2591 1.98749 21.3943 1.43972 20.4611 1.03886C19.4001 1.45711 18.3898 1.99733 17.4502 2.64892L21.3965 4.03823Z" fill="#3E3E3E"/>
<path d="M9.95505 18.4381C9.62812 17.3502 9.22566 16.2872 8.75069 15.2569C8.69358 15.1329 8.68711 14.9909 8.7327 14.8621C8.77829 14.7332 8.87224 14.6278 8.99412 14.5688C9.05444 14.5383 9.1202 14.5205 9.18747 14.5165C9.25475 14.5125 9.32212 14.5223 9.38555 14.5453C9.44899 14.5684 9.50719 14.6042 9.55662 14.6506C9.60604 14.697 9.64569 14.7531 9.67317 14.8155C10.1818 15.8894 10.6101 17.0005 10.9544 18.1394C10.9907 18.272 10.9749 18.4136 10.9104 18.5346C10.8459 18.6557 10.7377 18.7467 10.6084 18.7886H10.4547C10.3454 18.7919 10.2379 18.7596 10.148 18.6965C10.0581 18.6334 9.99054 18.5429 9.95505 18.4381Z" fill="#3E3E3E"/>
<path d="M3.04941 11.2578C4.77653 9.73221 6.25533 7.93999 7.43123 5.94726C8.62278 4.19438 9.50681 2.63626 10.9418 2.2727C11.0466 2.24951 11.1559 2.26022 11.2543 2.30331C11.3528 2.3464 11.4354 2.41971 11.4906 2.51291C11.5458 2.60611 11.5707 2.7145 11.5619 2.82282C11.5531 2.93113 11.5109 3.03392 11.4415 3.11669C11.4226 3.35436 11.4226 3.59317 11.4415 3.83083C11.5555 5.73392 11.891 7.61669 12.4408 9.44004C12.5569 9.86293 12.6172 10.2995 12.6202 10.7385C12.6134 11.8684 12.2433 12.9652 11.5658 13.8627C10.8883 14.7601 9.94055 15.4092 8.8662 15.7115C7.62527 16.0314 6.31107 15.869 5.18236 15.2563C4.05364 14.6435 3.19217 13.6247 2.76754 12.4005C2.75197 12.3015 2.75197 12.2007 2.76754 12.1018C2.77603 11.811 2.89008 11.5336 3.08785 11.3228L3.04941 11.2578ZM7.52089 14.8415C7.87086 14.8432 8.21961 14.7995 8.55868 14.7117C9.58399 14.417 10.4552 13.7281 10.9865 12.7918C11.5179 11.8556 11.6673 10.746 11.403 9.69972C10.8193 7.79434 10.4708 5.82305 10.3652 3.83083V3.75291C9.57138 4.59462 8.87109 5.52206 8.27685 6.51857C7.05774 8.58985 5.52257 10.4524 3.72846 12.0369C3.98619 12.8511 4.49229 13.5613 5.17383 14.0653C5.85538 14.5694 6.67718 14.8411 7.52089 14.8415Z" fill="#3E3E3E"/>
<path d="M3.19019 12.712C3.08099 12.7137 2.97424 12.679 2.88631 12.6134C2.79838 12.5477 2.73411 12.4547 2.70332 12.3485L2.61363 12.1018C1.3324 7.14175 0.371463 6.18091 0.281777 6.11599C0.181069 6.06413 0.100097 5.98 0.0514391 5.87668C0.00278161 5.77336 -0.0108233 5.65665 0.01273 5.54468C0.0373257 5.421 0.10549 5.31062 0.204516 5.23416C0.303541 5.1577 0.426635 5.1204 0.550825 5.12919L7.90511 5.70049C7.99435 5.70543 8.08063 5.73455 8.155 5.78479C8.22936 5.83503 8.28907 5.90456 8.3279 5.98614C8.37166 6.06551 8.39464 6.15491 8.39464 6.24582C8.39464 6.33674 8.37166 6.42616 8.3279 6.50553C7.10153 8.58295 5.56261 10.4536 3.76672 12.0498C3.77514 12.2115 3.73005 12.3715 3.63859 12.5043C3.58559 12.5726 3.51727 12.6271 3.43926 12.6633C3.36126 12.6994 3.27587 12.7161 3.19019 12.712ZM3.38237 10.9851C4.76041 9.71824 5.96284 8.26813 6.95697 6.67431L1.63988 6.25882C2.39135 7.76411 2.97576 9.34923 3.38237 10.9851Z" fill="#3E3E3E"/>
<path d="M9.8784 3.25893C9.9497 3.29698 10.0119 3.35042 10.0606 3.41548C10.1093 3.48054 10.1433 3.55563 10.1602 3.63546C10.1749 3.71609 10.1709 3.79906 10.1487 3.87789C10.1265 3.95671 10.0866 4.02928 10.0321 4.08992C9.39449 4.85121 8.81212 5.65835 8.28965 6.505C8.23909 6.58086 8.1701 6.64221 8.0893 6.68315C8.00851 6.72409 7.91865 6.74323 7.82843 6.73871L2.33194 6.31022C2.23711 6.30122 2.14647 6.26626 2.06974 6.20908C1.993 6.1519 1.93308 6.07466 1.89633 5.98562C1.8586 5.89765 1.84697 5.80045 1.8629 5.7059C1.87883 5.61136 1.92163 5.52357 1.98602 5.45327C3.0132 4.16321 4.20689 3.01898 5.53502 2.05138C5.68557 1.99081 5.84734 1.96423 6.00907 1.97347C7.35821 2.19018 8.6645 2.62415 9.8784 3.25893ZM7.6106 5.68698C8.03341 5.05075 8.43061 4.38854 8.82779 3.93409C7.94784 3.4888 7.00597 3.18231 6.03471 3.0252H5.93219C5.01993 3.70277 4.18992 4.48728 3.45943 5.36237L7.6106 5.68698Z" fill="#3E3E3E"/>
<path d="M29.4042 18.7886C29.3392 18.7693 29.2787 18.7371 29.2261 18.694C29.1735 18.6508 29.1298 18.5975 29.0977 18.5371C29.0655 18.4767 29.0455 18.4105 29.0387 18.3423C29.0319 18.274 29.0385 18.2051 29.0582 18.1394C29.4085 17.0026 29.8366 15.8919 30.3394 14.8155C30.3669 14.7531 30.4066 14.697 30.456 14.6506C30.5055 14.6042 30.5636 14.5684 30.6271 14.5453C30.6905 14.5223 30.7579 14.5125 30.8251 14.5165C30.8924 14.5205 30.9582 14.5383 31.0185 14.5688C31.08 14.5968 31.1354 14.6369 31.1816 14.6867C31.2278 14.7365 31.2637 14.795 31.2875 14.8589C31.3113 14.9229 31.3225 14.9909 31.3203 15.0592C31.3181 15.1275 31.3026 15.1947 31.2748 15.2569C30.7943 16.2848 30.3917 17.3483 30.0704 18.4381C30.0338 18.5432 29.9662 18.6344 29.8769 18.6994C29.7876 18.7644 29.6807 18.8001 29.5707 18.8016L29.4042 18.7886Z" fill="#3E3E3E"/>
<path d="M37.0148 11.3354C37.1465 11.4743 37.2404 11.6453 37.2876 11.8319C37.3347 12.0184 37.3334 12.2142 37.2839 12.4001C36.9343 13.4136 36.2834 14.2924 35.4207 14.9155C34.5579 15.5387 33.5259 15.8756 32.4664 15.8799C31.7971 15.8817 31.1341 15.748 30.5165 15.4865C29.8989 15.225 29.3391 14.8411 28.87 14.3572C28.4009 13.8733 28.032 13.2993 27.7849 12.6689C27.5378 12.0385 27.4176 11.3643 27.4312 10.6862C27.4297 10.2478 27.4857 9.81115 27.5978 9.38773C28.1545 7.56607 28.4901 5.68244 28.5971 3.7785C28.6237 3.5499 28.6237 3.31894 28.5971 3.09034C28.5398 3.00157 28.5093 2.89779 28.5093 2.7917C28.5093 2.68562 28.5398 2.58182 28.5971 2.49305C28.6529 2.39964 28.7357 2.32586 28.8342 2.28173C28.9328 2.2376 29.0424 2.22527 29.1481 2.24637C30.583 2.60993 31.4671 4.16802 32.6587 5.9209C33.8346 7.91363 35.3133 9.70587 37.0404 11.2315L37.0148 11.3354ZM29.6221 3.83045C29.5161 5.82686 29.1675 7.80239 28.5843 9.71234C28.4977 10.0471 28.4547 10.392 28.4562 10.7381C28.4553 11.6404 28.7469 12.518 29.2863 13.2359C29.8257 13.9538 30.5829 14.4722 31.4415 14.7113C31.7761 14.7999 32.1206 14.8435 32.4664 14.8411C33.3074 14.8407 34.1278 14.5774 34.8157 14.0871C35.5035 13.5968 36.0254 12.9034 36.3101 12.1014V12.0365C34.5197 10.4484 32.9851 8.58646 31.7618 6.51819C31.1752 5.51644 30.4742 4.58816 29.6734 3.75253L29.6221 3.83045Z" fill="#3E3E3E"/>
<path d="M36.7967 12.712C36.7207 12.7098 36.646 12.6914 36.5775 12.6578C36.509 12.6242 36.4484 12.5763 36.3995 12.5172C36.355 12.459 36.3229 12.3919 36.3052 12.3204C36.2876 12.2489 36.2848 12.1744 36.297 12.1018C34.4956 10.4806 32.9451 8.59412 31.6974 6.50553C31.6498 6.42752 31.6245 6.33757 31.6245 6.24582C31.6245 6.15408 31.6498 6.06415 31.6974 5.98614C31.7362 5.90716 31.7942 5.8395 31.8659 5.78952C31.9376 5.73955 32.0207 5.70889 32.1074 5.70049L39.4745 5.12919C39.5987 5.1204 39.7218 5.1577 39.8208 5.23416C39.9198 5.31062 39.988 5.421 40.0126 5.54468C40.0375 5.65823 40.0231 5.77701 39.9717 5.88106C39.9204 5.9851 39.8353 6.06806 39.7307 6.11599C39.5427 6.33491 39.3794 6.57445 39.2439 6.83013C38.4383 8.50822 37.8195 10.2719 37.3989 12.0888C37.3989 12.1926 37.3348 12.2835 37.3092 12.3614C37.275 12.4697 37.2059 12.5631 37.1129 12.6267C37.0199 12.6903 36.9086 12.7203 36.7967 12.712ZM36.6174 10.9851C37.0276 9.35221 37.6074 7.76795 38.347 6.25882L33.0427 6.67431C34.0328 8.27111 35.2357 9.72174 36.6174 10.9851Z" fill="#3E3E3E"/>
<path d="M29.9551 4.09023C29.903 4.02813 29.8646 3.95543 29.8425 3.87705C29.8204 3.79867 29.8151 3.7164 29.827 3.63577C29.8453 3.55634 29.8814 3.48226 29.9325 3.41922C29.9836 3.35619 30.0483 3.30588 30.1217 3.27222C31.324 2.62881 32.6226 2.19015 33.9654 1.97379C34.1215 1.97157 34.277 1.99346 34.4266 2.03871C35.7734 3.0022 36.9809 4.1516 38.0141 5.45359C38.0784 5.52388 38.1212 5.61167 38.1371 5.70622C38.1531 5.80076 38.1415 5.89796 38.1037 5.98593C38.0709 6.07761 38.012 6.15738 37.9345 6.21516C37.857 6.27293 37.7642 6.30612 37.6681 6.31053L32.1844 6.73902C32.0924 6.74332 32.0009 6.72417 31.918 6.68335C31.8352 6.64252 31.7638 6.58132 31.7104 6.50531C31.1838 5.65824 30.5972 4.85109 29.9551 4.09023ZM32.4407 5.68729L36.5919 5.37566C35.8532 4.49999 35.0194 3.71162 34.1063 3.02551H34.0038C33.033 3.18457 32.0914 3.49098 31.2107 3.93441C31.5695 4.38886 31.9666 5.03808 32.4407 5.68729Z" fill="#3E3E3E"/>
</g>
<defs>
<clipPath id="clip0_328_400">
<rect width="40" height="62" fill="white"/>
</clipPath>
</defs>
</svg>
