<svg width="500" height="433" viewBox="0 0 500 433" fill="none" xmlns="http://www.w3.org/2000/svg">
<path d="M500 28.0003C500 28.0003 460 -20.2942 422 11.0001C409.925 20.9443 405.623 37.833 404.858 54.6979C404.084 71.7365 382.445 85.4249 368.836 75.1428C366.964 73.7282 364.83 72.6975 362.559 72.11L357.558 70.8167C331.547 64.0898 305.684 82.2112 303.126 108.956L302.607 114.379C299.705 144.721 269.789 164.837 240.595 156.079L237 155C209.695 139.265 175.332 157.485 173.034 188.914L171.265 213.107C170.157 228.267 157.534 240 142.333 240C140.118 240 137.911 239.747 135.754 239.244L123.945 236.494C95.3837 229.843 68.6684 253.052 71.2621 282.263L72.436 295.484C74.2567 315.988 56.7136 332.954 36.2814 330.449C17.0009 328.085 0 343.128 0 362.553V433H500V28.0003Z" fill="white"/>
</svg>
