<svg width="254" height="122" viewBox="0 0 254 122" fill="none" xmlns="http://www.w3.org/2000/svg">
<path d="M101.409 86.1903C100.075 86.1903 98.862 85.9462 97.7715 85.4579C96.3229 84.8068 95.4847 84.0826 95.2568 83.285C95.0452 82.4875 94.9395 81.9341 94.9395 81.6249C94.9395 78.6626 98.0075 75.4644 104.144 72.0302C105.234 71.4279 106.341 70.8827 107.464 70.3944C106.243 68.0995 104.493 65.8453 102.215 63.6317C99.9362 61.4019 97.5111 59.2128 94.9395 57.0643C91.9609 54.6066 89.2998 52.1652 86.9561 49.7401C83.652 46.3221 82 42.7984 82 39.1688C82 38.469 82.057 37.7772 82.1709 37.0936C82.887 32.7968 85.3529 28.9312 89.5684 25.4969C93.4909 22.3557 97.8366 20.191 102.605 19.0028C104.461 18.5634 106.202 18.3436 107.83 18.3436C109.409 18.3436 110.874 18.5471 112.225 18.954C114.992 19.7841 116.969 21.1919 118.157 23.1776C119.345 25.147 119.939 27.2955 119.939 29.6229C119.939 31.9992 119.394 34.7173 118.304 37.7772C118.141 38.2004 117.84 38.412 117.4 38.412C116.993 38.412 116.717 38.2574 116.57 37.9481C116.489 37.7691 116.448 37.6063 116.448 37.4598C116.448 37.3622 116.465 37.2564 116.497 37.1425C117.522 34.2779 118.035 31.7795 118.035 29.6473C118.035 27.7105 117.628 26.1317 116.814 24.911C115.675 23.2346 114.324 22.258 112.762 21.9813C111.199 21.7046 109.962 21.5663 109.051 21.5663C107.342 21.5663 105.462 21.8186 103.411 22.3231C99.1468 23.3973 95.2568 25.3342 91.7412 28.1337C88.1605 31.0796 86.0934 34.2372 85.54 37.6063C85.4587 38.1109 85.418 38.6154 85.418 39.12C85.418 39.9175 85.5156 40.7232 85.7109 41.537C86.2806 43.5227 87.6396 45.5979 89.7881 47.7626C91.9365 49.9273 94.3861 52.1571 97.1367 54.452C99.9036 56.7469 102.508 59.107 104.949 61.5321C107.407 63.941 109.319 66.4556 110.687 69.076C113.144 68.1809 115.569 67.3671 117.962 66.6346C121.347 65.6255 124.383 64.5269 127.068 63.3387C129.77 62.1343 131.772 60.523 133.074 58.5048C133.27 58.2118 133.546 58.0653 133.904 58.0653C134.067 58.0653 134.222 58.106 134.368 58.1874C134.694 58.3827 134.856 58.6594 134.856 59.0175C134.856 59.1802 134.808 59.343 134.71 59.5057C133.229 61.8169 131.056 63.6236 128.191 64.9257C125.327 66.2277 122.112 67.4078 118.548 68.4657C116.204 69.1818 113.828 69.9794 111.419 70.8583C111.907 72.1604 112.151 73.5031 112.151 74.8866C112.151 76.0259 111.989 77.1815 111.663 78.3534C110.882 80.8274 109.669 82.6828 108.025 83.9198C106.382 85.1731 104.974 85.8648 103.802 85.995C102.646 86.1252 101.849 86.1903 101.409 86.1903ZM100.408 84.3348C101.873 84.3348 103.37 83.7896 104.9 82.6991C106.43 81.6086 107.586 79.8427 108.367 77.4012C108.595 76.5874 108.709 75.7899 108.709 75.0087C108.709 74.0484 108.546 73.0962 108.221 72.1522C107.146 72.6242 106.097 73.1451 105.071 73.7147C101.442 75.7655 99.1712 77.4419 98.2598 78.744C97.3483 80.0624 96.8926 81.0959 96.8926 81.8446C96.8926 82.2515 96.9984 82.6177 97.21 82.9432C97.8122 83.8547 98.4876 84.3104 99.2363 84.3104C100.001 84.3267 100.392 84.3348 100.408 84.3348ZM137.225 70.4921C135.711 70.4921 134.474 69.841 133.514 68.5389C132.488 67.1718 131.976 65.2349 131.976 62.7284C131.976 60.4823 132.439 57.6259 133.367 54.1591C133.497 53.7033 133.725 53.3859 134.051 53.2069C134.393 53.0116 134.71 52.9139 135.003 52.9139C135.67 52.9139 136.15 53.1581 136.443 53.6464C136.622 53.9882 136.712 54.3055 136.712 54.5985C136.712 54.745 136.696 54.8996 136.663 55.0624C135.817 58.3013 135.394 61.0113 135.394 63.1923C135.394 64.6408 135.54 65.8697 135.833 66.8788C136.175 68.0344 136.574 68.6203 137.029 68.6366H137.713C138.592 68.6366 139.796 67.7984 141.326 66.1219C143.54 63.648 145.159 60.1649 146.185 55.6727L146.233 55.2577C146.299 54.7857 146.494 54.4195 146.819 54.1591C147.145 53.8824 147.511 53.744 147.918 53.744C148.471 53.744 148.919 53.9393 149.261 54.33C149.521 54.6718 149.651 55.0542 149.651 55.4774V55.6239C149.505 57.0887 149.432 58.4234 149.432 59.6278C149.432 61.8739 149.684 63.7701 150.188 65.3163C150.514 66.3091 150.913 66.8951 151.385 67.0741C151.857 67.2369 152.207 67.3182 152.435 67.3182C153.118 67.3182 153.989 67.009 155.047 66.3905C157.244 65.0559 159.759 62.4354 162.591 58.5292C162.802 58.2525 163.063 58.1141 163.372 58.1141C163.567 58.1141 163.746 58.1792 163.909 58.3094C164.186 58.5048 164.324 58.7733 164.324 59.1151C164.324 59.2941 164.267 59.465 164.153 59.6278C159.482 66.0731 155.454 69.2958 152.068 69.2958C151.775 69.2958 151.499 69.2714 151.238 69.2225C149.822 68.9621 148.667 68.2134 147.771 66.9764C146.876 65.7232 146.331 64.1444 146.136 62.2401L146.111 62.0692C145.102 64.2665 143.987 66.0406 142.767 67.3915C140.976 69.3283 139.633 70.3293 138.738 70.3944C137.843 70.4595 137.339 70.4921 137.225 70.4921ZM163.445 71.8348C162.973 71.8348 162.566 71.6721 162.225 71.3466C161.883 71.0048 161.712 70.5979 161.712 70.1259C161.842 64.4781 161.972 60.8973 162.103 59.3837C162.672 51.6037 163.934 44.3121 165.887 37.5087C167.71 31.2098 169.939 26.6851 172.576 23.9344C174.155 22.4045 176.035 21.6395 178.216 21.6395C180.755 21.6395 182.496 22.73 183.44 24.911C183.75 25.6597 183.904 26.5468 183.904 27.5721C183.904 33.1548 179.648 40.6662 171.136 50.1063C171.771 49.9436 172.348 49.8622 172.869 49.8622C174.253 49.911 175.197 50.4318 175.701 51.4247C175.913 51.8316 176.019 52.271 176.019 52.743C176.019 54.5822 174.757 56.5272 172.234 58.578C170.59 59.9126 168.312 61.174 165.398 62.3622C167.612 64.5269 169.419 65.9266 170.818 66.5614C172.234 67.1799 173.423 67.4891 174.383 67.4891C176.287 67.4891 178.175 66.4312 180.047 64.3153C181.398 62.7691 182.789 60.8241 184.222 58.4803C184.417 58.1711 184.677 58.0165 185.003 58.0165C185.182 58.0165 185.361 58.0653 185.54 58.163C185.833 58.3583 185.979 58.635 185.979 58.993C185.979 59.1558 185.931 59.3186 185.833 59.4813C184.303 62.0204 182.781 64.1281 181.268 65.8046C179.087 68.2134 176.8 69.4178 174.407 69.4178C173.414 69.4178 172.381 69.2225 171.307 68.8319C169.5 68.1646 167.49 66.8381 165.276 64.8524C165.195 67.1636 165.154 68.9214 165.154 70.1259C165.154 70.5979 164.983 71.0048 164.642 71.3466C164.316 71.6721 163.917 71.8348 163.445 71.8348ZM166.302 52.4501C171.412 47.2092 175.172 42.6844 177.581 38.8759C179.99 35.0673 181.398 31.9585 181.805 29.5497C181.935 28.8335 182 28.1825 182 27.5966C182 26.8153 181.886 26.1561 181.658 25.619C181.154 24.4471 180.682 23.8531 180.242 23.8368C179.803 23.8042 179.55 23.788 179.485 23.788C178.753 23.788 177.996 24.0484 177.215 24.5692C176.368 25.1226 175.636 25.7167 175.018 26.3514C172.771 28.6952 170.826 32.7316 169.183 38.4608C167.913 42.9042 166.953 47.5673 166.302 52.4501ZM165.472 60.2626C167.881 59.2209 169.76 58.1467 171.111 57.0399C173.097 55.4123 174.09 53.9882 174.09 52.7675C174.09 52.1164 173.634 51.7909 172.723 51.7909C171.974 51.7909 171.046 52.0757 169.939 52.6454C168.751 53.2313 167.409 54.1997 165.911 55.5507C165.732 57.0806 165.586 58.6512 165.472 60.2626ZM188.396 70.4921C186.883 70.4921 185.646 69.841 184.686 68.5389C183.66 67.1718 183.147 65.2349 183.147 62.7284C183.147 60.4823 183.611 57.6259 184.539 54.1591C184.669 53.7033 184.897 53.3859 185.223 53.2069C185.564 53.0116 185.882 52.9139 186.175 52.9139C186.842 52.9139 187.322 53.1581 187.615 53.6464C187.794 53.9882 187.884 54.3055 187.884 54.5985C187.884 54.745 187.868 54.8996 187.835 55.0624C186.989 58.3013 186.565 61.0113 186.565 63.1923C186.565 64.6408 186.712 65.8697 187.005 66.8788C187.347 68.0344 187.745 68.6203 188.201 68.6366H188.885C189.764 68.6366 190.968 67.7984 192.498 66.1219C194.712 63.648 196.331 60.1649 197.356 55.6727L197.405 55.2577C197.47 54.7857 197.666 54.4195 197.991 54.1591C198.317 53.8824 198.683 53.744 199.09 53.744C199.643 53.744 200.091 53.9393 200.433 54.33C200.693 54.6718 200.823 55.0542 200.823 55.4774V55.6239C200.677 57.0887 200.604 58.4234 200.604 59.6278C200.604 61.8739 200.856 63.7701 201.36 65.3163C201.686 66.3091 202.085 66.8951 202.557 67.0741C203.029 67.2369 203.379 67.3182 203.606 67.3182C204.29 67.3182 205.161 67.009 206.219 66.3905C208.416 65.0559 210.931 62.4354 213.763 58.5292C213.974 58.2525 214.235 58.1141 214.544 58.1141C214.739 58.1141 214.918 58.1792 215.081 58.3094C215.358 58.5048 215.496 58.7733 215.496 59.1151C215.496 59.2941 215.439 59.465 215.325 59.6278C210.654 66.0731 206.626 69.2958 203.24 69.2958C202.947 69.2958 202.671 69.2714 202.41 69.2225C200.994 68.9621 199.839 68.2134 198.943 66.9764C198.048 65.7232 197.503 64.1444 197.308 62.2401L197.283 62.0692C196.274 64.2665 195.159 66.0406 193.938 67.3915C192.148 69.3283 190.805 70.3293 189.91 70.3944C189.015 70.4595 188.51 70.4921 188.396 70.4921ZM233.392 71.6151C232.871 71.6151 232.358 71.5256 231.854 71.3466C230.324 70.8094 229.16 69.6213 228.362 67.7821C227.955 66.8218 227.614 65.7557 227.337 64.5839C227.19 63.9165 227.028 62.826 226.849 61.3124C226.572 58.3827 226.141 56.6818 225.555 56.2098C225.229 55.9494 224.961 55.8192 224.749 55.8192C222.959 55.8192 219.687 60.3358 214.935 69.369C214.658 70.427 214.08 70.9559 213.201 70.9559C213.038 70.9559 212.868 70.9315 212.688 70.8827C211.891 70.5897 211.492 70.0526 211.492 69.2714C211.492 69.0923 211.517 68.9133 211.565 68.7343C211.956 67.1229 212.509 63.8677 213.226 58.9686C213.6 56.3319 213.787 54.5904 213.787 53.744V53.2557C213.787 52.8651 213.901 52.5152 214.129 52.2059C214.471 51.7665 214.943 51.5468 215.545 51.5468C215.903 51.5468 216.237 51.6607 216.546 51.8885C216.904 52.1815 217.116 52.564 217.181 53.036C217.213 53.215 217.229 53.4429 217.229 53.7196C217.229 55.1031 216.823 58.3339 216.009 63.412C218.336 59.4406 220.249 56.7551 221.746 55.3553C223.243 53.9393 224.253 53.2313 224.773 53.2313H225.579C227.988 53.2313 229.591 56.1366 230.389 61.9471C230.6 63.6724 230.975 65.1779 231.512 66.4637C232.26 68.5308 233.09 69.5643 234.002 69.5643C236.297 69.5643 239.707 65.8697 244.231 58.4803C244.427 58.1874 244.703 58.0409 245.062 58.0409C245.224 58.0409 245.387 58.0816 245.55 58.163C245.859 58.3583 246.014 58.6268 246.014 58.9686C246.014 59.1477 245.965 59.3186 245.867 59.4813C244.044 62.4924 242.384 64.8931 240.887 66.6835C239.406 68.4576 238.063 69.7271 236.858 70.4921C235.654 71.2408 234.498 71.6151 233.392 71.6151ZM247.723 72.4452C247.544 72.4452 247.356 72.4208 247.161 72.3719C246.071 72.0302 245.525 71.3872 245.525 70.4432C245.525 69.9712 245.688 69.5318 246.014 69.1249C246.404 68.6203 246.933 68.368 247.601 68.368C247.812 68.368 248.04 68.3925 248.284 68.4413C249.31 68.7994 249.822 69.4423 249.822 70.37C249.822 70.8257 249.668 71.2652 249.358 71.6884C248.968 72.1929 248.423 72.4452 247.723 72.4452Z" fill="#242424"/>
<g clip-path="url(#clip0_48_209)">
<g opacity="0.75">
<path d="M70.348 71.3343C70.8444 66.2305 71.3581 60.9522 71.2924 55.7801C71.1548 44.9091 68.4506 34.7307 63.4701 26.3457C60.7022 21.6855 57.1922 17.5869 53.1767 14.2608C53.9685 15.7341 54.6317 17.2729 55.1587 18.8596C56.6913 23.4568 57.2466 28.2773 57.7829 32.9394C57.9819 34.6699 58.1878 36.4603 58.4401 38.1962C59.7042 46.8999 62.2831 55.3692 66.0876 63.3113C67.3859 66.0232 68.8577 68.7389 70.3411 71.4038C70.3441 71.3817 70.3459 71.359 70.348 71.3343Z" fill="#515A44"/>
</g>
<g opacity="0.75">
<path d="M35.2102 51.6254C36.6819 50.7227 37.8144 49.1728 38.4016 47.263C38.4768 47.0176 38.6107 46.7949 38.7919 46.6142C38.973 46.4336 39.1958 46.3006 39.4408 46.2268C39.9044 46.0859 40.3478 45.8861 40.7602 45.6322C42.9303 44.3011 44.2956 41.5711 44.1595 38.838C44.0032 35.7449 42.1498 32.6497 39.2003 30.5582C37.9619 29.6802 36.5876 28.9933 35.133 28.266C33.5923 27.4946 31.9972 26.698 30.5254 25.6347C28.0842 23.8697 26.1459 21.4919 24.9069 18.7422L24.8755 18.6731C24.7303 18.3503 24.4612 17.7514 24.2939 17.6415C24.2967 17.6461 24.2903 17.652 24.2798 17.6584C24.2693 17.6648 24.2487 17.6753 24.2272 17.6884C24.1384 17.7475 24.0614 17.8228 24.0001 17.9104C22.4824 19.9994 23.2767 23.7588 26.1802 28.2241C26.3583 28.4981 26.4479 28.8201 26.4367 29.1459C26.4255 29.4716 26.314 29.7851 26.1177 30.0432C25.9213 30.3013 25.6496 30.4913 25.34 30.5872C25.0304 30.6831 24.698 30.6801 24.3886 30.5786C22.8387 30.0701 21.2674 29.621 19.7472 29.1866C18.6301 28.8668 18.0866 28.9107 17.8621 28.9651C17.81 28.9758 17.7598 28.9945 17.7134 29.0205C17.6929 29.0331 17.645 29.0625 17.5942 29.2153C17.5389 29.381 17.5563 29.6028 17.6397 29.8253C18.3583 31.7405 19.0989 33.4281 19.9009 34.9801C20.033 35.2359 20.0933 35.5226 20.0753 35.8091C20.0573 36.0956 19.9618 36.3711 19.7989 36.606C19.6361 36.8409 19.4121 37.0261 19.1511 37.1419C18.8902 37.2576 18.6022 37.2993 18.3182 37.2626C16.0212 36.9643 12.6434 36.972 9.59486 38.7045C9.55409 38.7276 9.51365 38.7518 9.47327 38.7766C9.12011 38.9932 8.95167 39.1716 8.8889 39.2617C8.96464 39.4006 9.15223 39.5088 9.3691 39.5373C14.208 40.1671 17.6881 43.374 21.0538 46.4756C21.6268 47.0038 22.198 47.5301 22.7727 48.0395C25.6991 50.633 30.0114 53.4622 33.9368 52.2108C34.3834 52.0676 34.8109 51.8711 35.2102 51.6254Z" fill="#B57CB2"/>
</g>
<path d="M22.5048 24.6697C21.0065 22.3469 20.8716 19.0471 22.5119 16.7704C23.3148 15.6562 24.8723 15.4138 25.7972 16.529C26.2299 17.0507 26.4618 17.6975 26.7522 18.3011C27.1462 19.1187 27.6106 19.9006 28.1401 20.6378C29.2407 22.167 30.6112 23.4816 32.1828 24.5155C33.6253 25.4652 35.1902 26.2009 36.7268 26.9783C39.6975 28.4819 42.4168 30.305 44.211 33.1946C45.8039 35.7597 46.4963 38.8879 45.6749 41.8213C44.9524 44.4015 43.1847 46.7275 40.6854 47.7712C39.4126 48.3026 37.9222 48.5438 36.5472 48.6194C35.0941 48.6992 33.6248 48.5479 32.2065 48.2115C29.2218 47.5042 26.4953 45.9816 24.2227 43.9161C21.6173 41.5482 19.6204 38.5737 18.0463 35.4405C17.2627 33.8758 16.5641 32.2701 15.9534 30.6307C15.4668 29.3296 15.7315 27.7137 17.1796 27.2115C18.6201 26.7118 20.2943 27.3959 21.6807 27.7979C23.3392 28.2791 24.9928 28.7817 26.6168 29.3734C29.7973 30.5326 32.8931 32.0457 35.4459 34.3181C37.8949 36.4981 39.8649 39.3723 40.4803 42.633C40.9961 45.3678 40.422 48.303 38.8732 50.6024C37.3522 52.8607 34.9577 54.3029 32.211 54.3863C29.4642 54.4696 26.8239 53.2819 24.5706 51.7855C19.7085 48.5533 16.0972 42.9194 10.1425 41.5725C9.43591 41.4127 8.68416 41.4069 8.05725 41.0012C7.53702 40.6649 7.12582 40.1256 7.02764 39.5039C6.84596 38.3559 7.84394 37.5356 8.72987 37.0343C11.4379 35.5069 14.6501 35.0398 17.7285 35.3155C24.5294 35.9274 30.5925 39.8837 36.072 43.7067C41.9241 47.7952 47.3364 52.4871 52.2195 57.7049C57.0868 62.9015 61.42 68.5765 65.1525 74.6429C68.9287 80.7812 72.2523 87.3245 74.5247 94.1704C75.6831 97.6607 76.5795 101.231 77.2062 104.852C77.356 105.718 77.4906 106.585 77.6099 107.455C77.6858 108.011 78.0219 108.967 77.5725 109.432C76.4811 110.56 75.3086 107.746 74.979 107.105C71.8407 100.997 70.774 94.0718 70.6713 87.2854C70.563 80.0666 71.5586 72.9062 72.1491 65.7323C72.7422 58.5267 72.7792 51.3138 71.4201 44.1715C70.0996 37.2293 67.6174 30.4667 63.8193 24.4796C60.2104 18.7902 55.4095 13.8217 49.7526 10.1667C47.0302 8.40757 44.115 6.95764 41.0645 5.87734C40.7128 5.75289 40.8286 5.19377 41.1996 5.30259C47.1112 7.0342 51.2166 12.2528 53.4191 17.8091C56.089 24.5444 56.191 31.9295 57.2678 38.9976C58.4077 46.4437 60.4939 53.7196 63.4751 60.6468C66.3363 67.3004 70.1386 73.4766 73.5733 79.8381C76.879 85.9612 79.9045 92.3836 81.0778 99.2896C81.217 100.108 81.3307 100.93 81.419 101.756C81.4597 102.135 80.8714 102.143 80.829 101.767C80.0798 94.8126 77.3403 88.299 74.1278 82.1405C70.8855 75.9196 67.152 69.9565 64.1634 63.6034C61.0286 56.943 58.7287 49.9232 57.3167 42.7059C55.9381 35.6433 55.8696 28.3405 53.9707 21.3772C52.3587 15.4666 48.955 9.45807 43.2405 6.70979C42.5375 6.37368 41.8087 6.09592 41.0613 5.8793L41.1964 5.30455C47.0149 7.36503 52.3207 10.7273 56.7956 14.9943C61.4108 19.3959 65.097 24.7086 67.7355 30.5109C70.4548 36.4908 72.0942 42.9189 72.7834 49.4345C73.503 56.2381 73.018 63.0375 72.3669 69.8137C71.7271 76.4777 70.9869 83.166 71.3469 89.8788C71.5252 93.1425 71.9544 96.4015 72.7733 99.5747C73.1761 101.145 73.6821 102.688 74.2878 104.194C74.9026 105.712 75.5903 107.401 76.6002 108.706C76.7489 108.897 76.9863 109.252 77.1586 108.937C77.2437 108.782 77.1569 108.514 77.1358 108.344C77.0791 107.889 77.0179 107.434 76.9523 106.98C76.8248 106.096 76.6808 105.215 76.5201 104.337C76.2076 102.627 75.835 100.929 75.402 99.2435C74.5451 95.905 73.456 92.6292 72.1429 89.4403C70.8283 86.2505 69.2705 83.1514 67.6323 80.1162C66.0327 77.1523 64.2937 74.2697 62.4151 71.4681C58.6228 65.8094 54.2898 60.5334 49.4782 55.716C44.6952 50.9304 39.4472 46.609 33.8107 42.8775C28.5155 39.3719 22.6504 35.8497 16.1212 35.8339C14.5926 35.8305 13.0664 36.0236 11.6026 36.4638C10.3809 36.8309 8.81236 37.3572 7.95934 38.3682C7.49924 38.9137 7.48678 39.6049 7.96886 40.1625C8.50956 40.788 9.29915 40.7956 10.0432 40.9489C11.378 41.2214 12.6595 41.7387 13.8484 42.4059C18.7069 45.1316 21.9506 50.0157 26.9746 52.504C29.3443 53.6772 32.0858 54.2616 34.6242 53.3349C37.2302 52.3838 39.0192 49.9288 39.7223 47.3031C41.4451 40.8711 36.5853 35.0633 31.2851 32.1074C28.369 30.481 25.1839 29.4402 21.998 28.5067C21.209 28.2754 20.4196 28.0229 19.6199 27.833C18.8946 27.6609 18.0642 27.5244 17.3455 27.7825C15.3799 28.4881 16.6971 30.981 17.224 32.2424C19.7132 38.2076 23.5671 44.1833 29.7278 46.7842C32.3667 47.8984 35.3521 48.3705 38.1713 47.8319C39.5218 47.5736 40.7907 47.2216 41.9181 46.405C42.9968 45.6236 43.8519 44.5511 44.4503 43.363C45.7925 40.6981 45.7016 37.5985 44.4596 34.8919C43.0829 31.891 40.6111 29.7333 37.762 28.1842C34.9172 26.6376 31.8943 25.4333 29.5279 23.1393C28.3435 21.9921 27.3424 20.6686 26.5603 19.2161C25.9966 18.1656 25.3228 15.6594 23.6399 16.5384C22.4431 17.1636 21.9894 19.1029 21.9312 20.3451C21.8608 21.7616 22.2374 23.1679 23.0074 24.3636C23.2146 24.6844 22.7132 24.9917 22.5055 24.6715L22.5048 24.6697Z" fill="black"/>
</g>
<defs>
<clipPath id="clip0_48_209">
<rect width="57" height="108" fill="white" transform="matrix(-0.852411 0.522872 0.522872 0.852411 49.4905 0)"/>
</clipPath>
</defs>
</svg>
