<svg width="254" height="122" viewBox="0 0 254 122" fill="none" xmlns="http://www.w3.org/2000/svg">
<path d="M100.506 86.1904C99.1715 86.1904 97.9589 85.9463 96.8684 85.458C95.4198 84.807 94.5816 84.0827 94.3538 83.2852C94.1422 82.4876 94.0364 81.9342 94.0364 81.625C94.0364 78.6628 97.1044 75.4645 103.24 72.0303C104.331 71.4281 105.438 70.8828 106.561 70.3945C105.34 68.0996 103.59 65.8454 101.312 63.6318C99.0331 61.402 96.608 59.2129 94.0364 57.0645C91.0579 54.6068 88.3967 52.1654 86.053 49.7402C82.7489 46.3223 81.0969 42.7985 81.0969 39.1689C81.0969 38.4691 81.1539 37.7773 81.2678 37.0938C81.984 32.7969 84.4498 28.9313 88.6653 25.4971C92.5878 22.3558 96.9335 20.1911 101.702 19.0029C103.558 18.5635 105.299 18.3438 106.927 18.3438C108.506 18.3438 109.971 18.5472 111.322 18.9541C114.088 19.7842 116.066 21.1921 117.254 23.1777C118.442 25.1471 119.036 27.2956 119.036 29.623C119.036 31.9993 118.491 34.7174 117.401 37.7773C117.238 38.2005 116.937 38.4121 116.497 38.4121C116.09 38.4121 115.814 38.2575 115.667 37.9482C115.586 37.7692 115.545 37.6064 115.545 37.46C115.545 37.3623 115.561 37.2565 115.594 37.1426C116.619 34.278 117.132 31.7796 117.132 29.6475C117.132 27.7106 116.725 26.1318 115.911 24.9111C114.772 23.2347 113.421 22.2581 111.859 21.9814C110.296 21.7048 109.059 21.5664 108.148 21.5664C106.439 21.5664 104.559 21.8187 102.508 22.3232C98.2437 23.3975 94.3538 25.3343 90.8381 28.1338C87.2574 31.0798 85.1903 34.2373 84.637 37.6064C84.5556 38.111 84.5149 38.6156 84.5149 39.1201C84.5149 39.9176 84.6125 40.7233 84.8079 41.5371C85.3775 43.5228 86.7366 45.598 88.885 47.7627C91.0334 49.9274 93.483 52.1572 96.2336 54.4521C99.0006 56.7471 101.605 59.1071 104.046 61.5322C106.504 63.9411 108.416 66.4557 109.783 69.0762C112.241 68.181 114.666 67.3672 117.059 66.6348C120.444 65.6257 123.48 64.527 126.165 63.3389C128.867 62.1344 130.869 60.5231 132.171 58.5049C132.366 58.2119 132.643 58.0654 133.001 58.0654C133.164 58.0654 133.319 58.1061 133.465 58.1875C133.791 58.3828 133.953 58.6595 133.953 59.0176C133.953 59.1803 133.905 59.3431 133.807 59.5059C132.326 61.8171 130.153 63.6237 127.288 64.9258C124.424 66.2279 121.209 67.4079 117.645 68.4658C115.301 69.182 112.925 69.9795 110.516 70.8584C111.004 72.1605 111.248 73.5033 111.248 74.8867C111.248 76.026 111.086 77.1816 110.76 78.3535C109.979 80.8275 108.766 82.6829 107.122 83.9199C105.478 85.1732 104.071 85.8649 102.899 85.9951C101.743 86.1253 100.946 86.1904 100.506 86.1904ZM99.5051 84.335C100.97 84.335 102.467 83.7897 103.997 82.6992C105.527 81.6087 106.683 79.8428 107.464 77.4014C107.692 76.5876 107.806 75.79 107.806 75.0088C107.806 74.0485 107.643 73.0964 107.318 72.1523C106.243 72.6243 105.194 73.1452 104.168 73.7148C100.539 75.7656 98.2681 77.4421 97.3567 78.7441C96.4452 80.0625 95.9895 81.096 95.9895 81.8447C95.9895 82.2516 96.0953 82.6178 96.3069 82.9434C96.9091 83.8548 97.5846 84.3105 98.3333 84.3105C99.0982 84.3268 99.4889 84.335 99.5051 84.335ZM136.322 70.4922C134.808 70.4922 133.571 69.8411 132.611 68.5391C131.585 67.1719 131.073 65.235 131.073 62.7285C131.073 60.4824 131.536 57.626 132.464 54.1592C132.594 53.7035 132.822 53.3861 133.148 53.207C133.49 53.0117 133.807 52.9141 134.1 52.9141C134.767 52.9141 135.247 53.1582 135.54 53.6465C135.719 53.9883 135.809 54.3057 135.809 54.5986C135.809 54.7451 135.793 54.8997 135.76 55.0625C134.914 58.3014 134.49 61.0114 134.49 63.1924C134.49 64.641 134.637 65.8698 134.93 66.8789C135.272 68.0345 135.67 68.6204 136.126 68.6367H136.81C137.689 68.6367 138.893 67.7985 140.423 66.1221C142.637 63.6481 144.256 60.165 145.281 55.6729L145.33 55.2578C145.395 54.7858 145.591 54.4196 145.916 54.1592C146.242 53.8825 146.608 53.7441 147.015 53.7441C147.568 53.7441 148.016 53.9395 148.358 54.3301C148.618 54.6719 148.748 55.0544 148.748 55.4775V55.624C148.602 57.0889 148.529 58.4235 148.529 59.6279C148.529 61.874 148.781 63.7702 149.285 65.3164C149.611 66.3092 150.01 66.8952 150.482 67.0742C150.954 67.237 151.304 67.3184 151.531 67.3184C152.215 67.3184 153.086 67.0091 154.144 66.3906C156.341 65.056 158.856 62.4355 161.688 58.5293C161.899 58.2526 162.16 58.1143 162.469 58.1143C162.664 58.1143 162.843 58.1794 163.006 58.3096C163.283 58.5049 163.421 58.7734 163.421 59.1152C163.421 59.2943 163.364 59.4652 163.25 59.6279C158.579 66.0732 154.551 69.2959 151.165 69.2959C150.872 69.2959 150.596 69.2715 150.335 69.2227C148.919 68.9622 147.764 68.2135 146.868 66.9766C145.973 65.7233 145.428 64.1445 145.233 62.2402L145.208 62.0693C144.199 64.2666 143.084 66.0407 141.864 67.3916C140.073 69.3285 138.73 70.3294 137.835 70.3945C136.94 70.4596 136.435 70.4922 136.322 70.4922ZM162.542 71.835C162.07 71.835 161.663 71.6722 161.322 71.3467C160.98 71.0049 160.809 70.598 160.809 70.126C160.939 64.4782 161.069 60.8975 161.199 59.3838C161.769 51.6038 163.031 44.3122 164.984 37.5088C166.807 31.21 169.036 26.6852 171.673 23.9346C173.252 22.4046 175.132 21.6396 177.313 21.6396C179.852 21.6396 181.593 22.7301 182.537 24.9111C182.847 25.6598 183.001 26.5469 183.001 27.5723C183.001 33.1549 178.745 40.6663 170.233 50.1064C170.867 49.9437 171.445 49.8623 171.966 49.8623C173.35 49.9111 174.294 50.432 174.798 51.4248C175.01 51.8317 175.115 52.2712 175.115 52.7432C175.115 54.5824 173.854 56.5273 171.331 58.5781C169.687 59.9128 167.409 61.1742 164.495 62.3623C166.709 64.527 168.516 65.9268 169.915 66.5615C171.331 67.18 172.519 67.4893 173.48 67.4893C175.384 67.4893 177.272 66.4313 179.144 64.3154C180.495 62.7692 181.886 60.8242 183.319 58.4805C183.514 58.1712 183.774 58.0166 184.1 58.0166C184.279 58.0166 184.458 58.0654 184.637 58.1631C184.93 58.3584 185.076 58.6351 185.076 58.9932C185.076 59.1559 185.028 59.3187 184.93 59.4814C183.4 62.0205 181.878 64.1283 180.365 65.8047C178.184 68.2135 175.897 69.418 173.504 69.418C172.511 69.418 171.478 69.2227 170.404 68.832C168.597 68.1647 166.587 66.8382 164.373 64.8525C164.292 67.1637 164.251 68.9215 164.251 70.126C164.251 70.598 164.08 71.0049 163.739 71.3467C163.413 71.6722 163.014 71.835 162.542 71.835ZM165.399 52.4502C170.509 47.2093 174.269 42.6846 176.678 38.876C179.087 35.0674 180.495 31.9587 180.902 29.5498C181.032 28.8337 181.097 28.1826 181.097 27.5967C181.097 26.8154 180.983 26.1562 180.755 25.6191C180.251 24.4473 179.779 23.8532 179.339 23.8369C178.9 23.8044 178.647 23.7881 178.582 23.7881C177.85 23.7881 177.093 24.0485 176.312 24.5693C175.465 25.1227 174.733 25.7168 174.115 26.3516C171.868 28.6953 169.923 32.7318 168.28 38.4609C167.01 42.9043 166.05 47.5674 165.399 52.4502ZM164.569 60.2627C166.977 59.221 168.857 58.1468 170.208 57.04C172.194 55.4124 173.187 53.9883 173.187 52.7676C173.187 52.1165 172.731 51.791 171.82 51.791C171.071 51.791 170.143 52.0758 169.036 52.6455C167.848 53.2314 166.505 54.1999 165.008 55.5508C164.829 57.0807 164.683 58.6514 164.569 60.2627ZM187.493 70.4922C185.98 70.4922 184.743 69.8411 183.782 68.5391C182.757 67.1719 182.244 65.235 182.244 62.7285C182.244 60.4824 182.708 57.626 183.636 54.1592C183.766 53.7035 183.994 53.3861 184.32 53.207C184.661 53.0117 184.979 52.9141 185.272 52.9141C185.939 52.9141 186.419 53.1582 186.712 53.6465C186.891 53.9883 186.981 54.3057 186.981 54.5986C186.981 54.7451 186.964 54.8997 186.932 55.0625C186.086 58.3014 185.662 61.0114 185.662 63.1924C185.662 64.641 185.809 65.8698 186.102 66.8789C186.444 68.0345 186.842 68.6204 187.298 68.6367H187.982C188.861 68.6367 190.065 67.7985 191.595 66.1221C193.809 63.6481 195.428 60.165 196.453 55.6729L196.502 55.2578C196.567 54.7858 196.763 54.4196 197.088 54.1592C197.414 53.8825 197.78 53.7441 198.187 53.7441C198.74 53.7441 199.188 53.9395 199.53 54.3301C199.79 54.6719 199.92 55.0544 199.92 55.4775V55.624C199.774 57.0889 199.7 58.4235 199.7 59.6279C199.7 61.874 199.953 63.7702 200.457 65.3164C200.783 66.3092 201.182 66.8952 201.654 67.0742C202.126 67.237 202.476 67.3184 202.703 67.3184C203.387 67.3184 204.258 67.0091 205.316 66.3906C207.513 65.056 210.028 62.4355 212.86 58.5293C213.071 58.2526 213.332 58.1143 213.641 58.1143C213.836 58.1143 214.015 58.1794 214.178 58.3096C214.455 58.5049 214.593 58.7734 214.593 59.1152C214.593 59.2943 214.536 59.4652 214.422 59.6279C209.751 66.0732 205.723 69.2959 202.337 69.2959C202.044 69.2959 201.767 69.2715 201.507 69.2227C200.091 68.9622 198.935 68.2135 198.04 66.9766C197.145 65.7233 196.6 64.1445 196.405 62.2402L196.38 62.0693C195.371 64.2666 194.256 66.0407 193.035 67.3916C191.245 69.3285 189.902 70.3294 189.007 70.3945C188.112 70.4596 187.607 70.4922 187.493 70.4922ZM232.489 71.6152C231.968 71.6152 231.455 71.5257 230.95 71.3467C229.42 70.8096 228.257 69.6214 227.459 67.7822C227.052 66.8219 226.711 65.7559 226.434 64.584C226.287 63.9167 226.125 62.8262 225.946 61.3125C225.669 58.3828 225.238 56.682 224.652 56.21C224.326 55.9495 224.058 55.8193 223.846 55.8193C222.056 55.8193 218.784 60.3359 214.031 69.3691C213.755 70.4271 213.177 70.9561 212.298 70.9561C212.135 70.9561 211.964 70.9316 211.785 70.8828C210.988 70.5898 210.589 70.0527 210.589 69.2715C210.589 69.0924 210.614 68.9134 210.662 68.7344C211.053 67.123 211.606 63.8678 212.323 58.9688C212.697 56.332 212.884 54.5905 212.884 53.7441V53.2559C212.884 52.8652 212.998 52.5153 213.226 52.2061C213.568 51.7666 214.04 51.5469 214.642 51.5469C215 51.5469 215.334 51.6608 215.643 51.8887C216.001 52.1816 216.212 52.5641 216.278 53.0361C216.31 53.2152 216.326 53.443 216.326 53.7197C216.326 55.1032 215.92 58.334 215.106 63.4121C217.433 59.4408 219.346 56.7552 220.843 55.3555C222.34 53.9395 223.35 53.2314 223.87 53.2314H224.676C227.085 53.2314 228.688 56.1367 229.486 61.9473C229.697 63.6725 230.072 65.1781 230.609 66.4639C231.357 68.5309 232.187 69.5645 233.099 69.5645C235.394 69.5645 238.804 65.8698 243.328 58.4805C243.524 58.1875 243.8 58.041 244.158 58.041C244.321 58.041 244.484 58.0817 244.647 58.1631C244.956 58.3584 245.111 58.627 245.111 58.9688C245.111 59.1478 245.062 59.3187 244.964 59.4814C243.141 62.4925 241.481 64.8932 239.984 66.6836C238.503 68.4577 237.16 69.7272 235.955 70.4922C234.751 71.2409 233.595 71.6152 232.489 71.6152ZM246.82 72.4453C246.641 72.4453 246.453 72.4209 246.258 72.3721C245.168 72.0303 244.622 71.3874 244.622 70.4434C244.622 69.9714 244.785 69.5319 245.111 69.125C245.501 68.6204 246.03 68.3682 246.698 68.3682C246.909 68.3682 247.137 68.3926 247.381 68.4414C248.406 68.7995 248.919 69.4424 248.919 70.3701C248.919 70.8258 248.765 71.2653 248.455 71.6885C248.065 72.193 247.519 72.4453 246.82 72.4453Z" fill="white"/>
<g clip-path="url(#clip0_1_51)">
<g opacity="0.75">
<path d="M69.4451 71.3345C69.9414 66.2307 70.4552 60.9524 70.3894 55.7803C70.2519 44.9093 67.5476 34.7309 62.5672 26.3459C59.7993 21.6857 56.2893 17.5871 52.2738 14.261C53.0655 15.7343 53.7287 17.2731 54.2557 18.8598C55.7884 23.457 56.3437 28.2775 56.8799 32.9396C57.079 34.6702 57.2849 36.4605 57.5371 38.1964C58.8012 46.9001 61.3801 55.3694 65.1846 63.3115C66.483 66.0234 67.9548 68.7391 69.4381 71.404C69.4412 71.3819 69.443 71.3592 69.4451 71.3345Z" fill="#89BB41"/>
</g>
<g opacity="0.75">
<path d="M34.3073 51.6259C35.779 50.7232 36.9115 49.1732 37.4987 47.2635C37.5739 47.0181 37.7079 46.7954 37.889 46.6147C38.0701 46.4341 38.2929 46.3011 38.5379 46.2273C39.0015 46.0864 39.4449 45.8866 39.8573 45.6327C42.0274 44.3016 43.3927 41.5715 43.2566 38.8385C43.1003 35.7453 41.2469 32.6501 38.2974 30.5586C37.059 29.6807 35.6847 28.9938 34.2301 28.2665C32.6894 27.4951 31.0943 26.6985 29.6226 25.6352C27.1813 23.8702 25.243 21.4924 24.004 18.7427L23.9726 18.6735C23.8274 18.3508 23.5583 17.7519 23.391 17.642C23.3939 17.6466 23.3874 17.6524 23.3769 17.6589C23.3664 17.6653 23.3458 17.6757 23.3244 17.6889C23.2355 17.748 23.1585 17.8233 23.0972 17.9109C21.5795 19.9999 22.3738 23.7593 25.2773 28.2246C25.4554 28.4986 25.545 28.8206 25.5338 29.1464C25.5226 29.4721 25.4112 29.7856 25.2148 30.0437C25.0184 30.3018 24.7467 30.4918 24.4371 30.5877C24.1275 30.6836 23.7951 30.6806 23.4857 30.5791C21.9358 30.0706 20.3645 29.6215 18.8443 29.1871C17.7272 28.8673 17.1837 28.9112 16.9592 28.9656C16.9071 28.9763 16.8569 28.995 16.8105 29.021C16.79 29.0336 16.7421 29.063 16.6913 29.2158C16.636 29.3815 16.6534 29.6033 16.7368 29.8258C17.4554 31.741 18.196 33.4285 18.998 34.9806C19.1301 35.2364 19.1904 35.523 19.1724 35.8096C19.1544 36.0961 19.0589 36.3716 18.896 36.6065C18.7332 36.8414 18.5092 37.0266 18.2482 37.1423C17.9873 37.2581 17.6993 37.2998 17.4153 37.2631C15.1183 36.9648 11.7405 36.9725 8.69197 38.705C8.65119 38.7281 8.61076 38.7523 8.57038 38.7771C8.21722 38.9937 8.04877 39.1721 7.986 39.2622C8.06175 39.4011 8.24934 39.5093 8.46621 39.5378C13.3051 40.1676 16.7852 43.3745 20.1509 46.4761C20.7239 47.0043 21.2951 47.5306 21.8698 48.04C24.7963 50.6335 29.1085 53.4627 33.0339 52.2112C33.4806 52.0681 33.9081 51.8716 34.3073 51.6259Z" fill="#FDA9F6"/>
</g>
<path d="M21.6018 24.6701C20.1035 22.3472 19.9686 19.0474 21.6089 16.7708C22.4118 15.6565 23.9693 15.4141 24.8942 16.5294C25.3269 17.0511 25.5588 17.6978 25.8493 18.3014C26.2432 19.119 26.7076 19.901 27.2371 20.6381C28.3377 22.1674 29.7082 23.4819 31.2798 24.5158C32.7224 25.4656 34.2873 26.2012 35.8238 26.9786C38.7946 28.4822 41.5139 30.3054 43.308 33.1949C44.9009 35.76 45.5934 38.8882 44.7719 41.8216C44.0494 44.4019 42.2817 46.7278 39.7825 47.7715C38.5097 48.303 37.0193 48.5441 35.6443 48.6197C34.1912 48.6996 32.7219 48.5483 31.3035 48.2118C28.3189 47.5045 25.5924 45.9819 23.3197 43.9164C20.7144 41.5485 18.7174 38.574 17.1434 35.4408C16.3598 33.8761 15.6611 32.2705 15.0505 30.631C14.5639 29.3299 14.8286 27.714 16.2766 27.2119C17.7171 26.7122 19.3914 27.3962 20.7777 27.7983C22.4362 28.2795 24.0899 28.782 25.7138 29.3738C28.8943 30.533 31.9901 32.046 34.543 34.3185C36.992 36.4984 38.9619 39.3726 39.5774 42.6333C40.0932 45.3681 39.5191 48.3034 37.9703 50.6028C36.4493 52.861 34.0547 54.3032 31.308 54.3866C28.5613 54.47 25.9209 53.2822 23.6676 51.7858C18.8055 48.5536 15.1942 42.9198 9.23951 41.5729C8.53295 41.413 7.78121 41.4072 7.15429 41.0015C6.63406 40.6653 6.22286 40.1259 6.12469 39.5042C5.943 38.3562 6.94098 37.536 7.82692 37.0347C10.535 35.5072 13.7471 35.0401 16.8256 35.3158C23.6265 35.9277 29.6895 39.8841 35.169 43.7071C41.0211 47.7955 46.4334 52.4874 51.3165 57.7053C56.1839 62.9018 60.5171 68.5769 64.2495 74.6432C68.0258 80.7815 71.3493 87.3248 73.6218 94.1708C74.7802 97.661 75.6765 101.232 76.3032 104.853C76.4531 105.718 76.5876 106.586 76.7069 107.456C76.7828 108.011 77.119 108.967 76.6695 109.432C75.5782 110.561 74.4057 107.746 74.076 107.105C70.9377 100.997 69.871 94.0721 69.7683 87.2857C69.66 80.067 70.6557 72.9065 71.2462 65.7326C71.8393 58.527 71.8762 51.3142 70.5171 44.1718C69.1967 37.2297 66.7145 30.4671 62.9164 24.48C59.3074 18.7905 54.5065 13.8221 48.8497 10.1671C46.1272 8.4079 43.212 6.95797 40.1616 5.87768C39.8099 5.75322 39.9256 5.19411 40.2966 5.30292C46.2082 7.03454 50.3136 12.2532 52.5162 17.8095C55.186 24.5447 55.288 31.9298 56.3648 38.998C57.5048 46.4441 59.5909 53.7199 62.5721 60.6471C65.4334 67.3008 69.2357 73.4769 72.6703 79.8384C75.976 85.9615 79.0015 92.3839 80.1748 99.2899C80.314 100.109 80.4278 100.931 80.5161 101.757C80.5568 102.135 79.9684 102.143 79.926 101.767C79.1768 94.8129 76.4373 88.2994 73.2249 82.1409C69.9825 75.9199 66.2491 69.9568 63.2604 63.6037C60.1256 56.9433 57.8257 49.9235 56.4137 42.7062C55.0351 35.6436 54.9667 28.3409 53.0678 21.3776C51.4557 15.467 48.052 9.45841 42.3375 6.71012C41.6346 6.37402 40.9057 6.09625 40.1584 5.87963L40.2934 5.30488C46.1119 7.36537 51.4178 10.7276 55.8926 14.9946C60.5079 19.3962 64.194 24.7089 66.8326 30.5112C69.5518 36.4911 71.1912 42.9193 71.8804 49.4349C72.6 56.2384 72.1151 63.0378 71.464 69.814C70.8241 76.4781 70.0839 83.1664 70.4439 89.8792C70.6223 93.1428 71.0514 96.4018 71.8704 99.575C72.2732 101.146 72.7791 102.689 73.3849 104.194C73.9996 105.713 74.6874 107.401 75.6972 108.706C75.846 108.898 76.0833 109.253 76.2556 108.937C76.3408 108.782 76.2539 108.514 76.2328 108.345C76.1761 107.889 76.1149 107.434 76.0494 106.98C75.9219 106.097 75.7778 105.216 75.6171 104.337C75.3047 102.627 74.932 100.929 74.499 99.2439C73.6421 95.9053 72.5531 92.6295 71.2399 89.4406C69.9254 86.2509 68.3676 83.1518 66.7293 80.1165C65.1298 77.1527 63.3907 74.27 61.5121 71.4685C57.7199 65.8097 53.3868 60.5338 48.5752 55.7163C43.7923 50.9307 38.5443 46.6093 32.9077 42.8779C27.6126 39.3722 21.7474 35.8501 15.2183 35.8343C13.6896 35.8309 12.1634 36.024 10.6996 36.4641C9.47798 36.8312 7.90941 37.3575 7.05639 38.3686C6.59629 38.914 6.58383 39.6052 7.06591 40.1628C7.60661 40.7883 8.3962 40.7959 9.14021 40.9493C10.475 41.2217 11.7566 41.739 12.9455 42.4063C17.804 45.132 21.0476 50.0161 26.0717 52.5043C28.4413 53.6776 31.1829 54.2619 33.7212 53.3352C36.3272 52.3841 38.1162 49.9291 38.8193 47.3034C40.5422 40.8714 35.6823 35.0636 30.3821 32.1078C27.4661 30.4813 24.2809 29.4405 21.095 28.507C20.3061 28.2757 19.5166 28.0232 18.717 27.8334C17.9916 27.6613 17.1612 27.5248 16.4426 27.7828C14.4769 28.4884 15.7941 30.9813 16.3211 32.2427C18.8103 38.2079 22.6642 44.1836 28.8249 46.7846C31.4638 47.8988 34.4492 48.3709 37.2683 47.8323C38.6189 47.574 39.8878 47.222 41.0151 46.4053C42.0938 45.6239 42.949 44.5514 43.5474 43.3633C44.8896 40.6985 44.7986 37.5988 43.5566 34.8922C42.18 31.8914 39.7082 29.7336 36.859 28.1846C34.0142 26.6379 30.9913 25.4337 28.6249 23.1397C27.4406 21.9925 26.4394 20.669 25.6573 19.2164C25.0937 18.1659 24.4198 15.6598 22.737 16.5388C21.5402 17.1639 21.0864 19.1033 21.0282 20.3454C20.9578 21.762 21.3344 23.1682 22.1045 24.364C22.3116 24.6848 21.8103 24.992 21.6026 24.6718L21.6018 24.6701Z" fill="white"/>
</g>
<defs>
<clipPath id="clip0_1_51">
<rect width="57" height="108" fill="white" transform="matrix(-0.852411 0.522872 0.522872 0.852411 48.5874 0)"/>
</clipPath>
</defs>
</svg>
